<?xml version="1.0" encoding="UTF-8" standalone="yes"?>
<svg version="1.1" width="64" height="64" color-interpolation="linearRGB"
     xmlns:svg="http://www.w3.org/2000/svg" xmlns="http://www.w3.org/2000/svg">
 <g>
  <path style="fill:none; stroke:#000000; stroke-width:4"
        d="M60 32C60 47.46 47.46 60 32 60C16.52 60 4 47.46 4 32C4 16.52 16.52 4 32 4C47.46 4 60 16.52 60 32V32z"
        transform="matrix(1,0,0,1,-1,-2)"
  />
  <path style="fill:#000000; fill-opacity:0.4352"
        d="M60 33C60 48.46 47.46 61 32 61C16.52 61 4 48.46 4 33C4 17.52 16.52 5 32 5C47.46 5 60 17.52 60 33V33z"
        transform="matrix(0.9821,0,0,0.3214,5.0714,44.3928)"
  />
  <radialGradient id="gradient0" gradientUnits="userSpaceOnUse" cx="0" cy="0" r="64" gradientTransform="matrix(0.875,0,0,0.8906,8,12)">
   <stop offset="0" stop-color="#f0f6fd"/>
   <stop offset="1" stop-color="#0670e8"/>
  </radialGradient>
  <path style="fill:url(#gradient0)"
        d="M60 32C60 47.46 47.46 60 32 60C16.52 60 4 47.46 4 32C4 16.52 16.52 4 32 4C47.46 4 60 16.52 60 32V32z"
        transform="matrix(1,0,0,1,-1,-2)"
  />
  <path style="fill:#000000; fill-opacity:0.4352"
        d="M32.08 6C30.34 6.1 28.58 7.45 27.38 8.69C21.89 14.35 18.53 21.75 15.26 28.89C12.51 34.94 10.46 41.27 8.83 47.72C10.18 49.68 11.77 51.47 13.56 53.03C13.07 51.59 13.92 49.17 14.28 47.84C16.8 39.45 20.72 31.58 24.45 23.71C25.93 21.22 26.98 17.79 29.95 16.83C32.84 16.5 34.73 19.38 36.23 21.47C42.22 30.9 47.88 40.57 52.87 50.59C53.36 50.05 53.83 49.49 54.28 48.91C50.89 36.96 46.5 25.29 40.28 14.6C38.48 11.88 36.84 8.93 34.41 6.74C33.67 6.15 32.88 5.95 32.08 6V6z
           M44.28 42.73C35.03 47.43 25.5 51.84 15.4 54.19C15.21 54.18 15.04 54.17 14.89 54.14C16.54 55.42 18.35 56.5 20.25 57.37C24.85 55.63 29.28 53.37 33.53 50.89C37.38 48.56 41.08 45.93 44.28 42.73V42.73z"
        transform="matrix(1.044,0,0,0.8053,-0.3891,11.1683)"
  />
  <path style="fill:none; stroke:#000000; stroke-width:4; stroke-linecap:round; stroke-linejoin:round"
        d="M44.28 41.73C35.03 46.43 25.5 50.84 15.4 53.19C12.14 53.17 13.75 48.81 14.28 46.84C16.8 38.45 20.72 30.58 24.45 22.71C25.93 20.22 26.98 16.79 29.95 15.83C32.84 15.5 34.74 18.38 36.23 20.47C42.36 30.1 48.13 40 53.2 50.25C54.49 52.93 55.75 55.61 56.99 58.31C53.29 42.78 48.31 27.38 40.28 13.6C38.48 10.88 36.84 7.93 34.41 5.74C32.04 3.87 29.13 5.88 27.38 7.69C21.89 13.35 18.53 20.74 15.26 27.89C11.43 36.33 8.92 45.34 7.07 54.43C6.43 57.5 9.5 59.72 12.22 58.77C19.77 57.15 26.86 53.77 33.53 49.89C37.38 47.56 41.08 44.93 44.28 41.72C44.28 41.73 44.28 41.73 44.28 41.73V41.73z"
        transform="matrix(1,0,0,1,-1,-2)"
  />
  <path style="fill:#ffffff"
        d="M44.28 41.73C35.03 46.43 25.5 50.84 15.4 53.19C12.14 53.17 13.75 48.81 14.28 46.84C16.8 38.45 20.72 30.58 24.45 22.71C25.93 20.22 26.98 16.79 29.95 15.83C32.84 15.5 34.74 18.38 36.23 20.47C42.36 30.1 48.13 40 53.2 50.25C54.49 52.93 55.75 55.61 56.99 58.31C53.29 42.78 48.31 27.38 40.28 13.6C38.48 10.88 36.84 7.93 34.41 5.74C32.04 3.87 29.13 5.88 27.38 7.69C21.89 13.35 18.53 20.74 15.26 27.89C11.43 36.33 8.92 45.34 7.07 54.43C6.43 57.5 9.5 59.72 12.22 58.77C19.77 57.15 26.86 53.77 33.53 49.89C37.38 47.56 41.08 44.93 44.28 41.72C44.28 41.73 44.28 41.73 44.28 41.73V41.73z"
        transform="matrix(1,0,0,1,-1,-2)"
  />
 </g>
</svg>
