<?xml version="1.0" encoding="UTF-8" standalone="no"?>
<svg
   xmlns:dc="http://purl.org/dc/elements/1.1/"
   xmlns:cc="http://creativecommons.org/ns#"
   xmlns:rdf="http://www.w3.org/1999/02/22-rdf-syntax-ns#"
   xmlns:svg="http://www.w3.org/2000/svg"
   xmlns="http://www.w3.org/2000/svg"
   xmlns:sodipodi="http://sodipodi.sourceforge.net/DTD/sodipodi-0.dtd"
   xmlns:inkscape="http://www.inkscape.org/namespaces/inkscape"
   version="1.1"
   width="64"
   height="64"
   color-interpolation="linearRGB"
   id="svg2"
   sodipodi:version="0.32"
   inkscape:version="0.46"
   sodipodi:docname="oither.svg"
   inkscape:output_extension="org.inkscape.output.svg.inkscape">
  <metadata
     id="metadata32">
    <rdf:RDF>
      <cc:Work
         rdf:about="">
        <dc:format>image/svg+xml</dc:format>
        <dc:type
           rdf:resource="http://purl.org/dc/dcmitype/StillImage" />
      </cc:Work>
    </rdf:RDF>
  </metadata>
  <defs
     id="defs30">
    <inkscape:perspective
       sodipodi:type="inkscape:persp3d"
       inkscape:vp_x="0 : 32 : 1"
       inkscape:vp_y="0 : 1000 : 0"
       inkscape:vp_z="64 : 32 : 1"
       inkscape:persp3d-origin="32 : 21.333333 : 1"
       id="perspective34" />
  </defs>
  <sodipodi:namedview
     inkscape:window-height="667"
     inkscape:window-width="640"
     inkscape:pageshadow="2"
     inkscape:pageopacity="0.0"
     guidetolerance="10.0"
     gridtolerance="10.0"
     objecttolerance="10.0"
     borderopacity="1.0"
     bordercolor="#666666"
     pagecolor="#ffffff"
     id="base"
     showgrid="false"
     inkscape:zoom="7.28125"
     inkscape:cx="35.980133"
     inkscape:cy="32"
     inkscape:window-x="0"
     inkscape:window-y="26"
     inkscape:current-layer="svg2" />
  <g
     id="g4"
     transform="matrix(2.1477621,0,0,2.1477621,-4.1790313,-71.161251)">
    <path
       style="fill:none;stroke:#000000;stroke-width:4"
       d="M 12,39 L 12,46 L 18,49 L 22,46 L 22,39 L 16,36 L 12,39 z M 6,50 L 6,57 L 12,60 L 16,57 L 16,50 L 10,47 L 6,50 z M 18,51 L 18,57 L 24,60 L 28,57 L 28,50 L 23,47.25 L 18,51 z"
       id="path6" />
    <linearGradient
       id="gradient0"
       gradientUnits="userSpaceOnUse"
       x1="37.240002"
       y1="20.059999"
       x2="44.310001"
       y2="30.389999">
      <stop
         offset="0"
         stop-color="#fff9ba"
         id="stop9" />
      <stop
         offset="1"
         stop-color="#ffc104"
         id="stop11" />
    </linearGradient>
    <path
       style="fill:url(#gradient0)"
       d="M 12,39 L 12,46 L 18,49 L 22,46 L 22,39 L 16,36 L 12,39 z"
       id="path13" />
    <linearGradient
       id="gradient1"
       gradientUnits="userSpaceOnUse"
       x1="25.68"
       y1="29.940001"
       x2="35.720001"
       y2="40.25">
      <stop
         offset="0"
         stop-color="#c7e3ff"
         id="stop16" />
      <stop
         offset="1"
         stop-color="#392fff"
         id="stop18" />
    </linearGradient>
    <path
       style="fill:url(#gradient1)"
       d="M 6,50 L 6,57 L 12,60 L 16,57 L 16,50 L 10,47 L 6,50 z"
       id="path20" />
    <linearGradient
       id="gradient2"
       gradientUnits="userSpaceOnUse"
       x1="46.810001"
       y1="31.98"
       x2="54.07"
       y2="44.919998">
      <stop
         offset="0"
         stop-color="#ff9797"
         id="stop23" />
      <stop
         offset="1"
         stop-color="#ce3232"
         id="stop25" />
    </linearGradient>
    <path
       style="fill:url(#gradient2)"
       d="M 18,51 L 18,57 L 24,60 L 28,57 L 28,50 L 23,47.25 L 18,51 z"
       id="path27" />
  </g>
</svg>
