<?xml version="1.0" encoding="UTF-8" standalone="yes"?>
<svg version="1.1" width="64" height="64" color-interpolation="linearRGB"
     xmlns:svg="http://www.w3.org/2000/svg" xmlns="http://www.w3.org/2000/svg">
 <g>
  <path style="fill:#010101; fill-opacity:0.4078"
        d="M32.46 7.35C46.11 7.35 57.2 18.35 57.2 31.95C57.2 45.54 46.11 56.56 32.46 56.56C18.81 56.56 7.74 45.54 7.74 31.95C7.74 18.35 18.81 7.35 32.46 7.35V7.35z"
        transform="matrix(1.0404,0,0,0.431,3.6864,40.1887)"
  />
  <radialGradient id="gradient0" gradientUnits="userSpaceOnUse" cx="0" cy="0" r="64" gradientTransform="matrix(0,-0.5164,-0.5189,0,27.911,19.8879)">
   <stop offset="0.1882" stop-color="#607aff"/>
   <stop offset="0.7725" stop-color="#461bfd"/>
   <stop offset="0.9803" stop-color="#280385"/>
  </radialGradient>
  <path style="fill:url(#gradient0)"
        d="M32.46 7.35C46.11 7.35 57.2 18.35 57.2 31.95C57.2 45.54 46.11 56.56 32.46 56.56C18.81 56.56 7.74 45.54 7.74 31.95C7.74 18.35 18.81 7.35 32.46 7.35V7.35z"
        transform="matrix(1.1494,0,0,1.15,-5.8533,-4.7985)"
  />
  <radialGradient id="gradient1" gradientUnits="userSpaceOnUse" cx="0" cy="0" r="64" gradientTransform="matrix(0,-0.5164,-0.5189,0,21.911,26.8879)">
   <stop offset="0.3254" stop-color="#0862b6"/>
   <stop offset="0.8431" stop-color="#120284"/>
   <stop offset="1" stop-color="#090561"/>
  </radialGradient>
  <path style="fill:url(#gradient1)"
        d="M53.36 18.79C49.7 13.04 43.67 8.97 36.94 7.76C35.48 7.49 33.96 7.35 32.46 7.35C25.55 7.35 18.81 10.33 14.16 15.45C9.24 20.83 6.96 28.28 7.99 35.48C8.57 38.87 8.91 39.91 9.82 41.81C12.3 47.47 16.92 52.05 22.59 54.53C29.07 57.34 36.64 57.22 43.03 54.22C42.79 53 41.78 52.99 40.77 52.9C40.73 52.9 40.69 52.9 40.66 52.9C40.78 52.93 40.9 52.96 41.01 52.99C40.23 52.79 39.51 53.16 38.78 53.36C37.92 53.63 37 53.51 36.14 53.39C34.4 53.2 32.24 52.86 30.76 54.11C30.7 54.11 30.58 54.11 30.58 54.11C30.5 54.11 30.4 54.11 30.3 54.11C30.3 54.11 26.93 54.11 26.19 54.11C25.5 53.62 24.83 53.47 24.2 53.42C24.14 53.38 23.86 53.03 23.86 53.03C23.68 52.86 23.54 52.72 23.27 52.64C22.78 52.48 22.29 52.31 21.8 52.14C21.29 51.96 20.77 51.77 20.26 51.58C20.13 51.54 20 51.52 19.84 51.51C19.82 51.46 19.82 51.38 19.81 51.33C19.69 51.15 19.58 50.98 19.47 50.8C18.99 50 18.5 49.23 17.57 49.01C17.68 48.51 17.49 48.09 17.37 47.57C17.19 47.06 17.13 46.5 17.19 45.94C17.2 45.77 17.21 45.6 17.23 45.45C17.27 44.77 17.31 44.08 17.21 43.41C18.28 42.17 18.52 40.94 18.45 39.38C18.44 39.17 18.43 38.97 18.42 38.76C18.42 37.92 18.43 37.83 18.69 37.45C18.73 37.39 18.78 37.32 18.83 37.26C19.6 36.24 20.83 34.23 19.21 33.35C17.88 32.62 16.54 31.91 15.21 31.18C15.21 31.18 14.69 30.93 14.6 30.9V30.89C14.58 29.72 14.17 28.89 13.22 28.2C13.14 28.13 13.07 28.07 13 28C12.89 27.86 12.77 27.71 12.65 27.56C12.32 27.16 11.99 26.77 11.64 26.38C11 25.8 10.39 25.6 9.86 25.53C9.82 25.44 9.76 25.32 9.68 25.24C11.1 24.64 11.76 23.1 12.3 21.78C12.63 21.02 12.89 20.2 13.48 19.56C14.02 19 14.51 18.48 14.36 17.63C15.49 17.17 16.5 16.63 17.46 16.04C17.5 16.01 17.55 15.99 17.59 15.97C18.26 15.56 18.92 15.16 19.57 14.77C20.96 13.94 21.56 12.83 22.04 11.31C22.89 11.39 23.61 11.19 24.21 10.89C25.28 11.54 27 11.56 27.9 10.62C27.94 10.61 28.11 10.61 28.28 10.61C27.76 11.68 28.28 13.15 29.47 13.6C29.5 13.64 29.52 13.73 29.56 13.78C29.35 13.86 29.08 13.94 29.08 13.94C28.73 14.35 28.37 14.75 28 15.16C27.78 15.9 28 16.67 28.37 17.34C28.38 17.39 28.39 17.47 28.39 17.47C28.42 17.59 28.48 17.8 28.54 18C28.42 18.12 28.34 18.26 28.34 18.26C27.22 19.56 25.47 19.86 24.97 21.69C24.96 21.77 24.94 21.84 24.93 21.91C24.37 22.64 24.23 23.52 24.72 24.32C24.66 24.43 24.61 24.5 24.61 24.5C24.19 25.31 23.78 26.26 24.06 27.18C24.3 28.07 25.06 28.74 25.76 29.34C26.44 29.91 27.13 30.53 28 30.85C29 31.24 30.11 31.14 31.12 30.89C31.47 30.78 31.82 30.68 32.17 30.57C32.66 30.4 33.14 30.15 33.68 30.21C34.23 30.26 34.67 30.71 35.06 31.05C34.34 32.9 35.75 34.73 36.55 36.32C36.55 36.32 36.76 36.64 36.82 36.71C35.8 38.57 35.68 40.61 37.23 42.14C37.29 42.2 37.35 42.25 37.41 42.31C37.37 43.83 37.44 46.49 39.35 46.94C41.33 47.43 43.35 46.3 44.53 44.84C44.69 44.64 44.85 44.45 45.01 44.25C45.14 44.15 45.28 44.06 45.41 43.97C45.82 43.68 46.27 43.33 46.5 42.84C46.77 42.35 46.79 41.76 47.11 41.32V41.33C47.17 42.27 48.08 42.98 49 42.8C50.15 42.62 50.85 41.39 51.3 40.44C51.38 40.31 51.45 40.18 51.52 40.05C51.53 40.01 51.54 39.99 51.56 39.95C52.13 39 52.54 37.76 51.82 36.77C51.21 35.9 50 35.67 49.17 36.38C49.17 36.1 49.17 35.83 49.17 35.83C49.18 35.24 49.19 34.65 49.2 34.06C49.24 33.81 49.82 33.28 50.11 32.97C50.21 32.87 50.31 32.77 50.4 32.66C50.51 32.57 50.62 32.49 50.73 32.4C51.34 31.87 51.93 31.25 52.17 30.43C52.28 30.05 52.23 29.49 52.24 29.09C52.24 29 52.24 28.93 52.24 28.84C52.24 28.79 52.24 28.74 52.24 28.69C52.3 27.87 52.2 27.07 51.56 26.5C52.26 26.09 52.79 25.33 53 24.44C53.03 24.48 53.14 24.67 53.14 24.67C53.32 25.08 53.61 25.57 54.04 26C53.98 27 54.36 27.97 54.82 28.87C55.26 29.72 55.34 30.68 55.33 31.63C55.34 31.96 55.36 32.29 55.37 32.61C55.4 33.11 55.45 33.63 55.31 34.13C55.19 34.62 54.96 35.01 54.84 35.48C54.53 36.55 54.46 37.66 54.43 38.75C54.29 39.66 54.82 40.52 55.56 40.8C58.36 33.61 57.53 25.31 53.36 18.79V18.79z"
        transform="matrix(1.1494,0,0,1.15,-5.8533,-4.7985)"
  />
  <radialGradient id="gradient2" gradientUnits="userSpaceOnUse" cx="0" cy="0" r="64" gradientTransform="matrix(-0.1893,0.5777,-0.5805,-0.1902,21.0356,11.0092)">
   <stop offset="0" stop-color="#ffffff"/>
   <stop offset="0.2235" stop-color="#00ff65"/>
   <stop offset="0.5568" stop-color="#00b292"/>
   <stop offset="1" stop-color="#002a80"/>
  </radialGradient>
  <path style="fill:url(#gradient2)"
        d="M17.28 50.5C17.09 50.62 16.92 50.85 16.69 50.91C17.31 51.42 17.98 51.93 18.66 52.37C18.13 51.8 17.95 50.96 17.28 50.5
           M19.84 12.58C20.27 11.89 20.54 11.1 20.73 10.29C17.91 11.82 15.39 13.91 13.34 16.39C14.56 15.98 15.71 15.3 16.81 14.63C17.38 14.29 17.93 14 18.46 13.64C18.9 13.34 19.53 13.05 19.84 12.58
           M40.4 54.37C38.44 55.77 35.41 54.53 33.16 54.77C32.66 54.83 32.17 54.94 31.77 55.28C31.24 55.71 31.03 55.65 30.3 55.65C28.8 55.65 27.29 55.65 25.77 55.65C29.04 56.56 32.49 56.8 35.87 56.35C37.47 56.12 39.06 55.74 40.6 55.24C40.7 55.19 41.87 54.59 41.45 54.42C41.12 54.33 40.7 54.51 40.4 54.37
           M50.25 37.42C49.83 37.99 49.21 38.39 48.86 39C48.48 39.73 48.68 40.55 48.68 41.33C49.45 40.97 49.79 39.96 50.18 39.28C50.46 38.76 51.08 37.79 50.25 37.42
           M43.59 15.84C43.24 15.88 43.26 15.28 43 15.13C42.52 14.92 41.99 15.19 41.55 15.41C40.21 16.14 40.6 14.6 40.88 13.85C40.92 13.73 41.78 13.9 41.94 13.86C42.38 13.82 43.03 13.6 43.39 14C43.73 14.38 44 14.77 44.39 15.1C44.85 15.54 43.96 15.79 43.59 15.84
           M57.14 30.5C56.79 26.72 55.69 23 53.86 19.71C52.92 18.01 51.75 16.44 50.42 15.02C49.76 14.35 49.06 13.68 48.33 13.07C48.11 12.91 47.85 12.56 47.52 12.74C47.23 12.9 47.01 12.32 47.1 12.13C43.87 9.76 40.04 8.19 36.08 7.61C36.64 8 37.37 7.98 37.99 8.22C38.23 8.29 38.86 8.67 38.34 8.83C37.32 9.16 36.18 8.75 35.16 8.83C34.5 8.88 34.19 9.09 34.15 9.73C34.12 10.11 34.02 10.79 34.15 11.13C34.3 11.53 35.54 11.03 35.75 10.82C36.04 10.45 35.66 9.65 36.53 9.89C36.84 10.54 37.5 12.39 36.08 11.9C35.73 11.78 35.06 11.21 34.67 11.39C34.62 11.39 34.55 11.82 34.53 11.89C34.43 12.12 34.2 12.24 33.95 12.31C32.95 12.59 32.24 12.74 31.86 13.83C31.69 14.35 31.71 14.68 31.1 14.89C30.67 15.03 30.19 15.13 29.74 15.34C29.18 15.62 29.57 16.36 29.78 16.74C29.95 17 29.91 17.66 30.22 17.81C31.07 18.31 32.06 16.39 32.43 15.95C32.88 15.35 33.42 15.48 34.05 15.27C34.37 15.17 34.75 14.43 35.07 14.53C36.12 14.96 36.46 16.22 36.6 17.2C36.94 17.21 36.73 16.39 37.44 16.57C36.89 16.01 36.55 15.23 36.47 14.45C37.23 14.96 37.77 15.48 37.99 16.32C38.23 17.17 38.61 17.66 39.31 16.81C39.5 16.63 39.74 15.48 40.1 15.79C40.42 16.07 40.43 17 39.97 17.11C40.23 17.38 40.61 17.25 40.93 17.17C41.34 17.06 41.6 17.07 42 17.24C42.49 17.43 43 17.5 43.49 17.52C44.01 17.56 44.29 18 44.52 18.4C45.16 19.44 41.33 19.01 41.13 19C40.67 18.97 40.18 18.95 39.74 19.12C39.41 19.28 39.17 19.71 38.78 19.56C38.34 19.43 37.93 19.03 37.56 18.79C37.04 18.44 36.5 18.15 35.93 17.89C35 17.49 33.92 17.21 32.91 17.42C32.45 17.51 31.96 17.73 31.58 18.01C31.09 18.37 30.57 18.06 30.09 18.55C29.39 19.29 28.88 20.2 27.92 20.65C27.53 20.84 27.05 21 26.79 21.36C26.5 21.71 26.5 22.18 26.32 22.56C26.14 22.95 25.73 23.12 26.05 23.58C26.33 23.98 26.43 24.29 26.23 24.76C25.94 25.44 25.14 26.37 25.71 27.12C26.28 27.86 27.22 28.55 27.97 29.09C28.8 29.7 29.81 29.65 30.74 29.38C31.62 29.17 32.5 28.73 33.43 28.67C34.55 28.57 35.46 29.33 36.25 30.04C36.78 30.52 36.99 30.7 36.56 31.38C36.12 32.11 36.42 32.65 36.77 33.42C37.15 34.13 37.53 34.85 37.92 35.58C38.09 35.89 38.31 36.17 38.48 36.5C38.61 36.86 38.37 37.1 38.19 37.41C37.83 38.05 37.56 38.83 37.56 39.56C37.56 40.41 37.96 40.72 38.51 41.25C39 41.74 38.97 42.62 38.93 43.24C38.87 44.14 39.13 44.75 39.65 45.45C40.44 45.49 41.27 45.43 42 45.07C42.87 44.67 43.26 43.83 43.92 43.18C44.52 42.58 45.17 42.5 45.38 41.58C45.58 40.48 46.16 40.05 46.98 39.38C47.71 38.72 47.6 37.86 47.64 36.99C47.67 35.98 47.53 34.85 47.68 33.86C47.8 32.95 48.69 32.23 49.28 31.59C49.75 31.14 50.5 30.7 50.66 30.04C50.77 29.68 50.67 29.22 50.67 28.84C50.67 28.53 50.78 28.09 50.64 27.86C50.31 27.15 48.83 27.85 48.69 27.18C48.57 26.79 48.58 26.86 48.85 26.61C49.16 26.34 48.85 26.05 48.6 25.92C47.88 25.49 47.33 25.24 46.79 24.54C46.31 23.91 45.9 23.19 45.5 22.47C45.42 22.31 44.46 20.39 45.02 20.55C45.64 20.77 46.18 21.5 46.59 21.94C47.35 22.75 48 23.61 48.47 24.6C48.48 24.72 48.9 24.97 49 25.02C49.35 25.26 49.7 25.47 50.14 25.43C51.11 25.33 51.56 24.47 51.61 23.61C51.74 22.43 50.83 22.68 50.11 22.1C49.7 21.78 49.45 21.34 49.12 20.96C48.9 20.71 48.37 20.35 48.54 19.96C48.96 19.7 49.13 19.93 49.51 20.16C50 20.45 50.5 20.69 51 20.87C51.56 21.04 52.37 20.88 52.85 21.22C53.11 21.42 53.32 21.93 53.52 22.24C53.83 22.71 54.12 23.19 54.36 23.7C54.77 24.47 54.89 25 55.83 25.29C55.23 26.28 55.82 27.44 56.3 28.35C56.83 29.41 56.91 30.47 56.9 31.65C56.89 32.75 57.11 33.99 56.64 35.01C56.07 36.13 44 54.77 44 56C44 55.96 48.79 51.59 52 47C54.78 43 56.98 39.02 57 39C56.95 39.07 55.86 39.36 56 39.39C56.24 39.42 56.66 37.1 56.7 36.84C57.13 34.76 57.28 32.61 57.14 30.5
           M12.84 18.06C12.9 17.74 12.71 17.64 12.52 17.43C11.07 19.41 9.93 21.58 9.11 23.9C11 22.43 10.88 19.56 12.84 18.06
           M30.57 12.66C31.02 12.69 31.52 12.99 31.93 12.83C32.63 12.54 31.96 11.52 31.69 11.21C31.48 11 30.5 10.02 30.68 10.89C30.79 11.47 31.3 12.26 30.57 12.66
           M24.27 9C24.76 9.31 24.79 9.62 25.4 9.73C25.8 9.81 26.47 9.89 26.79 9.55C27.6 8.75 28.81 9.34 29.73 8.75C30.47 8.29 31.09 7.4 32.06 7.4C32.63 7.4 33 7.73 33.47 8.01C34.1 8.36 34.62 7.69 35.21 7.5C30.64 7 25.98 7.77 21.84 9.73C22.75 10.02 23.58 9.55 24.27 9
           M15.5 43.01C15.91 42.49 16.43 42.06 16.74 41.44C17.07 40.72 16.88 39.57 16.88 38.76C16.88 37.86 16.88 37.33 17.45 36.52C17.9 35.96 18.32 35.44 18.46 34.67C17.13 33.97 15.82 33.25 14.49 32.54C14.13 32.37 13.35 32.12 13.17 31.76C12.96 31.23 13.17 30.54 12.93 30.03C12.71 29.65 12.11 29.37 11.81 29.02C11.4 28.53 11.08 27.96 10.61 27.5C10.14 27.07 9.69 26.88 9.11 27.18C8.49 27.54 8.5 26.58 8.46 26.15C8.28 26.86 8.14 27.56 8.03 28.28C8.57 28.28 8.5 28.43 8.54 28.98C8.56 29.51 8.57 30.05 8.57 30.6C8.67 30.86 8.61 30.97 8.4 30.97C8.3 31 8.23 31.03 8.17 31.05C8.04 31.17 7.94 31.14 7.88 31C7.63 31 7.8 33.42 7.81 33.61C7.88 34.39 7.8 36.85 8.91 36.5C9.5 36.86 9.41 37.83 9.79 38.37C10.27 39.04 10.86 39.4 11.11 40.23C11.33 41.05 11.35 41.94 11.5 42.8C11.67 43.86 12.26 44.24 13.05 44.89C13.24 46.02 13.55 46.72 14.32 47.55C14.67 47.95 15.01 48.31 15.33 48.74C15.63 49.16 15.8 49.14 16.11 48.69C15.71 47.82 15.56 46.83 15.61 45.84C15.68 44.92 15.89 43.89 15.5 43.01"
        transform="matrix(1.1494,0,0,1.15,-5.8533,-4.7985)"
  />
  <path style="fill:#ca7e7e; fill-opacity:0.8235"
        d="M4 42L7 39V24L4 22C4 22 2 27.58 2 32C2 37.47 4 42 4 42z"
  />
  <linearGradient id="gradient3" gradientUnits="userSpaceOnUse" x1="44.48" y1="-3.09" x2="66.75" y2="21.36">
   <stop offset="0" stop-color="#ffffff" stop-opacity="0.9686"/>
   <stop offset="1" stop-color="#777777" stop-opacity="0.9686"/>
  </linearGradient>
  <path style="fill:url(#gradient3)"
        d=""
  />
  <path style="fill:none; stroke:#131313; stroke-opacity:0.9686; stroke-width:4; stroke-linecap:round"
        d="M5 42L7 40V24L5 22
           M8 48L12 43V20L8 16
           M12 43L19 45
           M12 20L18 18
           M12 11L14 13C14 13 16.65 12.66 18 12C20.35 10.81 22 9 22 9H19L25 6L27 9H25L21 13H26L30 11L29 9L38 10L34 15L32 13L27 16V18L34 20L36 17L43 24L30 25L32 22L26 21H24L18 25V38L24 42L32 40L30 36L43 38L36 47L34 43L27 45V48L33 51L34 49L38 54L30 55L31 53L25 50H21L24 54L26 53L25 58L19 56L21 55L18 52L14 50L12 53"
  />
  <linearGradient id="gradient4" gradientUnits="userSpaceOnUse" x1="44.48" y1="-3.09" x2="66.75" y2="21.36">
   <stop offset="0" stop-color="#ffffff" stop-opacity="0.9686"/>
   <stop offset="1" stop-color="#777777" stop-opacity="0.9686"/>
  </linearGradient>
  <path style="fill:none; stroke:url(#gradient4); stroke-width:1"
        d="M5 42L7 40V24L5 22
           M8 48L12 43V20L8 16
           M12 43L19 45
           M12 20L18 18
           M12 11L14 13C14 13 16.65 12.66 18 12C20.35 10.81 22 9 22 9H19L25 6L27 9H25L21 13H26L30 11L29 9L38 10L34 15L32 13L27 16V18L34 20L36 17L43 24L30 25L32 22L26 21H24L18 25V38L24 42L32 40L30 36L43 38L36 47L34 43L27 45V48L33 51L34 49L38 54L30 55L31 53L25 50H21L24 54L26 53L25 58L19 56L21 55L18 52L14 50L12 53"
  />
  <path style="fill:none; stroke:#000000; stroke-width:2"
        d="M32.46 7.35C46.11 7.35 57.2 18.35 57.2 31.95C57.2 45.54 46.11 56.56 32.46 56.56C18.81 56.56 7.74 45.54 7.74 31.95C7.74 18.35 18.81 7.35 32.46 7.35V7.35z"
        transform="matrix(1.1882,0,0,1.1891,-7.1159,-6.0469)"
  />
 </g>
</svg>
