<?xml version="1.0" encoding="UTF-8" standalone="yes"?>
<svg version="1.1" width="64" height="64" color-interpolation="linearRGB"
     xmlns:svg="http://www.w3.org/2000/svg" xmlns="http://www.w3.org/2000/svg">
 <g>
  <path style="fill:#000000; fill-opacity:0.4392"
        d="M70 32C72 32 66 38 66 38C65.77 38.87 67.49 41.06 66.31 40.66C65.04 41.83 63.88 43.11 62.7 44.37C56.93 50.38 51.19 56.44 45.43 62.45C45.15 62.75 44.91 63.08 44.56 63.31C44.27 63.43 43.94 63.4 43.63 63.42C42.5 63.4 41.38 63.41 40.26 63.38C47.44 56.15 54.64 48.97 61.84 41.77C62.17 41.47 62.15 40.99 62.16 40.57C62.13 38.39 49 37.17 49 35C48.98 33.94 55.32 26.12 55 26C56.02 24.82 69.64 31.4 70 32z"
        transform="matrix(0.906,0,0,0.906,1,4)"
  />
  <path style="fill:#0f0900"
        d="M24.63 0H24.82C28.13 1.33 31.5 2.53 34.85 3.83C45.06 7.67 55.26 11.57 65.49 15.4C65.5 18.75 65.49 22.1 65.5 25.46C65.56 26.22 64.83 26.64 64.38 27.14C63.29 28.26 62.12 29.31 61.09 30.48C61.43 30.61 61.76 30.74 62.09 30.87C62.2 31.92 62.13 32.98 62.14 34.02C62.15 36.21 62.13 38.39 62.16 40.57C62.15 40.99 62.17 41.47 61.84 41.77C54.64 48.97 47.44 56.15 40.26 63.38C40.1 63.53 39.96 63.68 39.81 63.85H39.62C38.72 63.28 37.74 62.85 36.8 62.37C25.26 56.59 13.72 50.83 2.18 45.05C1.46 44.68 0.74 44.3 0 43.99V33.4C1.64 32.04 3.28 30.67 4.91 29.28C4.39 29.02 3.88 28.76 3.37 28.48C3.36 25.23 3.39 22 3.36 18.75C3.37 18.49 3.36 18.22 3.45 17.97C3.75 17.56 4.19 17.28 4.57 16.95C10.79 11.72 17 6.49 23.21 1.26C23.7 0.85 24.18 0.44 24.63 0
           M24.29 3.04C23.7 3.58 23.01 4 22.51 4.63C22.27 4.76 22.06 4.95 21.85 5.12C18.83 7.68 15.77 10.2 12.78 12.79C11.74 13.53 10.82 14.43 9.83 15.22C9.31 15.7 8.67 16.07 8.27 16.66C20.03 21.74 31.79 26.84 43.55 31.93C44.05 32.11 44.52 32.43 45.06 32.47C45.61 32.13 46.05 31.67 46.53 31.25C46.98 30.83 47.5 30.49 47.88 30C51.59 26.77 55.24 23.47 58.92 20.2C59.58 19.77 60.06 19.13 60.68 18.65C61.4 17.99 62.25 17.44 62.84 16.63C50.9 12.11 38.97 7.58 27.02 3.07C26.4 2.86 25.81 2.54 25.16 2.43C24.81 2.53 24.56 2.83 24.29 3.04
           M7.31 17.34C6.72 17.83 6.14 18.35 5.52 18.81C5.34 19.36 5.43 19.94 5.42 20.5C5.43 22.58 5.43 24.67 5.42 26.76C5.4 27.02 5.47 27.31 5.75 27.39C18.09 33.53 30.42 39.69 42.75 45.83C42.97 45.63 43.3 45.44 43.23 45.08C43.15 44.27 43.13 43.45 42.99 42.64C43.01 42.6 43.07 42.52 43.1 42.49C43.02 41.94 43.27 41.22 42.82 40.81V40.73C43.02 40.22 42.95 39.65 42.98 39.11C43 37.83 43.21 36.53 43 35.25C43.48 34.64 43.89 33.99 44.25 33.31C43 32.71 41.72 32.19 40.46 31.64C39.94 31.41 39.43 31.15 38.87 31C28.82 26.61 18.75 22.27 8.68 17.91C8.23 17.69 7.78 17.5 7.31 17.34
           M61.69 19.07C56.5 23.71 51.26 28.3 46.09 32.97C46.3 33.08 46.5 33.2 46.69 33.32C45.89 34.08 44.99 34.74 44.14 35.46C44.04 36.31 44.01 37.17 44.06 38.02C44 38.55 44.01 39.08 44.07 39.6C43.94 40.03 44.02 40.5 44.06 40.93C44.05 41.11 44.05 41.3 44.05 41.49C44.07 41.94 44.13 42.38 44.24 42.81C44.06 43.31 44.19 43.86 44.2 44.37C44.83 43.83 45.39 43.21 45.98 42.63C51.72 36.88 57.47 31.14 63.21 25.4C63.52 25.11 63.43 24.65 63.46 24.28C63.41 22.04 63.5 19.8 63.41 17.56C62.81 18.03 62.27 18.58 61.69 19.07
           M6.49 30.64C5.95 31.1 5.4 31.55 4.88 32.03C5.22 32.26 5.59 32.43 5.98 32.57C17.51 37.57 29.06 42.55 40.6 47.55C41.02 47.7 41.48 48.14 41.94 47.86C41.21 47.35 40.38 47.04 39.61 46.62C29.21 41.41 18.8 36.2 8.39 31C7.92 30.78 7.48 30.5 6.98 30.35C6.78 30.38 6.64 30.53 6.49 30.64
           M2.13 34.38L2.04 34.34C2.06 37.12 2.02 39.91 2.07 42.69C14.47 48.85 26.83 55.07 39.22 61.22C39.23 58.01 39.23 54.82 39.24 51.62C39.26 51.39 39.21 51.11 39.4 50.94C39.29 51.74 39.36 52.56 39.35 53.37C39.39 54.31 39.25 55.25 39.43 56.17C39.46 56.13 39.53 56.04 39.57 56C39.67 55.06 39.54 54.1 39.66 53.15C39.76 52.33 39.81 51.49 39.64 50.66C40.13 50.07 40.51 49.41 40.88 48.74C39.62 48.19 38.37 47.63 37.09 47.09C36.43 46.83 35.79 46.46 35.09 46.27C25.07 41.9 15.02 37.57 5 33.22C4.65 33.06 4.3 32.93 3.94 32.8C3.32 33.31 2.69 33.81 2.13 34.38
           M49.14 42.73C48.56 43.27 47.91 43.74 47.43 44.37C45.96 45.46 44.72 46.81 43.43 48.09C43.26 48.3 43 48.33 42.76 48.39C42.95 48.51 43.13 48.65 43.31 48.78C42.52 49.53 41.63 50.17 40.8 50.88C40.58 51.76 40.66 52.68 40.72 53.57C40.66 54.05 40.67 54.53 40.69 55.01C40.65 55.46 40.66 55.91 40.71 56.35C40.71 56.53 40.72 56.72 40.72 56.92C40.58 57.51 40.72 58.14 40.77 58.75C40.78 59.1 40.83 59.45 40.86 59.79C43.16 57.57 45.38 55.28 47.65 53.03C51.7 48.99 55.74 44.93 59.8 40.89C59.98 40.74 60.08 40.52 60.06 40.29C60.07 39.36 60.06 38.44 60.05 37.5C60.02 36.01 60.05 34.51 60.03 33.02C56.42 36.28 52.76 39.49 49.14 42.73
           M39.43 56.25C39.29 56.83 39.36 57.44 39.35 58.02C39.37 59.1 39.3 60.18 39.39 61.26C39.62 61.06 39.98 60.87 39.86 60.5C39.73 59.37 39.71 58.24 39.66 57.11C39.61 56.82 39.67 56.47 39.43 56.25z"
        transform="matrix(0.906,0,0,0.906,1,4)"
  />
  <linearGradient id="gradient0" gradientUnits="userSpaceOnUse" x1="9.7" y1="58.47" x2="-0.55" y2="39.62">
   <stop offset="0" stop-color="#8e5613"/>
   <stop offset="1" stop-color="#d08f43"/>
  </linearGradient>
  <path style="fill:url(#gradient0)"
        d="M24.29 3.04C24.56 2.83 24.81 2.53 25.16 2.43C25.81 2.54 26.4 2.86 27.02 3.07C38.97 7.58 50.9 12.11 62.84 16.63C62.25 17.44 61.4 17.99 60.68 18.65C60.06 19.13 59.58 19.77 58.92 20.2C57.87 19.11 56.87 17.96 55.59 17.11C54.42 16.31 53.3 15.4 52.07 14.66C50.3 13.54 48.49 12.48 46.58 11.57C42.46 9.43 38.07 7.82 33.6 6.51C31.04 5.84 28.46 5.2 25.82 4.85C24.73 4.65 23.62 4.58 22.51 4.63C23.01 4 23.7 3.58 24.29 3.04z"
        transform="matrix(0.906,0,0,0.906,1,4)"
  />
  <linearGradient id="gradient1" gradientUnits="userSpaceOnUse" x1="9.7" y1="58.47" x2="-0.55" y2="39.62">
   <stop offset="0" stop-color="#8e5613"/>
   <stop offset="1" stop-color="#d08f43"/>
  </linearGradient>
  <path style="fill:url(#gradient1)"
        d="M9.83 15.22C10.82 14.43 11.74 13.53 12.78 12.79C12.69 12.99 12.6 13.17 12.56 13.39C12.66 13.71 12.91 13.96 13.11 14.21C13.64 14.8 14.13 15.42 14.72 15.96C16.19 17.26 17.7 18.54 19.36 19.6C22 21.55 24.99 22.98 27.92 24.43C33.43 26.93 39.22 28.84 45.18 29.86C46.07 30.03 46.99 30.2 47.88 30C47.5 30.49 46.98 30.83 46.53 31.25C46.05 31.67 45.61 32.13 45.06 32.47C44.52 32.43 44.05 32.11 43.55 31.93C31.79 26.84 20.03 21.74 8.27 16.66C8.67 16.07 9.31 15.7 9.83 15.22z"
        transform="matrix(0.906,0,0,0.906,1,4)"
  />
  <linearGradient id="gradient2" gradientUnits="userSpaceOnUse" x1="9.7" y1="58.47" x2="-0.55" y2="39.62">
   <stop offset="0" stop-color="#8e5613"/>
   <stop offset="1" stop-color="#d08f43"/>
  </linearGradient>
  <path style="fill:url(#gradient2)"
        d="M5.42 20.5C5.43 19.94 5.34 19.36 5.52 18.81C6.13 19.37 6.95 19.6 7.68 19.94C9.87 20.92 12.05 21.88 14.23 22.85C17.49 24.39 20.79 25.8 24.07 27.25C27.95 28.94 31.8 30.67 35.67 32.36C36.36 32.67 37.02 33.04 37.76 33.24C37.65 33.07 37.55 32.91 37.45 32.73C37.98 32.2 38.49 31.64 38.87 31C39.43 31.15 39.94 31.41 40.46 31.64C41.72 32.19 43 32.71 44.25 33.31C43.89 33.99 43.48 34.64 43 35.25C42.55 35.76 42.72 36.47 42.7 37.08C42.75 38.3 42.6 39.52 42.82 40.73V40.81C42.71 41.41 42.68 42.01 42.72 42.61C42.82 42.58 43 42.51 43.1 42.49C43.07 42.52 43.01 42.6 42.99 42.64C42.88 42.81 42.75 42.98 42.75 43.19C42.72 44.06 42.77 44.95 42.75 45.83C30.42 39.69 18.09 33.53 5.75 27.39C5.47 27.31 5.4 27.02 5.42 26.76C5.43 24.67 5.43 22.58 5.42 20.5z"
        transform="matrix(0.906,0,0,0.906,1,4)"
  />
  <linearGradient id="gradient3" gradientUnits="userSpaceOnUse" x1="9.7" y1="58.47" x2="-0.55" y2="39.62">
   <stop offset="0" stop-color="#8e5613"/>
   <stop offset="1" stop-color="#d08f43"/>
  </linearGradient>
  <path style="fill:url(#gradient3)"
        d="M6.49 30.64C6.64 30.53 6.78 30.38 6.98 30.35C7.48 30.5 7.92 30.78 8.39 31C18.8 36.2 29.21 41.41 39.61 46.62C40.38 47.04 41.21 47.35 41.94 47.86C41.48 48.14 41.02 47.7 40.6 47.55C29.06 42.55 17.51 37.57 5.98 32.57C5.59 32.43 5.22 32.26 4.88 32.03C5.4 31.55 5.95 31.1 6.49 30.64z"
        transform="matrix(0.906,0,0,0.906,1,4)"
  />
  <linearGradient id="gradient4" gradientUnits="userSpaceOnUse" x1="9.7" y1="58.47" x2="-0.55" y2="39.62">
   <stop offset="0" stop-color="#8e5613"/>
   <stop offset="1" stop-color="#d08f43"/>
  </linearGradient>
  <path style="fill:url(#gradient4)"
        d="M46.18 34.86C47.1 34.09 47.88 33.18 48.87 32.51C49 32.64 49.12 32.76 49.26 32.89C49.03 33.22 48.8 33.54 48.51 33.82C47.62 34.67 46.77 35.56 45.9 36.45C45.33 37.01 44.83 37.7 44.06 38.02C44.01 37.17 44.04 36.31 44.14 35.46C44.16 35.83 44.18 36.19 44.2 36.56C44.96 36.11 45.51 35.42 46.18 34.86z"
        transform="matrix(0.906,0,0,0.906,1,4)"
  />
  <linearGradient id="gradient5" gradientUnits="userSpaceOnUse" x1="9.7" y1="58.47" x2="-0.55" y2="39.62">
   <stop offset="0" stop-color="#8e5613"/>
   <stop offset="1" stop-color="#d08f43"/>
  </linearGradient>
  <path style="fill:url(#gradient5)"
        d="M49.14 42.73C52.76 39.49 56.42 36.28 60.03 33.02C60.05 34.51 60.02 36.01 60.05 37.5C59.51 37.16 59 36.76 58.41 36.53C58.26 36.47 58.12 36.49 58 36.59C54.45 39.14 51 41.85 47.43 44.37C47.91 43.74 48.56 43.27 49.14 42.73z"
        transform="matrix(0.906,0,0,0.906,1,4)"
  />
  <linearGradient id="gradient6" gradientUnits="userSpaceOnUse" x1="9.7" y1="58.47" x2="-0.55" y2="39.62">
   <stop offset="0" stop-color="#8e5613"/>
   <stop offset="1" stop-color="#d08f43"/>
  </linearGradient>
  <path style="fill:url(#gradient6)"
        d="M48.51 35.58C49.49 34.8 50.28 33.81 51.35 33.15C51.23 33.69 51.01 34.22 50.61 34.61C49.03 36.18 47.46 37.76 45.89 39.35C45.32 39.91 44.82 40.58 44.06 40.93C44.02 40.5 43.94 40.03 44.07 39.6C45.58 38.3 47.04 36.94 48.51 35.58z"
        transform="matrix(0.906,0,0,0.906,1,4)"
  />
  <linearGradient id="gradient7" gradientUnits="userSpaceOnUse" x1="9.7" y1="58.47" x2="-0.55" y2="39.62">
   <stop offset="0" stop-color="#8e5613"/>
   <stop offset="1" stop-color="#d08f43"/>
  </linearGradient>
  <path style="fill:url(#gradient7)"
        d="M2.04 34.34L2.13 34.38C5.39 35.91 8.7 37.3 11.97 38.79C17.49 41.22 23.01 43.61 28.52 46.06C29.87 46.66 31.22 47.21 32.54 47.86C32.9 48 33.37 48.29 33.7 47.95C34.25 47.47 34.65 46.85 35.09 46.27C35.79 46.46 36.43 46.83 37.09 47.09C38.37 47.63 39.62 48.19 40.88 48.74C40.51 49.41 40.13 50.07 39.64 50.66C39.58 50.73 39.46 50.87 39.4 50.94C39.21 51.11 39.26 51.39 39.24 51.62C39.23 54.82 39.23 58.01 39.22 61.22C26.83 55.07 14.47 48.85 2.07 42.69C2.02 39.91 2.06 37.12 2.04 34.34z"
        transform="matrix(0.906,0,0,0.906,1,4)"
  />
  <linearGradient id="gradient8" gradientUnits="userSpaceOnUse" x1="9.7" y1="58.47" x2="-0.55" y2="39.62">
   <stop offset="0" stop-color="#8e5613"/>
   <stop offset="1" stop-color="#d08f43"/>
  </linearGradient>
  <path style="fill:url(#gradient8)"
        d="M46.54 39.29C47.5 38.51 48.28 37.56 49.3 36.89C49.42 37 49.53 37.11 49.64 37.23C49.21 38.04 48.48 38.61 47.85 39.27C46.63 40.44 45.53 41.73 44.24 42.81C44.13 42.38 44.07 41.94 44.05 41.49C44.94 40.82 45.72 40.03 46.54 39.29z"
        transform="matrix(0.906,0,0,0.906,1,4)"
  />
  <linearGradient id="gradient9" gradientUnits="userSpaceOnUse" x1="9.7" y1="58.47" x2="-0.55" y2="39.62">
   <stop offset="0" stop-color="#8e5613"/>
   <stop offset="1" stop-color="#d08f43"/>
  </linearGradient>
  <path style="fill:url(#gradient9)"
        d="M45.34 48.08C45.59 47.86 45.92 48.01 46.2 48.08C45.23 49.29 44.04 50.29 42.99 51.43C42.21 52.12 41.69 53.12 40.72 53.57C40.66 52.68 40.58 51.76 40.8 50.88C40.82 51.26 40.83 51.63 40.85 52C41.58 51.57 42.11 50.89 42.77 50.35C43.65 49.62 44.4 48.73 45.34 48.08z"
        transform="matrix(0.906,0,0,0.906,1,4)"
  />
  <linearGradient id="gradient10" gradientUnits="userSpaceOnUse" x1="9.7" y1="58.47" x2="-0.55" y2="39.62">
   <stop offset="0" stop-color="#8e5613"/>
   <stop offset="1" stop-color="#d08f43"/>
  </linearGradient>
  <path style="fill:url(#gradient10)"
        d="M43.13 52.88C44.14 52.04 45 51.04 46.08 50.29C46.16 50.34 46.32 50.44 46.4 50.48C46.19 50.93 45.96 51.37 45.6 51.71C44.26 53.03 42.93 54.37 41.61 55.73C41.36 56 41.03 56.18 40.71 56.35C40.66 55.91 40.65 55.46 40.69 55.01C41.56 54.37 42.33 53.6 43.13 52.88z"
        transform="matrix(0.906,0,0,0.906,1,4)"
  />
  <linearGradient id="gradient11" gradientUnits="userSpaceOnUse" x1="9.7" y1="58.47" x2="-0.55" y2="39.62">
   <stop offset="0" stop-color="#8e5613"/>
   <stop offset="1" stop-color="#d08f43"/>
  </linearGradient>
  <path style="fill:url(#gradient11)"
        d="M44.28 53.73C44.8 53.25 45.29 52.7 45.96 52.45C46.12 52.56 46.16 52.7 46.07 52.89C45.89 53.35 45.5 53.69 45.16 54.03C43.81 55.34 42.53 56.73 41.15 58.02C40.95 58.21 40.84 58.49 40.77 58.75C40.72 58.14 40.58 57.51 40.72 56.92C41.21 56.51 41.72 56.14 42.16 55.68C42.83 55 43.6 54.42 44.28 53.73z"
        transform="matrix(0.906,0,0,0.906,1,4)"
  />
  <linearGradient id="gradient12" gradientUnits="userSpaceOnUse" x1="14.76" y1="45.48" x2="14.22" y2="15.99">
   <stop offset="0" stop-color="#cc862c"/>
   <stop offset="1" stop-color="#e6c8a1"/>
  </linearGradient>
  <path style="fill:url(#gradient12)"
        d="M21.85 5.12C22.06 4.95 22.27 4.76 22.51 4.63C23.62 4.58 24.73 4.65 25.82 4.85C28.46 5.2 31.04 5.84 33.6 6.51C38.07 7.82 42.46 9.43 46.58 11.57C48.49 12.48 50.3 13.54 52.07 14.66C53.3 15.4 54.42 16.31 55.59 17.11C56.87 17.96 57.87 19.11 58.92 20.2C55.24 23.47 51.59 26.77 47.88 30C46.99 30.2 46.07 30.03 45.18 29.86C39.22 28.84 33.43 26.93 27.92 24.43C24.99 22.98 22 21.55 19.36 19.6C17.7 18.54 16.19 17.26 14.72 15.96C14.13 15.42 13.64 14.8 13.11 14.21C12.91 13.96 12.66 13.71 12.56 13.39C12.6 13.17 12.69 12.99 12.78 12.79C15.77 10.2 18.83 7.68 21.85 5.12z"
        transform="matrix(0.906,0,0,0.906,1,4)"
  />
  <linearGradient id="gradient13" gradientUnits="userSpaceOnUse" x1="14.76" y1="45.48" x2="14.22" y2="15.99">
   <stop offset="0" stop-color="#cc862c"/>
   <stop offset="1" stop-color="#e6c8a1"/>
  </linearGradient>
  <path style="fill:url(#gradient13)"
        d="M7.31 17.34C7.78 17.5 8.23 17.69 8.68 17.91C18.75 22.27 28.82 26.61 38.87 31C38.49 31.64 37.98 32.2 37.45 32.73C37.55 32.91 37.65 33.07 37.76 33.24C37.02 33.04 36.36 32.67 35.67 32.36C31.8 30.67 27.95 28.94 24.07 27.25C20.79 25.8 17.49 24.39 14.23 22.85C12.05 21.88 9.87 20.92 7.68 19.94C6.95 19.6 6.13 19.37 5.52 18.81C6.14 18.35 6.72 17.83 7.31 17.34z"
        transform="matrix(0.906,0,0,0.906,1,4)"
  />
  <path style="fill:#f3d9b8"
        d="M61.69 19.07C62.27 18.58 62.81 18.03 63.41 17.56C63.5 19.8 63.41 22.04 63.46 24.28C63.43 24.65 63.52 25.11 63.21 25.4C57.47 31.14 51.72 36.88 45.98 42.63C45.39 43.21 44.83 43.83 44.2 44.37C44.19 43.86 44.06 43.31 44.24 42.81C45.53 41.73 46.63 40.44 47.85 39.27C48.48 38.61 49.21 38.04 49.64 37.23C49.53 37.11 49.42 37 49.3 36.89C48.28 37.56 47.5 38.51 46.54 39.29C45.72 40.03 44.94 40.82 44.05 41.49C44.05 41.3 44.05 41.11 44.06 40.93C44.82 40.58 45.32 39.91 45.89 39.35C47.46 37.76 49.03 36.18 50.61 34.61C51.01 34.22 51.23 33.69 51.35 33.15C50.28 33.81 49.49 34.8 48.51 35.58C47.04 36.94 45.58 38.3 44.07 39.6C44.01 39.08 44 38.55 44.06 38.02C44.83 37.7 45.33 37.01 45.9 36.45C46.77 35.56 47.62 34.67 48.51 33.82C48.8 33.54 49.03 33.22 49.26 32.89C49.12 32.76 49 32.64 48.87 32.51C47.88 33.18 47.1 34.09 46.18 34.86C45.51 35.42 44.96 36.11 44.2 36.56C44.18 36.19 44.16 35.83 44.14 35.46C44.99 34.74 45.89 34.08 46.69 33.32C46.5 33.2 46.3 33.08 46.09 32.97C51.26 28.3 56.5 23.71 61.69 19.07z"
        transform="matrix(0.906,0,0,0.906,1,4)"
  />
  <linearGradient id="gradient14" gradientUnits="userSpaceOnUse" x1="14.76" y1="45.48" x2="14.22" y2="15.99">
   <stop offset="0" stop-color="#cc862c"/>
   <stop offset="1" stop-color="#e6c8a1"/>
  </linearGradient>
  <path style="fill:url(#gradient14)"
        d="M2.13 34.38C2.69 33.81 3.32 33.31 3.94 32.8C4.3 32.93 4.65 33.06 5 33.22C15.02 37.57 25.07 41.9 35.09 46.27C34.65 46.85 34.25 47.47 33.7 47.95C33.37 48.29 32.9 48 32.54 47.86C31.22 47.21 29.87 46.66 28.52 46.06C23.01 43.61 17.49 41.22 11.97 38.79C8.7 37.3 5.39 35.91 2.13 34.38z"
        transform="matrix(0.906,0,0,0.906,1,4)"
  />
  <linearGradient id="gradient15" gradientUnits="userSpaceOnUse" x1="14.76" y1="45.48" x2="14.22" y2="15.99">
   <stop offset="0" stop-color="#cc862c"/>
   <stop offset="1" stop-color="#e6c8a1"/>
  </linearGradient>
  <path style="fill:url(#gradient15)"
        d="M42.7 37.08C42.72 36.47 42.55 35.76 43 35.25C43.21 36.53 43 37.83 42.98 39.11C42.95 39.65 43.02 40.22 42.82 40.73C42.6 39.52 42.75 38.3 42.7 37.08z"
        transform="matrix(0.906,0,0,0.906,1,4)"
  />
  <path style="fill:#f3d9b8"
        d="M58 36.59C58.12 36.49 58.26 36.47 58.41 36.53C59 36.76 59.51 37.16 60.05 37.5C60.06 38.44 60.07 39.36 60.06 40.29C60.08 40.52 59.98 40.74 59.8 40.89C55.74 44.93 51.7 48.99 47.65 53.03C45.38 55.28 43.16 57.57 40.86 59.79C40.83 59.45 40.78 59.1 40.77 58.75C40.84 58.49 40.95 58.21 41.15 58.02C42.53 56.73 43.81 55.34 45.16 54.03C45.5 53.69 45.89 53.35 46.07 52.89C46.16 52.7 46.12 52.56 45.96 52.45C45.29 52.7 44.8 53.25 44.28 53.73C43.6 54.42 42.83 55 42.16 55.68C41.72 56.14 41.21 56.51 40.72 56.92C40.72 56.72 40.71 56.53 40.71 56.35C41.03 56.18 41.36 56 41.61 55.73C42.93 54.37 44.26 53.03 45.6 51.71C45.96 51.37 46.19 50.93 46.4 50.48C46.32 50.44 46.16 50.34 46.08 50.29C45 51.04 44.14 52.04 43.13 52.88C42.33 53.6 41.56 54.37 40.69 55.01C40.67 54.53 40.66 54.05 40.72 53.57C41.69 53.12 42.21 52.12 42.99 51.43C44.04 50.29 45.23 49.29 46.2 48.08C45.92 48.01 45.59 47.86 45.34 48.08C44.4 48.73 43.65 49.62 42.77 50.35C42.11 50.89 41.58 51.57 40.85 52C40.83 51.63 40.82 51.26 40.8 50.88C41.63 50.17 42.52 49.53 43.31 48.78C43.13 48.65 42.95 48.51 42.76 48.39C43 48.33 43.26 48.3 43.43 48.09C44.72 46.81 45.96 45.46 47.43 44.37C51 41.85 54.45 39.14 58 36.59z"
        transform="matrix(0.906,0,0,0.906,1,4)"
  />
  <linearGradient id="gradient16" gradientUnits="userSpaceOnUse" x1="14.76" y1="45.48" x2="14.22" y2="15.99">
   <stop offset="0" stop-color="#cc862c"/>
   <stop offset="1" stop-color="#e6c8a1"/>
  </linearGradient>
  <path style="fill:url(#gradient16)"
        d="M42.72 42.61C42.68 42.01 42.71 41.41 42.82 40.81C43.27 41.22 43.02 41.94 43.1 42.49C43 42.51 42.82 42.58 42.72 42.61z"
        transform="matrix(0.906,0,0,0.906,1,4)"
  />
  <linearGradient id="gradient17" gradientUnits="userSpaceOnUse" x1="14.76" y1="45.48" x2="14.22" y2="15.99">
   <stop offset="0" stop-color="#cc862c"/>
   <stop offset="1" stop-color="#e6c8a1"/>
  </linearGradient>
  <path style="fill:url(#gradient17)"
        d="M42.75 43.19C42.75 42.98 42.88 42.81 42.99 42.64C43.13 43.45 43.15 44.27 43.23 45.08C43.3 45.44 42.97 45.63 42.75 45.83C42.77 44.95 42.72 44.06 42.75 43.19z"
        transform="matrix(0.906,0,0,0.906,1,4)"
  />
  <linearGradient id="gradient18" gradientUnits="userSpaceOnUse" x1="14.76" y1="45.48" x2="14.22" y2="15.99">
   <stop offset="0" stop-color="#cc862c"/>
   <stop offset="1" stop-color="#e6c8a1"/>
  </linearGradient>
  <path style="fill:url(#gradient18)"
        d="M39.4 50.94C39.46 50.87 39.58 50.73 39.64 50.66C39.81 51.49 39.76 52.33 39.66 53.15C39.54 54.1 39.67 55.06 39.57 56C39.53 56.04 39.46 56.13 39.43 56.17C39.25 55.25 39.39 54.31 39.35 53.37C39.36 52.56 39.29 51.74 39.4 50.94z"
        transform="matrix(0.906,0,0,0.906,1,4)"
  />
  <linearGradient id="gradient19" gradientUnits="userSpaceOnUse" x1="14.76" y1="45.48" x2="14.22" y2="15.99">
   <stop offset="0" stop-color="#cc862c"/>
   <stop offset="1" stop-color="#e6c8a1"/>
  </linearGradient>
  <path style="fill:url(#gradient19)"
        d="M39.43 56.25C39.67 56.47 39.61 56.82 39.66 57.11C39.71 58.24 39.73 59.37 39.86 60.5C39.98 60.87 39.62 61.06 39.39 61.26C39.3 60.18 39.37 59.1 39.35 58.02C39.36 57.44 39.29 56.83 39.43 56.25z"
        transform="matrix(0.906,0,0,0.906,1,4)"
  />
 </g>
</svg>
