<?xml version="1.0" encoding="UTF-8" standalone="no"?>
<!-- Created with Inkscape (http://www.inkscape.org/) -->
<svg
   xmlns:dc="http://purl.org/dc/elements/1.1/"
   xmlns:cc="http://creativecommons.org/ns#"
   xmlns:rdf="http://www.w3.org/1999/02/22-rdf-syntax-ns#"
   xmlns:svg="http://www.w3.org/2000/svg"
   xmlns="http://www.w3.org/2000/svg"
   xmlns:xlink="http://www.w3.org/1999/xlink"
   xmlns:sodipodi="http://sodipodi.sourceforge.net/DTD/sodipodi-0.dtd"
   xmlns:inkscape="http://www.inkscape.org/namespaces/inkscape"
   inkscape:export-ydpi="90.000000"
   inkscape:export-xdpi="90.000000"
   inkscape:export-filename="/home/jimmac/src/cvs/gnome/gnome-icon-theme/22x22/actions/edit-undo.png"
   width="48"
   height="48"
   id="svg11300"
   sodipodi:version="0.32"
   inkscape:version="0.46"
   sodipodi:docbase="/home/dobey/Projects/gnome-icon-theme/scalable/actions"
   sodipodi:docname="edit-redo.svg"
   version="1.0"
   inkscape:output_extension="org.inkscape.output.svg.inkscape">
  <defs
     id="defs3">
    <inkscape:perspective
       sodipodi:type="inkscape:persp3d"
       inkscape:vp_x="0 : 24 : 1"
       inkscape:vp_y="0 : 1000 : 0"
       inkscape:vp_z="48 : 24 : 1"
       inkscape:persp3d-origin="24 : 16 : 1"
       id="perspective27" />
    <linearGradient
       id="linearGradient1913">
      <stop
         style="stop-color:#73d216;stop-opacity:1"
         offset="0"
         id="stop1915" />
      <stop
         style="stop-color:#8ae234;stop-opacity:1"
         offset="1"
         id="stop1917" />
    </linearGradient>
    <linearGradient
       inkscape:collect="always"
       id="linearGradient5132">
      <stop
         style="stop-color:white;stop-opacity:1;"
         offset="0"
         id="stop5134" />
      <stop
         style="stop-color:white;stop-opacity:0;"
         offset="1"
         id="stop5136" />
    </linearGradient>
    <linearGradient
       inkscape:collect="always"
       id="linearGradient8662">
      <stop
         style="stop-color:#000000;stop-opacity:1;"
         offset="0"
         id="stop8664" />
      <stop
         style="stop-color:#000000;stop-opacity:0;"
         offset="1"
         id="stop8666" />
    </linearGradient>
    <radialGradient
       inkscape:collect="always"
       xlink:href="#linearGradient8662"
       id="radialGradient8668"
       cx="24.837126"
       cy="36.421127"
       fx="24.837126"
       fy="36.421127"
       r="15.644737"
       gradientTransform="matrix(1,0,0,0.536723,0,16.87306)"
       gradientUnits="userSpaceOnUse" />
    <linearGradient
       inkscape:collect="always"
       xlink:href="#linearGradient5132"
       id="linearGradient5138"
       x1="25.200262"
       y1="38.927765"
       x2="26.20422"
       y2="46.323185"
       gradientUnits="userSpaceOnUse" />
    <linearGradient
       gradientUnits="userSpaceOnUse"
       y2="50.079403"
       x2="51.021461"
       y1="9.6630907"
       x1="51.021461"
       id="linearGradient3186"
       xlink:href="#gradient0"
       inkscape:collect="always" />
    <inkscape:perspective
       id="perspective35"
       inkscape:persp3d-origin="32 : 21.333333 : 1"
       inkscape:vp_z="64 : 32 : 1"
       inkscape:vp_y="0 : 1000 : 0"
       inkscape:vp_x="0 : 32 : 1"
       sodipodi:type="inkscape:persp3d" />
    <linearGradient
       inkscape:collect="always"
       xlink:href="#gradient0"
       id="linearGradient3211"
       x1="8.8637438"
       y1="17.32155"
       x2="41.660229"
       y2="17.32155"
       gradientUnits="userSpaceOnUse" />
    <linearGradient
       inkscape:collect="always"
       xlink:href="#gradient0"
       id="linearGradient3219"
       x1="7.8910675"
       y1="23.499998"
       x2="43"
       y2="23.499998"
       gradientUnits="userSpaceOnUse" />
    <linearGradient
       inkscape:collect="always"
       xlink:href="#gradient0"
       id="linearGradient3221"
       gradientUnits="userSpaceOnUse"
       x1="51.021461"
       y1="9.6630907"
       x2="51.021461"
       y2="50.079403" />
    <linearGradient
       inkscape:collect="always"
       xlink:href="#gradient0"
       id="linearGradient3223"
       gradientUnits="userSpaceOnUse"
       x1="51.021469"
       y1="-29.864973"
       x2="51.021461"
       y2="50.079403"
       gradientTransform="translate(24.93279,93.173291)" />
  </defs>
  <sodipodi:namedview
     stroke="#c4a000"
     fill="#edd400"
     id="base"
     pagecolor="#ffffff"
     bordercolor="#666"
     borderopacity="1"
     inkscape:pageopacity="0.0"
     inkscape:pageshadow="2"
     inkscape:zoom="5.6568542"
     inkscape:cx="14.769827"
     inkscape:cy="21.815033"
     inkscape:current-layer="layer1"
     showgrid="false"
     inkscape:grid-bbox="true"
     inkscape:document-units="px"
     inkscape:showpageshadow="false"
     inkscape:window-width="1072"
     inkscape:window-height="959"
     inkscape:window-x="19"
     inkscape:window-y="40"
     width="48px"
     height="48px"
     showborder="false" />
  <metadata
     id="metadata4">
    <rdf:RDF>
      <cc:Work
         rdf:about="">
        <dc:format>image/svg+xml</dc:format>
        <dc:type
           rdf:resource="http://purl.org/dc/dcmitype/StillImage" />
        <dc:creator>
          <cc:Agent>
            <dc:title>Jakub Steiner</dc:title>
          </cc:Agent>
        </dc:creator>
        <dc:source>http://jimmac.musichall.cz</dc:source>
        <cc:license
           rdf:resource="http://creativecommons.org/licenses/GPL/2.0/" />
        <dc:title>Edit Undo</dc:title>
        <dc:subject>
          <rdf:Bag>
            <rdf:li>edit</rdf:li>
            <rdf:li>undo</rdf:li>
            <rdf:li>revert</rdf:li>
          </rdf:Bag>
        </dc:subject>
        <dc:contributor>
          <cc:Agent>
            <dc:title>Andreas Nilsson
Lapo Calamandrei</dc:title>
          </cc:Agent>
        </dc:contributor>
      </cc:Work>
      <cc:License
         rdf:about="http://creativecommons.org/licenses/GPL/2.0/">
        <cc:permits
           rdf:resource="http://web.resource.org/cc/Reproduction" />
        <cc:permits
           rdf:resource="http://web.resource.org/cc/Distribution" />
        <cc:requires
           rdf:resource="http://web.resource.org/cc/Notice" />
        <cc:permits
           rdf:resource="http://web.resource.org/cc/DerivativeWorks" />
        <cc:requires
           rdf:resource="http://web.resource.org/cc/ShareAlike" />
        <cc:requires
           rdf:resource="http://web.resource.org/cc/SourceCode" />
      </cc:License>
    </rdf:RDF>
  </metadata>
  <g
     id="layer1"
     inkscape:label="Layer 1"
     inkscape:groupmode="layer">
    <path
       style="opacity:1;color:#000000;fill:url(#linearGradient3219);fill-opacity:1.0;fill-rule:nonzero;stroke:#4e9a06;stroke-width:0.99999886999999998;stroke-linecap:butt;stroke-linejoin:miter;marker:none;marker-start:none;marker-mid:none;marker-end:none;stroke-miterlimit:4;stroke-dasharray:none;stroke-dashoffset:0;stroke-opacity:1;visibility:visible;display:block;overflow:visible"
       d="M 17.424821,41.893434 C 5.3394657,35.229855 6.5728449,23.306017 14.130057,16.907038 C 17.2915,14.230124 21.559637,12.520082 26.422371,12.56649 L 26.422371,8.9323502 L 26.422371,4.4999994 L 42.5,18.558177 L 26.422371,33.301549 C 26.422371,33.301549 26.422371,24.572517 26.422371,24.572517 C 16.187754,24.157353 11.680698,31.839537 20.650045,37.935965 C 23.217139,39.680812 21.438823,44.10666 17.424821,41.893434 z"
       id="path1432"
       sodipodi:nodetypes="csccccccss" />
    <path
       style="opacity:0.45000000000000001;fill:url(#linearGradient3211);fill-opacity:1.0;fill-rule:evenodd;stroke:none;stroke-width:1px;stroke-linecap:butt;stroke-linejoin:miter;stroke-opacity:1"
       d="M 41.660227,18.605336 C 23.110128,15.475328 12.765166,20.754837 8.865084,29.04107 C 8.711319,16.398198 21.828491,12.721185 26.954933,13.108518 L 26.947709,9.6381915 L 26.939308,5.6020321 L 41.660227,18.605336 z"
       id="path4920"
       sodipodi:nodetypes="cccccc" />
    <path
       style="opacity:1;fill:#000000;fill-opacity:1;stroke:#200000;stroke-width:0.17677669;stroke-opacity:1"
       d="M 17.33336,42.260519 C 14.105628,40.578105 11.298453,37.946959 9.6879361,35.094513 C 7.7721576,31.701412 7.5159392,26.999731 9.0419499,23.24066 C 11.490454,17.209193 17.230151,13.061292 24.215431,12.275276 L 26.083536,12.065065 L 26.083536,7.9350576 C 26.083536,5.6635443 26.123184,3.8050378 26.171644,3.8050378 C 26.280144,3.8050378 43.054099,18.459499 43.054099,18.55429 C 43.054099,18.5917 39.25561,22.105875 34.613012,26.363561 L 26.171925,34.104806 L 26.083536,29.605717 L 25.995148,25.10663 L 24.492546,25.132784 C 18.592744,25.235475 14.918025,29.124414 16.860037,33.210231 C 17.504549,34.566235 18.291336,35.477005 20.183437,37.057365 C 20.997828,37.737579 21.783471,38.524854 21.929302,38.806859 C 22.284389,39.493532 22.264124,40.699982 21.884816,41.454951 C 21.108137,43.000831 19.35049,43.311912 17.33336,42.260513 L 17.33336,42.260519 z M 20.793829,41.472068 C 21.306386,40.959518 21.384032,40.719401 21.312692,39.867484 C 21.253475,39.160317 20.820609,38.596979 19.682684,37.746163 C 18.188063,36.628654 16.795597,35.037727 16.131616,33.68899 C 15.628715,32.667454 15.565323,32.370071 15.565323,31.032367 C 15.565323,29.712806 15.630361,29.397689 16.089871,28.490793 C 17.383144,25.938373 20.752057,24.303303 24.831597,24.248073 L 26.702255,24.222746 L 26.749825,28.156028 C 26.776211,30.336984 26.868365,32.089309 26.956681,32.089309 C 27.094618,32.089309 39.30276,21.009862 41.170213,19.189873 L 41.849592,18.527761 L 34.495406,12.094477 C 30.450608,8.5561714 27.063977,5.6352211 26.969562,5.6034773 C 26.863166,5.5677048 26.779715,6.945665 26.750076,9.2273996 L 26.702255,12.909038 L 25.022876,13.043379 C 21.723419,13.307326 18.422858,14.432253 15.809482,16.183578 C 14.224192,17.245937 12.006999,19.589341 10.996511,21.270512 C 7.6085101,26.907215 8.2475631,33.025752 12.712041,37.695678 C 14.194055,39.245887 16.277088,40.829274 17.902323,41.640987 C 18.269831,41.824534 18.954507,41.977886 19.423814,41.98176 C 20.136339,41.987644 20.362346,41.903559 20.793833,41.472072 L 20.793829,41.472068 z"
       id="path2404" />
    <g
       id="g2416"
       transform="matrix(0.8082747,0,0,0.1252211,-10.151518,14.737781)">
      <g
         id="g4">
        <linearGradient
           y2="5.25"
           x2="77.269997"
           y1="-10.35"
           x1="66.449997"
           gradientUnits="userSpaceOnUse"
           id="gradient0">
          <stop
             id="stop17"
             stop-color="#acff0d"
             offset="0" />
          <stop
             id="stop19"
             stop-color="#04a804"
             offset="1" />
        </linearGradient>
        <linearGradient
           y2="7.0100002"
           x2="85.120003"
           y1="-20.74"
           x1="57.509998"
           gradientUnits="userSpaceOnUse"
           id="gradient1">
          <stop
             id="stop24"
             stop-color="#68fb06"
             offset="0" />
          <stop
             id="stop26"
             stop-color="#05d705"
             offset="1" />
        </linearGradient>
      </g>
    </g>
  </g>
</svg>
