<?xml version="1.0" encoding="UTF-8" standalone="no"?>
<svg
   xmlns:dc="http://purl.org/dc/elements/1.1/"
   xmlns:cc="http://creativecommons.org/ns#"
   xmlns:rdf="http://www.w3.org/1999/02/22-rdf-syntax-ns#"
   xmlns:svg="http://www.w3.org/2000/svg"
   xmlns="http://www.w3.org/2000/svg"
   xmlns:xlink="http://www.w3.org/1999/xlink"
   xmlns:sodipodi="http://sodipodi.sourceforge.net/DTD/sodipodi-0.dtd"
   xmlns:inkscape="http://www.inkscape.org/namespaces/inkscape"
   version="1.1"
   width="64"
   height="64"
   color-interpolation="linearRGB"
   id="svg2"
   sodipodi:version="0.32"
   inkscape:version="0.46"
   sodipodi:docname="go-next.svg"
   inkscape:output_extension="org.inkscape.output.svg.inkscape">
  <metadata
     id="metadata33">
    <rdf:RDF>
      <cc:Work
         rdf:about="">
        <dc:format>image/svg+xml</dc:format>
        <dc:type
           rdf:resource="http://purl.org/dc/dcmitype/StillImage" />
      </cc:Work>
    </rdf:RDF>
  </metadata>
  <defs
     id="defs31">
    <inkscape:perspective
       sodipodi:type="inkscape:persp3d"
       inkscape:vp_x="0 : 32 : 1"
       inkscape:vp_y="0 : 1000 : 0"
       inkscape:vp_z="64 : 32 : 1"
       inkscape:persp3d-origin="32 : 21.333333 : 1"
       id="perspective35" />
    <linearGradient
       inkscape:collect="always"
       xlink:href="#gradient0"
       id="linearGradient3186"
       x1="51.021461"
       y1="9.6630907"
       x2="51.021461"
       y2="50.079403"
       gradientUnits="userSpaceOnUse" />
  </defs>
  <sodipodi:namedview
     inkscape:window-height="667"
     inkscape:window-width="674"
     inkscape:pageshadow="2"
     inkscape:pageopacity="0.0"
     guidetolerance="10.0"
     gridtolerance="10.0"
     objecttolerance="10.0"
     borderopacity="1.0"
     bordercolor="#666666"
     pagecolor="#ffffff"
     id="base"
     showgrid="false"
     inkscape:zoom="7.28125"
     inkscape:cx="38.034211"
     inkscape:cy="32"
     inkscape:window-x="419"
     inkscape:window-y="116"
     inkscape:current-layer="svg2" />
  <g
     id="g4">
    <path
       style="fill:#010101; fill-opacity:0.2901"
       d="M45 30L30 45L30 38L10 37.99L10 21.99L30 22L30 15L45 30z"
       transform="matrix(1,0,0,1,3,1)"
       id="path6" />
    <path
       style="fill:#010101; fill-opacity:0.2901"
       d="M45 30L30 45L30 38L10 37.99L10 21.99L30 22L30 15L45 30z"
       transform="matrix(1,0,0,1,3,1)"
       id="path8" />
    <path
       style="fill:#010101; fill-opacity:0.2901"
       d="M45 30L30 45L30 38L10 37.99L10 21.99L30 22L30 15L45 30z"
       transform="matrix(1,0,0,1,3,1)"
       id="path10" />
    <path
       style="fill:#010101; fill-opacity:0.2901"
       d="M45 30L30 45L30 38L10 37.99L10 21.99L30 22L30 15L45 30z"
       transform="matrix(1,0,0,1,3,1)"
       id="path12" />
    <path
       style="fill:none; stroke:#000000; stroke-width:4"
       d="M45 30L30 45L30 38L10 37.99L10 21.99L30 22L30 15L45 30z"
       id="path14" />
    <linearGradient
       id="gradient0"
       gradientUnits="userSpaceOnUse"
       x1="66.45"
       y1="-10.35"
       x2="77.27"
       y2="5.25">
      <stop
         offset="0"
         stop-color="#acff0d"
         id="stop17" />
      <stop
         offset="1"
         stop-color="#04a804"
         id="stop19" />
    </linearGradient>
    <path
       style="fill:url(#gradient0)"
       d="M45 30L30 45L30 38L10 37.99L10 21.99L30 22L30 15L45 30z"
       id="path21" />
    <linearGradient
       id="gradient1"
       gradientUnits="userSpaceOnUse"
       x1="57.51"
       y1="-20.74"
       x2="85.12"
       y2="7.01">
      <stop
         offset="0"
         stop-color="#68fb06"
         id="stop24" />
      <stop
         offset="1"
         stop-color="#05d705"
         id="stop26" />
    </linearGradient>
    <path
       style="fill:url(#gradient1)"
       d="M45 30L30 45L30 38L10 37.99L10 21.99L30 22L30 15L45 30z"
       id="path28" />
  </g>
  <rect
     style="opacity:1;fill:url(#linearGradient3186);fill-opacity:1;stroke:#000000;stroke-opacity:1"
     id="rect2408"
     width="4.5321879"
     height="39.416313"
     x="48.755367"
     y="10.163091"
     ry="0" />
</svg>
