<?xml version="1.0" encoding="UTF-8" standalone="no"?>
<svg
   xmlns:dc="http://purl.org/dc/elements/1.1/"
   xmlns:cc="http://creativecommons.org/ns#"
   xmlns:rdf="http://www.w3.org/1999/02/22-rdf-syntax-ns#"
   xmlns:svg="http://www.w3.org/2000/svg"
   xmlns="http://www.w3.org/2000/svg"
   xmlns:sodipodi="http://sodipodi.sourceforge.net/DTD/sodipodi-0.dtd"
   xmlns:inkscape="http://www.inkscape.org/namespaces/inkscape"
   version="1.1"
   width="64"
   height="64"
   color-interpolation="linearRGB"
   id="svg2"
   sodipodi:version="0.32"
   inkscape:version="0.46"
   sodipodi:docname="over-house"
   inkscape:output_extension="org.inkscape.output.svg.inkscape">
  <metadata
     id="metadata24">
    <rdf:RDF>
      <cc:Work
         rdf:about="">
        <dc:format>image/svg+xml</dc:format>
        <dc:type
           rdf:resource="http://purl.org/dc/dcmitype/StillImage" />
      </cc:Work>
    </rdf:RDF>
  </metadata>
  <defs
     id="defs22">
    <inkscape:perspective
       sodipodi:type="inkscape:persp3d"
       inkscape:vp_x="0 : 32 : 1"
       inkscape:vp_y="0 : 1000 : 0"
       inkscape:vp_z="64 : 32 : 1"
       inkscape:persp3d-origin="32 : 21.333333 : 1"
       id="perspective26" />
  </defs>
  <sodipodi:namedview
     inkscape:window-height="667"
     inkscape:window-width="640"
     inkscape:pageshadow="2"
     inkscape:pageopacity="0.0"
     guidetolerance="10.0"
     gridtolerance="10.0"
     objecttolerance="10.0"
     borderopacity="1.0"
     bordercolor="#666666"
     pagecolor="#ffffff"
     id="base"
     showgrid="false"
     inkscape:zoom="7.28125"
     inkscape:cx="32"
     inkscape:cy="30.351931"
     inkscape:window-x="0"
     inkscape:window-y="24"
     inkscape:current-layer="svg2" />
  <g
     id="g4"
     transform="matrix(2.1114676,0,0,2.2667975,-5.3988767e-2,-73.136052)">
    <path
       style="fill:none;stroke:#000000;stroke-width:4"
       d="M 22,56 L 22,46 L 15,39 L 8,46 L 8,56 L 22,56 z M 6,57 L 24,57 M 20,50 L 20,52 L 18,52 L 18,50 L 20,50 z M 12,56 L 12,48 L 16,48 L 16,56 L 12,56 z"
       id="path6" />
    <radialGradient
       id="gradient0"
       gradientUnits="userSpaceOnUse"
       cx="0"
       cy="0"
       r="64"
       gradientTransform="matrix(0.2814,0,0,0.2879,15.5238,50.8571)">
      <stop
         offset="0.1969"
         stop-color="#ffffff"
         id="stop9" />
      <stop
         offset="0.5871"
         stop-color="#858585"
         id="stop11" />
    </radialGradient>
    <path
       style="fill:url(#gradient0)"
       d="M 22,56 L 22,46 L 15,39 L 8,46 L 8,56 L 22,56 z M 20,50 L 20,52 L 18,52 L 18,50 L 20,50 z M 12,56 L 12,48 L 16,48 L 16,56 L 12,56 z"
       id="path13" />
    <path
       style="fill:none;stroke:#000000;stroke-width:6;stroke-linecap:round"
       d="M 6,46 L 15,37 L 24,46 M 6,57 L 24,57"
       id="path15" />
    <path
       style="fill:none;stroke:#04eb0f;stroke-width:2;stroke-linecap:round"
       d="M 6,57 L 24,57"
       id="path17" />
    <path
       style="fill:none;stroke:#f90505;stroke-width:2;stroke-linecap:round"
       d="M 6,46 L 15,37 L 24,46"
       id="path19" />
  </g>
</svg>
