<?xml version="1.0" encoding="UTF-8" standalone="no"?>
<svg
   xmlns:dc="http://purl.org/dc/elements/1.1/"
   xmlns:cc="http://creativecommons.org/ns#"
   xmlns:rdf="http://www.w3.org/1999/02/22-rdf-syntax-ns#"
   xmlns:svg="http://www.w3.org/2000/svg"
   xmlns="http://www.w3.org/2000/svg"
   xmlns:xlink="http://www.w3.org/1999/xlink"
   xmlns:sodipodi="http://sodipodi.sourceforge.net/DTD/sodipodi-0.dtd"
   xmlns:inkscape="http://www.inkscape.org/namespaces/inkscape"
   version="1.1"
   width="64"
   height="64"
   color-interpolation="linearRGB"
   id="svg2"
   sodipodi:version="0.32"
   inkscape:version="0.46"
   sodipodi:docname="image-loading.svg"
   inkscape:output_extension="org.inkscape.output.svg.inkscape">
  <metadata
     id="metadata31">
    <rdf:RDF>
      <cc:Work
         rdf:about="">
        <dc:format>image/svg+xml</dc:format>
        <dc:type
           rdf:resource="http://purl.org/dc/dcmitype/StillImage" />
      </cc:Work>
    </rdf:RDF>
  </metadata>
  <defs
     id="defs29">
    <inkscape:perspective
       sodipodi:type="inkscape:persp3d"
       inkscape:vp_x="0 : 32 : 1"
       inkscape:vp_y="0 : 1000 : 0"
       inkscape:vp_z="64 : 32 : 1"
       inkscape:persp3d-origin="32 : 21.333333 : 1"
       id="perspective33" />
    <inkscape:perspective
       id="perspective2466"
       inkscape:persp3d-origin="32 : 21.333333 : 1"
       inkscape:vp_z="64 : 32 : 1"
       inkscape:vp_y="0 : 1000 : 0"
       inkscape:vp_x="0 : 32 : 1"
       sodipodi:type="inkscape:persp3d" />
    <linearGradient
       inkscape:collect="always"
       xlink:href="#linearGradient2479"
       id="linearGradient2502"
       gradientUnits="userSpaceOnUse"
       x1="105.45"
       y1="-23.42"
       x2="119.92"
       y2="34.32" />
    <linearGradient
       inkscape:collect="always"
       xlink:href="#linearGradient2472"
       id="linearGradient3274"
       x1="-7.8091898"
       y1="-15.614881"
       x2="47.343536"
       y2="34.040569"
       gradientUnits="userSpaceOnUse" />
  </defs>
  <sodipodi:namedview
     inkscape:window-height="978"
     inkscape:window-width="1680"
     inkscape:pageshadow="2"
     inkscape:pageopacity="0.0"
     guidetolerance="10.0"
     gridtolerance="10.0"
     objecttolerance="10.0"
     borderopacity="1.0"
     bordercolor="#666666"
     pagecolor="#ffffff"
     id="base"
     showgrid="false"
     inkscape:zoom="10.289025"
     inkscape:cx="28.841917"
     inkscape:cy="32.765898"
     inkscape:window-x="0"
     inkscape:window-y="26"
     inkscape:current-layer="svg2" />
  <g
     id="g4">
    <path
       style="fill:#010101; fill-opacity:0.5725"
       d="M27 57L29 59L32.13 55.83L37 59L45.39 47.54L64 38L59 35L61 37L36 49L27 57z            M58 34L62 31L58 29L55 32L58 34z"
       id="path6" />
    <path
       style="fill:none; stroke:#010101; stroke-width:4"
       d="M6.25 30C6.25 30 11.87 36 16.87 42.5C21.87 49 26.25 55.75 26.25 55.75L59.12 36.87L32 15L6.25 30z"
       id="path8" />
    <radialGradient
       id="gradient0"
       gradientUnits="userSpaceOnUse"
       cx="0"
       cy="0"
       r="64"
       gradientTransform="matrix(0.5714,0,0,0.3333,26,35)">
      <stop
         offset="1"
         stop-color="#c0d5ff"
         id="stop11" />
      <stop
         offset="0.4886"
         stop-color="#896eff"
         id="stop13" />
    </radialGradient>
    <path
       style="fill:url(#gradient0)"
       d="M6.25 30C6.25 30 11.87 36 16.87 42.5C21.87 49 26.25 55.75 26.25 55.75L59.12 36.87L32 15L6.25 30z"
       id="path15" />
    <path
       style="fill:none; stroke:#010101; stroke-width:4"
       d="M2.62 30.87C2.62 30.87 10.95 36.26 19 41.87C27.44 47.75 35.75 52.75 35.75 52.75L58.12 26.37C58.12 26.37 45.44 20.7 35.37 15.37C30.18 12.62 26 9.37 26 9.37L2.62 30.87z"
       id="path17" />
    <linearGradient
       id="gradient1"
       gradientUnits="userSpaceOnUse"
       x1="105.45"
       y1="-23.42"
       x2="119.92"
       y2="34.32">
      <stop
         offset="0"
         stop-color="#a5b1ff"
         id="stop20" />
      <stop
         offset="0.7386"
         stop-color="#eaf1ff"
         id="stop22" />
      <stop
         offset="1"
         stop-color="#b3b8ff"
         id="stop24" />
    </linearGradient>
    <path
       style="fill:url(#gradient1)"
       d="M2.62 30.87C2.62 30.87 10.95 36.26 19 41.87C27.44 47.75 35.75 52.75 35.75 52.75L58.12 26.37C58.12 26.37 45.44 20.7 35.37 15.37C30.18 12.62 26 9.37 26 9.37L2.62 30.87z"
       id="path26" />
  </g>
  <g
     id="g2408"
     transform="matrix(0.4756255,0,0,0.4756255,15.473252,14.149104)">
    <path
       id="path2410"
       d="M 62,50 L 50,44 L 40,64 L 48,64 C 54,64 68,53 62,50 z"
       style="fill:#000000;fill-opacity:0.44309998" />
    <path
       id="path2412"
       d="M 49.33,53.17 L 49.33,53.16 C 49.75,52.64 50,51.91 50,51 L 50,32 C 50,21.52 43.94,10.97 34.01,6 C 27.77,2.88 22,4 18.06,5.92 C 14,8 9.56,12.41 9.56,12.41 L 9.56,12.42 C 7.32,14.46 6,17.72 6.01,21.98 L 6.01,40.98 C 6.01,43.74 8.25,47.1 11.02,48.49 L 37.02,61.5 C 38.87,62.43 40.48,62.23 41.36,61.16 L 41.36,61.17 L 49.33,53.17 z"
       style="fill:none;stroke:#000000;stroke-width:4" />
    <linearGradient
       y2="-25.25"
       x2="122.5"
       y1="-81.760002"
       x1="66"
       gradientUnits="userSpaceOnUse"
       id="linearGradient2472">
      <stop
         id="stop2415"
         stop-color="#04a3a5"
         offset="0.2575" />
      <stop
         id="stop2417"
         stop-color="#b3feff"
         offset="0.5227" />
      <stop
         id="stop2419"
         stop-color="#026667"
         offset="0.8825" />
      <stop
         id="stop2421"
         stop-color="#037072"
         offset="0.88249999" />
    </linearGradient>
    <path
       id="path2423"
       d="M 49.33,53.17 L 49.33,53.16 C 49.75,52.64 50,51.91 50,51 L 50,32 C 50,21.52 43.94,10.97 34.01,6 C 27.77,2.88 22,4 18.06,5.92 C 14,8 9.56,12.41 9.56,12.41 L 9.56,12.42 L 41.36,61.16 L 41.36,61.17 L 49.33,53.17 z"
       style="fill:url(#linearGradient3274);fill-opacity:1" />
    <linearGradient
       y2="-11.7"
       x2="115.02"
       y1="-54.650002"
       x1="76.800003"
       gradientUnits="userSpaceOnUse"
       id="linearGradient2479">
      <stop
         id="stop2426"
         stop-color="#40c5c7"
         offset="0.4886" />
      <stop
         id="stop2428"
         stop-color="#30a3a5"
         offset="0" />
      <stop
         id="stop2430"
         stop-color="#28a3a5"
         offset="1" />
    </linearGradient>
    <path
       id="path2432"
       d="M 24,12 C 14.06,7.01 6,11.48 6.01,21.98 L 6.01,40.98 C 6.01,43.74 8.25,47.1 11.02,48.49 L 37.02,61.5 C 39.77,62.88 42.02,61.77 42.02,59 L 42.02,40 C 42,29.52 33.94,16.97 24.01,12 L 24,12 z"
       style="fill:url(#linearGradient2502);fill-opacity:1.0" />
    <linearGradient
       y2="35.900002"
       x2="44.02"
       y1="6.9299998"
       x1="15.05"
       gradientUnits="userSpaceOnUse"
       id="gradient2">
      <stop
         id="stop2435"
         stop-color="#9beff0"
         offset="0" />
      <stop
         id="stop2437"
         stop-color="#ffffff"
         offset="0.25" />
      <stop
         id="stop2439"
         stop-color="#04a8aa"
         offset="1" />
    </linearGradient>
    <path
       id="path2441"
       d="M 24,12 L 24,12 C 33.31,16.66 40.97,27.97 41.92,38 C 41.9,27.52 35.93,14.97 26.01,10 L 26,10 C 19.28,6.63 13.43,7.59 10.34,11.78 C 13.64,9.38 18.53,9.26 24,12 L 24,12 z"
       style="fill:url(#gradient2)" />
    <path
       id="path2443"
       d="M 24,16 C 31.72,19.87 38,29.72 38,38 C 38,46.29 31.73,49.86 24.02,46 C 16.29,42.13 10,32.27 10,23.98 C 10,15.7 16.26,12.12 24,16 z"
       style="fill:#000000" />
    <radialGradient
       gradientTransform="matrix(0.2968,0,0,0.3593,26,33)"
       r="64"
       cy="0"
       cx="0"
       gradientUnits="userSpaceOnUse"
       id="gradient3">
      <stop
         id="stop2446"
         stop-color="#f8f8ff"
         offset="0" />
      <stop
         id="stop2448"
         stop-color="#9898ff"
         offset="1" />
    </radialGradient>
    <path
       id="path2450"
       d="M 24,18 C 17.36,14.68 12,17.8 12.01,24.98 C 12.01,32.16 17.38,40.68 24.02,44 C 30.64,47.31 36.02,44.18 36.02,37 C 36,29.82 30.61,21.31 24,18 z"
       style="fill:url(#gradient3)" />
    <path
       id="path2452"
       d="M 16,28.98 C 16,22.91 20.47,20.23 26.01,23 C 28.11,24.04 30.05,25.74 31.68,27.77 C 29.82,24.45 27.07,21.54 24.01,20 C 18.48,17.23 14.01,19.91 14.02,25.98 C 14.02,29.75 15.73,33.93 18.37,37.22 C 16.89,34.58 16.01,31.68 16.02,28.98 L 16,28.98 z M 29,26.95 C 27.59,26.24 26.45,26.81 26.45,28.22 C 26.45,29.63 27.6,31.34 29.02,32.04 C 30.44,32.75 31.56,32.18 31.56,30.78 C 31.55,29.37 30.42,27.65 29.02,26.95 L 29,26.95 z"
       style="fill:#ffffff" />
    <linearGradient
       y2="-44.529999"
       x2="79.769997"
       y1="-48.18"
       x1="74.629997"
       gradientUnits="userSpaceOnUse"
       id="gradient4">
      <stop
         id="stop2455"
         stop-color="#dadada"
         offset="0" />
      <stop
         id="stop2457"
         stop-color="#000000"
         offset="1" />
    </linearGradient>
    <path
       id="path2459"
       transform="matrix(0.7484,0.4784,2.61e-2,0.8247,-0.7028,-10.2605)"
       d="M 28,25 L 31,32 L 41,26 M 20,32 L 22,32 M 42,32 L 44,32 M 32,42 L 32,44 M 32,20 L 32,22"
       style="fill:none;stroke:url(#gradient4);stroke-width:3;stroke-linecap:round;stroke-linejoin:round" />
  </g>
</svg>
