<?xml version="1.0" encoding="UTF-8" standalone="yes"?>
<svg version="1.1" width="64" height="64" color-interpolation="linearRGB"
     xmlns:svg="http://www.w3.org/2000/svg" xmlns="http://www.w3.org/2000/svg">
 <g>
  <path style="fill:none; stroke:#000000; stroke-width:4"
        d="M4.92 4.92H60.05V60.05H4.92V4.92z"
        transform="matrix(1,0,0,1,-1,-1)"
  />
  <linearGradient id="gradient0" gradientUnits="userSpaceOnUse" x1="35.15" y1="40.39" x2="56.09" y2="40.39">
   <stop offset="0" stop-color="#27ab5f"/>
   <stop offset="1" stop-color="#249a56"/>
  </linearGradient>
  <path style="fill:url(#gradient0)"
        d="M6.14 6.14H59.31V59.31H6.14V6.14z"
        transform="matrix(1.0188,0,0,1.0188,-2.1157,-2.1157)"
  />
  <path style="fill:#000000; fill-opacity:0.149"
        d="M39.38 16L13.52 30.76V60.3L22.14 65.22L30.76 60.3V50.46L22.14 45.52V35.68L39.38 25.84L56.6 35.68V45.52L48 50.46V60.3L56.6 65.22L65.22 60.3V30.76L39.38 16z"
        transform="matrix(0.8065,0,0,0.8065,2.619,1.619)"
  />
  <path style="fill:#ffffff"
        d="M39.38 13.52L13.52 28.3V57.84L22.14 62.76L30.76 57.84V48L22.14 43.06V33.22L39.38 23.38L56.6 33.22V43.06L48 48V57.84L56.6 62.76L65.22 57.84V28.3L39.38 13.52z"
        transform="matrix(0.8065,0,0,0.8065,-0.3809,0.619)"
  />
 </g>
</svg>
