<?xml version="1.0" encoding="UTF-8" standalone="yes"?>
<svg version="1.1" width="64" height="64" color-interpolation="linearRGB"
     xmlns:svg="http://www.w3.org/2000/svg" xmlns="http://www.w3.org/2000/svg">
 <g>
  <path style="fill:#010101; fill-opacity:0.3725"
        d="M32 16C23.15 16 16 23.15 16 32C16 40.83 23.15 48 32 48C40.83 48 48 40.83 48 32C48 23.15 40.83 16 32 16z"
        transform="matrix(1.3125,0,0,0.5625,-1,30)"
  />
  <path style="fill:none; stroke:#010101; stroke-width:4; stroke-linecap:round; stroke-linejoin:round"
        d="M22.21 48.62C23.68 47.06 25.67 45.92 27.86 45.86C30 46 30 46 31.11 45.87C32.47 45.95 33.85 46.26 34.99 47.03C35.73 47.58 36.36 48.27 37.04 48.87C37.06 49.83 37 50.92 36.26 51.62C34.71 52.51 33.05 53.3 31.25 53.46C29.27 53.63 27.19 53.62 25.34 52.84C24.35 52.42 23.44 51.83 22.55 51.22C22.09 50.45 21.94 49.49 22.21 48.62V48.62z
           M27.98 32.65C28.5 33 29.04 33.35 29.58 33.68C30.06 33.41 30.53 33.13 31.01 32.87C31.19 36.87 31.02 40.87 31.08 44.87C31.15 44.9 31.21 44.93 31.28 44.96C33.56 45.42 36.41 46.3 37.04 48.87C36.36 48.27 35.73 47.58 34.99 47.03C33.85 46.26 32.47 45.95 31.11 45.87C31.05 46.75 31.04 47.65 30.96 48.53C31 49.98 28.56 50.26 28.15 48.94C27.93 47.93 27.95 46.89 27.86 45.86C25.67 45.92 23.68 47.06 22.21 48.62C22.91 46.15 25.72 45.38 27.95 44.95C28.03 40.86 27.97 36.75 27.98 32.65V32.65z
           M14.26 18.92C15.49 20.1 16.92 21.04 18.34 21.97C20.11 23.69 22.13 25.13 24.03 26.71C25.89 28.15 27.66 29.71 29.59 31.05C32.71 28.66 35.72 26.14 38.78 23.69C39.34 23.24 39.84 22.72 40.36 22.23C41.66 21.45 42.98 20.69 44.16 19.73C43.75 20.72 43.05 21.52 42.34 22.31C39.13 26.16 35.22 29.33 31.36 32.5C31.07 33.33 31.21 34.24 31.18 35.11C31.25 38.39 31.07 41.68 31.28 44.96C31.21 44.93 31.15 44.9 31.08 44.87C31.02 40.87 31.19 36.87 31.01 32.87C30.53 33.13 30.06 33.41 29.58 33.68C29.04 33.35 28.5 33 27.98 32.65C25.18 30.73 22.61 28.51 20.09 26.25C18.76 25.02 17.61 23.61 16.42 22.25C15.57 21.23 14.81 20.13 14.26 18.92V18.92z
           M16.84 8.32C20.12 6.15 24.07 5.24 27.96 4.98C32.62 4.75 37.48 5.48 41.58 7.81C43.75 9.05 45.81 10.93 46.35 13.48C46.86 15.78 45.74 18.1 44.16 19.73C42.98 20.69 41.66 21.45 40.36 22.23C33.4 25.16 25.22 25.11 18.34 21.97C16.92 21.04 15.49 20.1 14.26 18.92C13.03 17.19 12.38 14.89 13.07 12.82C13.71 10.91 15.18 9.41 16.84 8.32"
  />
  <linearGradient id="gradient0" gradientUnits="userSpaceOnUse" x1="41.06" y1="28.9" x2="29.04" y2="28.96">
   <stop offset="0" stop-color="#ffffff"/>
   <stop offset="1" stop-color="#90e1ff"/>
  </linearGradient>
  <path style="fill:url(#gradient0)"
        d="M17.47 8.97C21.01 6.56 25.38 5.56 29.62 5.69C33.62 5.54 37.68 6.48 41.13 8.52C42.82 9.55 44.3 11.02 44.97 12.91C45.8 15.13 44.85 17.72 43.07 19.19C43.03 17.75 42.67 16.22 41.5 15.27C37.95 12.11 32.96 11.12 28.32 11.36C24.66 11.57 20.85 12.55 18.04 15.02C16.83 16.08 16.11 17.6 16.03 19.21C14.83 17.86 13.8 16.13 13.99 14.26C14.19 12.04 15.67 10.17 17.47 8.97V8.97z"
  />
  <linearGradient id="gradient1" gradientUnits="userSpaceOnUse" x1="41.06" y1="28.9" x2="29.04" y2="28.96">
   <stop offset="0" stop-color="#ffffff"/>
   <stop offset="1" stop-color="#90e1ff"/>
  </linearGradient>
  <path style="fill:url(#gradient1)"
        d="M14.26 18.92C15.49 20.1 16.92 21.04 18.34 21.97C20.11 23.69 22.13 25.13 24.03 26.71C25.89 28.15 27.66 29.71 29.59 31.05C32.71 28.66 35.72 26.14 38.78 23.69C39.34 23.24 39.84 22.72 40.36 22.23C41.66 21.45 42.98 20.69 44.16 19.73C43.75 20.72 43.05 21.52 42.34 22.31C39.13 26.16 35.22 29.33 31.36 32.5C31.07 33.33 31.21 34.24 31.18 35.11C31.25 38.39 31.07 41.68 31.28 44.96C31.21 44.93 31.15 44.9 31.08 44.87C31.02 40.87 31.19 36.87 31.01 32.87C30.53 33.13 30.06 33.41 29.58 33.68C29.04 33.35 28.5 33 27.98 32.65C25.18 30.73 22.61 28.51 20.09 26.25C18.76 25.02 17.61 23.61 16.42 22.25C15.57 21.23 14.81 20.13 14.26 18.92V18.92z"
  />
  <path style="fill:#ff97d9"
        d="M18.04 15.02C20.85 12.55 24.66 11.57 28.32 11.36C32.96 11.12 37.95 12.11 41.5 15.27C42.67 16.22 43.03 17.75 43.07 19.19C41.77 20.65 39.92 21.5 38.13 22.23C33.73 23.83 28.87 24.07 24.3 23.14C21.28 22.53 18.35 21.27 16.03 19.21C16.11 17.6 16.83 16.08 18.04 15.02V15.02z"
  />
  <path style="fill:#87e1f1"
        d="M17.47 8.97C15.67 10.17 14.19 12.04 13.99 14.26C13.8 16.13 14.83 17.86 16.03 19.21C18.35 21.27 21.28 22.53 24.3 23.14C28.87 24.07 33.73 23.83 38.13 22.23C39.92 21.5 41.77 20.65 43.07 19.19C44.85 17.72 45.8 15.13 44.97 12.91C44.3 11.02 42.82 9.55 41.13 8.52C37.68 6.48 33.62 5.54 29.62 5.69C25.38 5.56 21.01 6.56 17.47 8.97V8.97z
           M16.84 8.32C20.12 6.15 24.07 5.24 27.96 4.98C32.62 4.75 37.48 5.48 41.58 7.81C43.75 9.05 45.81 10.93 46.35 13.48C46.86 15.78 45.74 18.1 44.16 19.73C42.98 20.69 41.66 21.45 40.36 22.23C33.4 25.16 25.22 25.11 18.34 21.97C16.92 21.04 15.49 20.1 14.26 18.92C13.03 17.19 12.38 14.89 13.07 12.82C13.71 10.91 15.18 9.41 16.84 8.32"
  />
  <path style="fill:none; stroke:#bf5000; stroke-width:4; stroke-linecap:round; stroke-linejoin:bevel"
        d="M37 19L50 6L59 8"
  />
  <linearGradient id="gradient2" gradientUnits="userSpaceOnUse" x1="54.25" y1="21.48" x2="56.33" y2="31.82">
   <stop offset="0" stop-color="#ffff80"/>
   <stop offset="1" stop-color="#ffd500"/>
  </linearGradient>
  <path style="fill:none; stroke:url(#gradient2); stroke-width:1; stroke-linecap:round; stroke-linejoin:bevel"
        d="M37 19L50 6L59 8"
  />
  <path style="fill:#deaded"
        d="M18.34 21.97C25.22 25.11 33.4 25.16 40.36 22.23C39.84 22.72 39.34 23.24 38.78 23.69C35.72 26.14 32.71 28.66 29.59 31.05C27.66 29.71 25.89 28.15 24.03 26.71C22.13 25.13 20.11 23.69 18.34 21.97V21.97z"
  />
  <radialGradient id="gradient3" gradientUnits="userSpaceOnUse" cx="0" cy="0" r="64" gradientTransform="matrix(0.1406,0,0,0.2031,23,46)">
   <stop offset="0" stop-color="#7dd4f2"/>
   <stop offset="1" stop-color="#1098c5"/>
  </radialGradient>
  <path style="fill:url(#gradient3)"
        d="M22.21 48.62C23.68 47.06 25.67 45.92 27.86 45.86C30 46 30 46 31.11 45.87C32.47 45.95 33.85 46.26 34.99 47.03C35.73 47.58 36.36 48.27 37.04 48.87C37.06 49.83 37 50.92 36.26 51.62C34.71 52.51 33.05 53.3 31.25 53.46C29.27 53.63 27.19 53.62 25.34 52.84C24.35 52.42 23.44 51.83 22.55 51.22C22.09 50.45 21.94 49.49 22.21 48.62V48.62z"
  />
  <linearGradient id="gradient4" gradientUnits="userSpaceOnUse" x1="26" y1="-6" x2="32" y2="-6">
   <stop offset="0" stop-color="#85e2f1"/>
   <stop offset="1" stop-color="#05aac3"/>
  </linearGradient>
  <path style="fill:url(#gradient4)"
        d="M27.98 32.65C28.5 33 29.04 33.35 29.58 33.68C30.06 33.41 30.53 33.13 31.01 32.87C31.19 36.87 31.02 40.87 31.08 44.87C31.15 44.9 31.21 44.93 31.28 44.96C33.56 45.42 36.41 46.3 37.04 48.87C36.36 48.27 35.73 47.58 34.99 47.03C33.85 46.26 32.47 45.95 31.11 45.87C31.05 46.75 31.04 47.65 30.96 48.53C31 49.98 28.56 50.26 28.15 48.94C27.93 47.93 27.95 46.89 27.86 45.86C25.67 45.92 23.68 47.06 22.21 48.62C22.91 46.15 25.72 45.38 27.95 44.95C28.03 40.86 27.97 36.75 27.98 32.65V32.65z"
  />
 </g>
</svg>
