<?xml version="1.0" encoding="UTF-8" standalone="yes"?>
<svg version="1.1" width="64" height="64" color-interpolation="linearRGB"
     xmlns:svg="http://www.w3.org/2000/svg" xmlns="http://www.w3.org/2000/svg">
 <g>
  <path style="fill:#010101; fill-opacity:0.4901"
        d="M29.28 4.08C35.59 3.48 42.09 5.14 47.36 8.68C53.29 12.61 57.58 18.92 59.08 25.87C60.31 31.2 59.83 36.88 57.86 41.97C55.87 47.22 52.22 51.8 47.57 54.95C43.28 57.95 38.07 59.57 32.85 59.84C24.92 60.1 16.97 56.82 11.5 51.06C7.73 46.94 5.01 41.74 4.25 36.17C3.23 30.14 4.44 23.8 7.39 18.47C11.69 10.43 20.19 4.87 29.28 4.08"
        transform="matrix(0.8746,0,0,0.4455,11.4943,37.184)"
  />
  <path style="fill:none; stroke:#000000; stroke-width:4"
        d="M29.28 4.08C35.59 3.48 42.09 5.14 47.36 8.68C53.29 12.61 57.58 18.92 59.08 25.87C60.31 31.2 59.83 36.88 57.86 41.97C55.87 47.22 52.22 51.8 47.57 54.95C43.28 57.95 38.07 59.57 32.85 59.84C24.92 60.1 16.97 56.82 11.5 51.06C7.73 46.94 5.01 41.74 4.25 36.17C3.23 30.14 4.44 23.8 7.39 18.47C11.69 10.43 20.19 4.87 29.28 4.08"
  />
  <linearGradient id="gradient0" gradientUnits="userSpaceOnUse" x1="17.82" y1="-13.11" x2="53.77" y2="22.26">
   <stop offset="0" stop-color="#d8e0eb"/>
   <stop offset="1" stop-color="#3a79db"/>
  </linearGradient>
  <path style="fill:url(#gradient0)"
        d="M31.28 6.65C36.8 6.52 42.36 8.24 46.8 11.52C50.52 14.39 53.64 18.15 55.29 22.59C57.75 28.66 57.65 35.72 55.04 41.73C53.41 45.79 50.52 49.22 47.12 51.93C43.13 54.98 38.19 56.73 33.18 57.03C27.2 57.37 21.16 55.45 16.42 51.81C14.67 50.35 13.05 48.74 11.64 46.97C8.89 43.18 7.07 38.66 6.75 33.98C6.3 28.99 7.4 23.88 9.87 19.52C11.4 16.57 13.76 14.16 16.26 12.02C20.52 8.69 25.86 6.75 31.28 6.65"
  />
  <linearGradient id="gradient1" gradientUnits="userSpaceOnUse" x1="44.29" y1="14.51" x2="68.45" y2="33.24">
   <stop offset="0" stop-color="#ffffff"/>
   <stop offset="1" stop-color="#838383"/>
  </linearGradient>
  <path style="fill:url(#gradient1)"
        d="M19 55C19 55 42 48 42 37C42 27 26 31 26 21C26 13 42 7 42 7L52 15L58 27L57 41L51 50L43 55L30 58L19 55z"
  />
  <linearGradient id="gradient2" gradientUnits="userSpaceOnUse" x1="-64" y1="-64" x2="64" y2="-64">
   <stop offset="0" stop-color="#eaf2ff"/>
   <stop offset="1" stop-color="#73a4f0"/>
  </linearGradient>
  <path style="fill:none; stroke:url(#gradient2); stroke-width:3; stroke-linecap:round; stroke-linejoin:bevel"
        d="M29.28 4.08C35.59 3.48 42.09 5.14 47.36 8.68C53.29 12.61 57.58 18.92 59.08 25.87C60.31 31.2 59.83 36.88 57.86 41.97C55.87 47.22 52.22 51.8 47.57 54.95C43.28 57.95 38.07 59.57 32.85 59.84C24.92 60.1 16.97 56.82 11.5 51.06C7.73 46.94 5.01 41.74 4.25 36.17C3.23 30.14 4.44 23.8 7.39 18.47C11.69 10.43 20.19 4.87 29.28 4.08"
        transform="matrix(0.9353,0,0,0.9354,2.0568,2.0617)"
  />
 </g>
</svg>
