<?xml version="1.0" encoding="UTF-8" standalone="yes"?>
<svg version="1.1" width="64" height="64" color-interpolation="linearRGB"
     xmlns:svg="http://www.w3.org/2000/svg" xmlns="http://www.w3.org/2000/svg">
 <g>
  <path style="fill:#010101; fill-opacity:0.447"
        d="M38.06 3.52C38.06 3.52 40.95 16.29 40.21 20.59C39.48 24.82 37.15 30.17 33.1 31.81C31.85 32.32 27.97 29.73 26.55 28.11C25.13 26.5 24.16 21.98 24.16 21.98C24.16 21.98 23.26 25.93 23.67 29.73C24.09 33.54 25.83 39.12 25.7 42.05C25.55 45.21 23.4 48.68 23.4 48.68C23.4 48.68 22.06 44.99 20.76 42.52C19.47 40.05 16.01 36.73 16.01 36.73C16.01 36.73 17.81 40.81 17.87 44.62C17.94 48.44 11.06 56.5 18.05 66.98C25.12 77.57 35.7 76.34 35.7 76.34L38.28 75.39L28.4 70.54L41.14 64.31L28.4 58.06L41.14 51.82L53.89 58.06L64.99 52.62L64.68 50.86L53.89 45.57L63.28 40.98L62.91 37.88L61.35 26.46C61.35 26.46 59.56 30.26 57.58 31.59C56.28 32.48 53.07 32.79 53.07 32.79C53.07 32.79 51.32 23.42 49.47 18.54C46.16 9.84 38.06 3.52 38.06 3.52z
           M53.89 58.06L41.14 64.31L52.85 70.03L57.47 68.34L62.63 62.35L53.89 58.06z"
        transform="matrix(0.9001,0,0,0.2587,3.4885,42.6196)"
  />
  <path style="fill:none; stroke:#000000; stroke-width:5"
        d="M38.06 3.52C38.06 3.52 40.95 16.29 40.21 20.59C39.48 24.82 37.15 30.17 33.1 31.81C31.85 32.32 27.97 29.73 26.55 28.11C25.13 26.5 24.16 21.98 24.16 21.98C24.16 21.98 23.26 25.93 23.67 29.73C24.09 33.54 25.83 39.12 25.7 42.05C25.55 45.21 23.4 48.68 23.4 48.68C23.4 48.68 22.06 44.99 20.76 42.52C19.47 40.05 16.01 36.73 16.01 36.73C16.01 36.73 17.81 40.81 17.87 44.62C17.94 48.44 11.06 56.5 18.05 66.98C25.12 77.57 35.7 76.34 35.7 76.34L38.28 75.39L28.4 70.54L41.14 64.31L28.4 58.06L41.14 51.82L53.89 58.06L64.99 52.62L64.68 50.86L53.89 45.57L63.28 40.98L62.91 37.88L61.35 26.46C61.35 26.46 59.56 30.26 57.58 31.59C56.28 32.48 53.07 32.79 53.07 32.79C53.07 32.79 51.32 23.42 49.47 18.54C46.16 9.84 38.06 3.52 38.06 3.52z
           M53.89 58.06L41.14 64.31L52.85 70.03L57.47 68.34L62.63 62.35L53.89 58.06z"
        transform="matrix(0.8003,0,0,0.7803,-3.0228,0.7762)"
  />
  <radialGradient id="gradient0" gradientUnits="userSpaceOnUse" cx="0" cy="0" r="64" gradientTransform="matrix(0.4374,0,0,0.508,42.6625,20.273)">
   <stop offset="0" stop-color="#ffd267"/>
   <stop offset="0.6078" stop-color="#ffa837"/>
   <stop offset="1" stop-color="#ff6406"/>
  </radialGradient>
  <path style="fill:url(#gradient0)"
        d="M38.06 3.52C38.06 3.52 40.95 16.29 40.21 20.59C39.48 24.82 37.15 30.17 33.1 31.81C31.85 32.32 27.97 29.73 26.55 28.11C25.13 26.5 24.16 21.98 24.16 21.98C24.16 21.98 23.26 25.93 23.67 29.73C24.09 33.54 25.83 39.12 25.7 42.05C25.55 45.21 23.4 48.68 23.4 48.68C23.4 48.68 22.06 44.99 20.76 42.52C19.47 40.05 16.01 36.73 16.01 36.73C16.01 36.73 17.81 40.81 17.87 44.62C17.94 48.44 11.06 56.5 18.05 66.98C25.12 77.57 35.7 76.34 35.7 76.34L38.28 75.39L28.4 70.54L41.14 64.31L28.4 58.06L41.14 51.82L53.89 58.06L64.99 52.62L64.68 50.86L53.89 45.57L63.28 40.98L62.91 37.88L61.35 26.46C61.35 26.46 59.56 30.26 57.58 31.59C56.28 32.48 53.07 32.79 53.07 32.79C53.07 32.79 51.32 23.42 49.47 18.54C46.16 9.84 38.06 3.52 38.06 3.52z
           M53.89 58.06L41.14 64.31L52.85 70.03L57.47 68.34L62.63 62.35L53.89 58.06z"
        transform="matrix(0.8003,0,0,0.7803,-3.0228,0.7762)"
  />
 </g>
</svg>
