<?xml version="1.0" encoding="UTF-8" standalone="yes"?>
<svg version="1.1" width="64" height="64" color-interpolation="linearRGB"
     xmlns:svg="http://www.w3.org/2000/svg" xmlns="http://www.w3.org/2000/svg">
 <g>
  <path style="fill:#000000; fill-opacity:0.4431"
        d="M62 49L49.03 42.59L29 63H49C56 63 69 53 62 49z"
  />
  <path style="fill:none; stroke:#000000; stroke-width:4"
        d="M49 43V32C49 21 44 10 34 5C28 2 20 2 16 4C12 6 6 11 6 11C4 13 2 17 2 21V37C2 40 4.17 46.76 7 50C14.48 58.53 22 62 28 62C44.02 62 49 47 49 43z"
        transform="matrix(1,0,0,1,6,0)"
  />
  <linearGradient id="gradient0" gradientUnits="userSpaceOnUse" x1="66.16" y1="-91.87" x2="126.58" y2="-31.44">
   <stop offset="0.2549" stop-color="#1942e7"/>
   <stop offset="0.5215" stop-color="#97c3ff"/>
   <stop offset="0.8823" stop-color="#032288"/>
   <stop offset="1" stop-color="#203bac"/>
  </linearGradient>
  <path style="fill:url(#gradient0)"
        d="M49 43V32C49 21 43 10 33 5C27 2 22 3 17 4C12.6 4.87 6 11 6 11C9 7 17 5 23 8C33 13 40 28 40 40C40 40 41 62 28 62C44 62 49 47 49 43z"
        transform="matrix(1,0,0,1,6,0)"
  />
  <linearGradient id="gradient1" gradientUnits="userSpaceOnUse" x1="11.68" y1="2.98" x2="42.65" y2="33.95">
   <stop offset="0" stop-color="#97c3ff"/>
   <stop offset="0.247" stop-color="#e3ecff"/>
   <stop offset="1" stop-color="#3369ff"/>
  </linearGradient>
  <path style="fill:url(#gradient1)"
        d="M40 40C40 28 33 13 23 8C17 5 9 7 6 11C8 9 15 7 21 10C31 15 40 28 40 40z"
        transform="matrix(1,0,0,1,6,0)"
  />
  <path style="fill:#000000"
        d="M19 18L18 23C18 23 17 32 19 38C20 41 23 43 23 43C23 43 24.54 44.64 27 45C34 46 30 45 30 45V48C30 48 30.02 51.18 26 52C21 53 14 49 11 42C9.74 39.07 10 34 10 34V22C10 22 10 20.99 12 19C14 17 14 18 14 18H19z"
        transform="matrix(1,0,0,1,6,0)"
  />
  <linearGradient id="gradient2" gradientUnits="userSpaceOnUse" x1="7.86" y1="129.68" x2="-47.12" y2="45.61">
   <stop offset="0.2509" stop-color="#1942e7"/>
   <stop offset="0.4274" stop-color="#97c3ff"/>
   <stop offset="0.8392" stop-color="#032288"/>
   <stop offset="1" stop-color="#203bac"/>
  </linearGradient>
  <path style="fill:url(#gradient2)"
        d="M19 18L18 23C18 23 17 32 19 38C20 41 23 43 23 43C23 43 24.54 44.64 27 45C34 46 30 45 30 45V48C30 48 30.02 51.18 26 52C21 53 14 49 11 42C9.74 39.07 10 34 10 34V22C10 22 10 20.99 12 19C14 17 14 18 14 18H19z"
        transform="matrix(1,0,0,1,6,0)"
  />
  <linearGradient id="gradient3" gradientUnits="userSpaceOnUse" x1="83.95" y1="-58.27" x2="122.26" y2="-10.65">
   <stop offset="0.2274" stop-color="#33a2ff"/>
   <stop offset="0.8313" stop-color="#3369ff"/>
  </linearGradient>
  <path style="fill:url(#gradient3)"
        d="M2 21V37.25C2 40.47 4.52 46.86 7.34 50.08C14.81 58.64 22 62 28 62C39 62 40 47 40 40C40 38.84 30 37 30 37C30 40 30.63 46.36 30 48C28 53 25 53 22 52C21 51.66 13.68 46.36 12 43C10 39 8 24.95 11 20C12.29 17.83 14 17 22 20C23.01 20.37 23.96 21.26 26 24C28.01 26.71 29 31 29 31L30 38L40 40C40 28 31 15 21 10C15 7 8 9 6 11C4 13 2 17 2 21z"
        transform="matrix(1,0,0,1,6,0)"
  />
  <path style="fill:none; stroke:#000000; stroke-width:2"
        d="M10 33V24C10 24 9 15 19 19C22.5 20.39 23.91 21.54 27 26C30.06 30.42 30 34 30 34V47C30 47 29 52 24 52C20 52 14 48 12 44C9.38 38.77 10 33 10 33z"
        transform="matrix(1,0,0,1,6,0)"
  />
 </g>
</svg>
