<?xml version="1.0" encoding="UTF-8" standalone="no"?>
<svg
   xmlns:dc="http://purl.org/dc/elements/1.1/"
   xmlns:cc="http://creativecommons.org/ns#"
   xmlns:rdf="http://www.w3.org/1999/02/22-rdf-syntax-ns#"
   xmlns:svg="http://www.w3.org/2000/svg"
   xmlns="http://www.w3.org/2000/svg"
   xmlns:xlink="http://www.w3.org/1999/xlink"
   xmlns:sodipodi="http://sodipodi.sourceforge.net/DTD/sodipodi-0.dtd"
   xmlns:inkscape="http://www.inkscape.org/namespaces/inkscape"
   version="1.1"
   width="64"
   height="64"
   color-interpolation="linearRGB"
   id="svg2"
   sodipodi:version="0.32"
   inkscape:version="0.46"
   sodipodi:docname="misc-earth"
   inkscape:output_extension="org.inkscape.output.svg.inkscape">
  <metadata
     id="metadata40">
    <rdf:RDF>
      <cc:Work
         rdf:about="">
        <dc:format>image/svg+xml</dc:format>
        <dc:type
           rdf:resource="http://purl.org/dc/dcmitype/StillImage" />
      </cc:Work>
    </rdf:RDF>
  </metadata>
  <defs
     id="defs38">
    <inkscape:perspective
       sodipodi:type="inkscape:persp3d"
       inkscape:vp_x="0 : 32 : 1"
       inkscape:vp_y="0 : 1000 : 0"
       inkscape:vp_z="64 : 32 : 1"
       inkscape:persp3d-origin="32 : 21.333333 : 1"
       id="perspective42" />
    <linearGradient
       gradientTransform="matrix(1,0,0,1.025641,0.928584,-1.192325)"
       gradientUnits="userSpaceOnUse"
       y2="44.618351"
       x2="5.9999986"
       y1="36.573788"
       x1="5.9999986"
       id="linearGradient6171"
       xlink:href="#linearGradient6165"
       inkscape:collect="always" />
    <linearGradient
       gradientTransform="matrix(1,0,0,1.025641,0.928584,-1.192325)"
       gradientUnits="userSpaceOnUse"
       y2="44.618351"
       x2="5.9999986"
       y1="36.573788"
       x1="5.9999986"
       id="linearGradient6163"
       xlink:href="#linearGradient6157"
       inkscape:collect="always" />
    <linearGradient
       gradientTransform="matrix(1,0,0,0.986364,1.4999999,5.5833119e-2)"
       gradientUnits="userSpaceOnUse"
       y2="43.857143"
       x2="8.5"
       y1="36"
       x1="8.9642859"
       id="linearGradient6153"
       xlink:href="#linearGradient6165"
       inkscape:collect="always" />
    <linearGradient
       gradientTransform="matrix(1,0,0,1.00176,1.928564,-1.144402e-2)"
       gradientUnits="userSpaceOnUse"
       y2="19.976284"
       x2="35.799229"
       y1="21.214285"
       x1="9.0877619"
       id="linearGradient5245"
       xlink:href="#linearGradient5239"
       inkscape:collect="always" />
    <linearGradient
       id="linearGradient5239">
      <stop
         id="stop5241"
         offset="0"
         style="stop-color:#7ea7d3;stop-opacity:1;" />
      <stop
         style="stop-color:#8bb1d9;stop-opacity:1;"
         offset="0.125"
         id="stop5247" />
      <stop
         id="stop5249"
         offset="0.42562979"
         style="stop-color:#3871aa;stop-opacity:1;" />
      <stop
         style="stop-color:#3c77b6;stop-opacity:1;"
         offset="0.69892961"
         id="stop5251" />
      <stop
         id="stop5243"
         offset="1"
         style="stop-color:#6c9acf;stop-opacity:1;" />
    </linearGradient>
    <linearGradient
       id="linearGradient6157"
       inkscape:collect="always">
      <stop
         id="stop6159"
         offset="0"
         style="stop-color:#888a85;stop-opacity:1" />
      <stop
         id="stop6161"
         offset="1"
         style="stop-color:#babdb6;stop-opacity:0" />
    </linearGradient>
    <linearGradient
       id="linearGradient6165">
      <stop
         id="stop6167"
         offset="0"
         style="stop-color:#000000;stop-opacity:1;" />
      <stop
         id="stop6169"
         offset="1"
         style="stop-color:#555753;stop-opacity:0;" />
    </linearGradient>
    <inkscape:perspective
       id="perspective2458"
       inkscape:persp3d-origin="24 : 16 : 1"
       inkscape:vp_z="48 : 24 : 1"
       inkscape:vp_y="0 : 1000 : 0"
       inkscape:vp_x="0 : 24 : 1"
       sodipodi:type="inkscape:persp3d" />
  </defs>
  <sodipodi:namedview
     inkscape:window-height="667"
     inkscape:window-width="674"
     inkscape:pageshadow="2"
     inkscape:pageopacity="0.0"
     guidetolerance="10.0"
     gridtolerance="10.0"
     objecttolerance="10.0"
     borderopacity="1.0"
     bordercolor="#666666"
     pagecolor="#ffffff"
     id="base"
     showgrid="false"
     inkscape:zoom="7.28125"
     inkscape:cx="34.072439"
     inkscape:cy="32"
     inkscape:window-x="520"
     inkscape:window-y="70"
     inkscape:current-layer="svg2" />
  <g
     id="g4">
    <path
       style="fill:none; stroke:#000000; stroke-width:4"
       d="M32.02 5.91C42.03 5.91 50.14 14.02 50.14 24.03C50.14 34.04 42.03 42.15 32.02 42.15C22.01 42.15 13.9 34.04 13.9 24.03C13.9 14.02 22.01 5.91 32.02 5.91z"
       id="path6" />
    <radialGradient
       id="gradient0"
       gradientUnits="userSpaceOnUse"
       cx="0"
       cy="0"
       r="64"
       gradientTransform="matrix(0.3803,0,0,-0.3803,23.5321,21.0147)">
      <stop
         offset="0.1931"
         stop-color="#33ffff"
         id="stop9" />
      <stop
         offset="0.7878"
         stop-color="#0066ff"
         id="stop11" />
      <stop
         offset="1"
         stop-color="#0034cc"
         id="stop13" />
    </radialGradient>
    <path
       style="fill:url(#gradient0)"
       d="M32.02 5.91C42.03 5.91 50.14 14.02 50.14 24.03C50.14 34.04 42.03 42.15 32.02 42.15C22.01 42.15 13.9 34.04 13.9 24.03C13.9 14.02 22.01 5.91 32.02 5.91z"
       id="path15" />
    <radialGradient
       id="gradient1"
       gradientUnits="userSpaceOnUse"
       cx="0"
       cy="0"
       r="64"
       gradientTransform="matrix(0.3803,0,0,-0.3803,23.5321,21.0147)">
      <stop
         offset="0.33"
         stop-color="#09b4b6"
         id="stop18" />
      <stop
         offset="0.85"
         stop-color="#033784"
         id="stop20" />
      <stop
         offset="1"
         stop-color="#051d61"
         id="stop22" />
    </radialGradient>
    <path
       style="fill:url(#gradient1)"
       d="M47.33 14.33C44.65 10.1 40.23 7.11 35.3 6.2C34.22 6.01 33.12 5.91 32.02 5.91C26.94 5.91 22.01 8.09 18.6 11.86C14.99 15.84 13.32 21.31 14.09 26.63C14.5 29.12 14.75 29.87 15.41 31.28C17.23 35.44 20.63 38.83 24.79 40.65C29.54 42.72 35.09 42.63 39.77 40.41C39.58 39.54 38.84 39.51 38.11 39.44L38.03 39.44L38.29 39.5C37.71 39.37 37.18 39.63 36.64 39.79C36.01 39.98 35.35 39.89 34.71 39.82C33.42 39.67 31.84 39.42 30.77 40.34C30.71 40.34 30.65 40.34 30.65 40.34L30.43 40.34C30.43 40.34 27.95 40.34 27.43 40.34C26.91 39.97 26.42 39.87 25.95 39.83C25.92 39.8 25.71 39.56 25.71 39.56C25.58 39.41 25.47 39.32 25.29 39.26L24.2 38.89L23.07 38.47C22.97 38.44 22.87 38.43 22.77 38.42C22.75 38.38 22.76 38.33 22.73 38.29L22.48 37.9C22.15 37.32 21.78 36.74 21.09 36.6C21.18 36.22 21.05 35.9 20.94 35.54C20.82 35.15 20.79 34.73 20.81 34.32L20.84 33.96C20.88 33.45 20.91 32.95 20.83 32.45C21.63 31.56 21.81 30.65 21.74 29.48L21.72 29.05C21.72 28.42 21.72 28.34 21.92 28.07L22.03 27.93C22.59 27.19 23.48 25.7 22.3 25.05L19.36 23.45C19.36 23.45 18.98 23.28 18.93 23.25C18.93 23.25 18.93 23.23 18.93 23.23C18.91 22.37 18.61 21.77 17.92 21.26C17.92 21.26 17.74 21.13 17.74 21.13C17.74 21.12 17.49 20.79 17.49 20.79L16.76 19.92C16.29 19.48 15.85 19.34 15.45 19.31C15.42 19.23 15.37 19.15 15.32 19.08C16.35 18.65 16.83 17.5 17.23 16.54C17.47 15.97 17.67 15.36 18.1 14.9C18.49 14.47 18.85 14.1 18.75 13.47C19.57 13.15 20.32 12.73 21.03 12.31L21.13 12.25L22.57 11.36C23.58 10.76 24.04 9.94 24.37 8.83C24.99 8.89 25.54 8.74 25.96 8.52C26.74 8.99 28.01 9.01 28.67 8.32C28.7 8.32 28.82 8.31 28.94 8.3C28.56 9.09 28.94 10.18 29.81 10.5C29.84 10.54 29.85 10.61 29.89 10.64C29.72 10.7 29.55 10.76 29.55 10.76L28.75 11.66C28.57 12.21 28.75 12.78 29.02 13.27C29.03 13.29 29.04 13.35 29.04 13.35C29.06 13.45 29.09 13.59 29.14 13.75C29.06 13.85 28.98 13.93 28.98 13.93C28.18 14.9 26.89 15.12 26.53 16.46L26.48 16.64C26.07 17.17 25.97 17.81 26.34 18.4C26.3 18.47 26.27 18.54 26.27 18.54C25.94 19.14 25.66 19.83 25.85 20.51C26.04 21.18 26.59 21.67 27.1 22.1C27.6 22.53 28.11 22.97 28.74 23.21C29.47 23.49 30.29 23.43 31.04 23.24L31.81 23C32.16 22.88 32.52 22.7 32.9 22.74C33.31 22.78 33.62 23.1 33.92 23.36C33.38 24.72 34.41 26.07 35.02 27.24C35.02 27.24 35.16 27.47 35.2 27.54C34.45 28.9 34.37 30.4 35.52 31.54L35.63 31.66C35.62 32.77 35.65 34.73 37.07 35.07C38.52 35.41 39.98 34.6 40.86 33.5L41.21 33.09L41.49 32.87C41.8 32.65 42.13 32.39 42.31 32.05C42.49 31.69 42.51 31.25 42.76 30.92V30.93C42.79 31.63 43.45 32.13 44.13 32.01C44.97 31.87 45.48 30.97 45.82 30.28L45.97 29.98L46.01 29.91C46.42 29.2 46.72 28.31 46.2 27.57C45.75 26.93 44.87 26.76 44.26 27.29C44.26 27.08 44.26 26.88 44.26 26.88L44.29 25.58C44.31 25.39 44.72 24.99 44.94 24.77L45.16 24.56L45.39 24.35C45.85 23.95 46.29 23.51 46.45 22.9C46.55 22.64 46.49 22.2 46.51 21.92L46.5 21.72L46.51 21.62C46.56 21.03 46.47 20.43 46 20.02C46.53 19.7 46.9 19.16 47.07 18.48C47.1 18.53 47.16 18.66 47.16 18.66C47.31 18.96 47.5 19.32 47.84 19.64C47.79 20.39 48.06 21.09 48.39 21.74C48.72 22.38 48.79 23.09 48.78 23.8L48.8 24.51C48.82 24.88 48.86 25.27 48.76 25.64C48.67 25.98 48.49 26.29 48.4 26.63C48.18 27.41 48.12 28.23 48.12 29.04C48.01 29.7 48.39 30.34 48.93 30.55C50.98 25.24 50.38 19.14 47.33 14.33z"
       id="path24" />
    <radialGradient
       id="gradient2"
       gradientUnits="userSpaceOnUse"
       cx="0"
       cy="0"
       r="64"
       gradientTransform="matrix(0.4477,0,0,0.4477,26.4917,14.4363)">
      <stop
         offset="0"
         stop-color="#ffffff"
         id="stop27" />
      <stop
         offset="0.2992"
         stop-color="#00ff00"
         id="stop29" />
      <stop
         offset="0.5643"
         stop-color="#00b200"
         id="stop31" />
      <stop
         offset="1"
         stop-color="#008000"
         id="stop33" />
    </radialGradient>
    <path
       style="fill:url(#gradient2)"
       d="M19.58 32.17C19.87 31.78 20.26 31.46 20.48 31.02C20.74 30.47 20.59 29.64 20.59 29.05C20.59 28.36 20.59 27.97 21.02 27.39C21.33 26.96 21.66 26.59 21.75 26.04C20.78 25.51 19.81 24.97 18.83 24.45C18.58 24.32 18.01 24.16 17.88 23.87C17.72 23.48 17.88 22.98 17.69 22.61C17.55 22.32 17.1 22.12 16.88 21.86C16.58 21.5 16.34 21.08 15.99 20.75C15.65 20.44 15.33 20.29 14.9 20.52C14.43 20.78 14.46 20.07 14.41 19.76C14.29 20.27 14.18 20.79 14.1 21.31C14.52 21.31 14.47 21.43 14.48 21.83C14.49 22.23 14.5 22.63 14.52 23.04C14.59 23.21 14.54 23.3 14.37 23.3C14.32 23.32 14.27 23.34 14.21 23.36C14.11 23.44 14.04 23.43 13.99 23.33C13.83 23.32 13.94 25.1 13.95 25.25C13.99 25.82 13.93 27.64 14.76 27.36C15.19 27.65 15.12 28.35 15.41 28.76C15.75 29.25 16.19 29.5 16.37 30.11C16.54 30.73 16.55 31.38 16.65 32.01C16.78 32.8 17.21 33.08 17.79 33.56C17.93 34.38 18.17 34.89 18.72 35.52C18.97 35.8 19.22 36.08 19.45 36.38C19.69 36.69 19.8 36.68 20.04 36.35C19.73 35.71 19.64 34.97 19.68 34.26C19.72 33.58 19.87 32.81 19.58 32.17            M26.02 7.13C26.36 7.36 26.39 7.58 26.83 7.66C27.14 7.72 27.62 7.79 27.86 7.53C28.44 6.93 29.34 7.36 30.02 6.94C30.56 6.61 31.01 5.94 31.71 5.94C32.14 5.93 32.4 6.2 32.75 6.39C33.22 6.65 33.6 6.16 34.03 6.02C30.69 5.65 27.27 6.22 24.22 7.67C24.9 7.87 25.5 7.54 26.02 7.13            M30.64 9.82C30.95 9.84 31.32 10.06 31.63 9.93C32.13 9.73 31.65 8.97 31.44 8.75C31.29 8.59 30.57 7.87 30.71 8.51C30.8 8.94 31.17 9.53 30.64 9.82            M17.63 13.8C17.69 13.57 17.55 13.48 17.4 13.33C16.34 14.78 15.49 16.39 14.9 18.09C16.3 17 16.19 14.9 17.63 13.8            M50.11 22.94C49.85 20.17 49.05 17.44 47.68 15C46.99 13.76 46.15 12.6 45.17 11.57C44.69 11.06 44.18 10.58 43.64 10.13C43.47 9.99 43.29 9.74 43.06 9.87C42.85 9.98 42.68 9.58 42.74 9.42C40.37 7.68 37.58 6.53 34.67 6.1C35.09 6.39 35.62 6.36 36.07 6.55C36.23 6.61 36.7 6.87 36.32 6.99C35.58 7.24 34.74 6.94 33.98 6.99C33.51 7.03 33.29 7.19 33.25 7.67C33.23 7.93 33.16 8.44 33.26 8.69C33.37 8.98 34.27 8.62 34.41 8.46C34.64 8.19 34.36 7.61 34.99 7.79C35.22 8.26 35.71 9.62 34.66 9.26C34.4 9.17 33.91 8.74 33.63 8.87C33.61 8.88 33.56 9.21 33.54 9.25C33.45 9.41 33.29 9.52 33.11 9.57C32.37 9.77 31.84 9.88 31.57 10.68C31.44 11.07 31.45 11.31 31.02 11.46C30.7 11.57 30.34 11.64 30.03 11.79C29.61 11.99 29.9 12.54 30.06 12.82C30.17 13.02 30.15 13.49 30.36 13.61C30.99 13.97 31.72 12.57 31.98 12.24C32.32 11.79 32.71 11.9 33.18 11.74C33.4 11.67 33.69 11.11 33.92 11.2C34.7 11.5 34.93 12.43 35.05 13.16C35.3 13.16 35.14 12.57 35.66 12.7C35.27 12.28 35 11.72 34.94 11.14C35.5 11.5 35.89 11.89 36.07 12.52C36.24 13.14 36.53 13.49 37.04 12.86C37.17 12.73 37.35 11.89 37.62 12.13C37.85 12.33 37.85 13.01 37.5 13.1C37.7 13.28 37.98 13.2 38.21 13.14C38.53 13.06 38.71 13.08 39.01 13.2C39.36 13.33 39.73 13.38 40.1 13.4C40.47 13.42 40.68 13.76 40.85 14.04C41.32 14.81 38.52 14.49 38.38 14.48C38.04 14.46 37.66 14.46 37.35 14.58C37.11 14.68 36.93 15 36.64 14.9C36.32 14.8 36.03 14.51 35.75 14.33C35.37 14.08 34.97 13.85 34.56 13.67C33.87 13.36 33.09 13.17 32.34 13.32C31.99 13.4 31.65 13.55 31.36 13.77C31.01 14.03 30.63 13.8 30.29 14.16C29.76 14.7 29.39 15.36 28.69 15.7C28.4 15.84 28.06 15.96 27.86 16.21C27.65 16.47 27.65 16.82 27.51 17.11C27.38 17.39 27.08 17.53 27.32 17.86C27.53 18.15 27.59 18.38 27.44 18.72C27.23 19.23 26.65 19.91 27.07 20.46C27.47 21 28.18 21.53 28.71 21.92C29.32 22.37 30.07 22.32 30.76 22.14C31.4 21.97 32.05 21.66 32.72 21.61C33.56 21.55 34.2 22.08 34.79 22.61C35.18 22.96 35.33 23.1 35.03 23.59C34.7 24.15 34.9 24.55 35.17 25.09C35.44 25.63 35.73 26.17 36.01 26.69C36.14 26.92 36.31 27.13 36.41 27.37C36.53 27.65 36.34 27.81 36.21 28.05C35.94 28.53 35.75 29.08 35.75 29.64C35.76 30.26 36.05 30.47 36.44 30.87C36.8 31.23 36.78 31.87 36.75 32.34C36.7 32.99 36.9 33.44 37.28 33.95C37.86 33.98 38.46 33.94 38.99 33.69C39.64 33.38 39.92 32.78 40.41 32.29C40.86 31.84 41.33 31.8 41.47 31.11C41.63 30.3 42.06 29.98 42.65 29.48C43.19 29.02 43.12 28.36 43.14 27.72C43.15 26.98 43.07 26.17 43.16 25.43C43.25 24.76 43.9 24.22 44.35 23.77C44.68 23.43 45.23 23.1 45.35 22.61C45.42 22.35 45.36 22 45.36 21.72C45.36 21.52 45.43 21.19 45.34 21C45.1 20.48 44.02 20.99 43.9 20.51C43.82 20.22 43.84 20.27 44.03 20.09C44.25 19.89 44.03 19.69 43.84 19.58C43.32 19.27 42.9 19.07 42.52 18.56C42.16 18.09 41.86 17.57 41.57 17.05C41.5 16.92 40.8 15.51 41.21 15.64C41.66 15.79 42.07 16.32 42.38 16.66C42.91 17.24 43.4 17.89 43.73 18.6C43.74 18.69 44.07 18.87 44.14 18.92C44.38 19.1 44.65 19.24 44.96 19.22C45.67 19.16 46.01 18.52 46.06 17.88C46.13 17.01 45.46 17.19 44.94 16.78C44.65 16.54 44.45 16.21 44.22 15.92C44.07 15.75 43.67 15.47 43.81 15.19C44.11 14.99 44.23 15.17 44.52 15.34C44.86 15.55 45.23 15.73 45.61 15.85C46.01 15.98 46.6 15.86 46.94 16.12C47.15 16.27 47.3 16.64 47.44 16.86C47.67 17.21 47.88 17.57 48.07 17.94C48.36 18.52 48.44 18.91 49.14 19.12C48.7 19.85 49.13 20.7 49.47 21.36C49.88 22.16 49.92 22.93 49.91 23.81C49.9 24.61 50.09 25.53 49.72 26.28C49.33 27.1 49.25 28.21 49.25 29.12C49.26 29.07 49.28 28.99 49.31 28.94C49.27 29.01 49.15 29.47 49.26 29.49C49.43 29.53 49.74 27.82 49.78 27.62C50.1 26.09 50.2 24.51 50.11 22.94            M40.17 12.15C39.9 12.19 39.92 11.75 39.73 11.65C39.38 11.47 38.98 11.68 38.68 11.84C37.69 12.38 37.97 11.25 38.18 10.7C38.21 10.61 38.85 10.72 38.95 10.71C39.28 10.66 39.77 10.52 40.03 10.81C40.27 11.09 40.46 11.36 40.74 11.62C41.1 11.94 40.43 12.12 40.17 12.15            M45.06 28.06C44.73 28.46 44.29 28.76 44.04 29.22C43.74 29.74 43.89 30.36 43.89 30.93C44.45 30.67 44.7 29.92 44.99 29.42C45.2 29.05 45.66 28.32 45.06 28.06            M37.83 40.54C36.38 41.57 34.17 40.65 32.53 40.83C32.16 40.87 31.8 40.94 31.51 41.2C31.13 41.53 30.96 41.47 30.43 41.47C29.32 41.47 28.21 41.47 27.1 41.47C29.5 42.14 32.04 42.32 34.51 41.98C35.68 41.82 36.85 41.55 37.97 41.17C38.06 41.14 38.91 40.69 38.6 40.58C38.36 40.49 38.06 40.64 37.83 40.54            M22.76 9.77C23.08 9.25 23.28 8.67 23.42 8.08C21.34 9.2 19.49 10.74 17.99 12.57C18.9 12.27 19.73 11.76 20.55 11.27C20.95 11.03 21.35 10.79 21.74 10.54C22.07 10.33 22.55 10.1 22.76 9.77            M20.9 37.67C20.76 37.78 20.63 37.93 20.45 37.97C20.91 38.36 21.4 38.72 21.9 39.06C21.51 38.64 21.37 38.03 20.9 37.67"
       id="path35" />
  </g>
  <g
     inkscape:label="Layer 1"
     id="layer1"
     transform="translate(-2.6410221,15.663091)">
    <rect
       ry="1.4999989"
       rx="1.4999989"
       y="6.4999857"
       x="5.4285841"
       height="40.000027"
       width="2.9999979"
       id="rect4321"
       style="opacity:1;fill:url(#linearGradient6163);fill-opacity:1;stroke:url(#linearGradient6171);stroke-width:1.00000083;stroke-linecap:round;stroke-linejoin:round;stroke-miterlimit:4;stroke-dasharray:none;stroke-opacity:1" />
    <path
       sodipodi:nodetypes="czzcczzczc"
       id="path4319"
       d="M 8.4285571,8.0191769 C 8.4285571,8.0191769 13.558991,6.3318604 18.776384,6.5137056 C 23.993777,6.6955518 25.385081,8.6621415 31.298129,8.4499877 C 37.211174,8.2378348 42.428567,6.7662186 42.428567,6.7662186 L 42.428567,31.348027 C 42.428567,31.348027 37.269145,33.5 31.356099,33.5 C 25.443053,33.5 24.341603,31.802646 18.776384,31.590494 C 13.211166,31.37834 8.4285571,32.507719 8.4285571,32.507719 C 8.4285571,32.507719 10.428557,26.385584 10.428557,20.263448 C 10.428557,14.141312 8.4285571,8.0191769 8.4285571,8.0191769 z"
       style="fill:url(#linearGradient5245);fill-opacity:1;fill-rule:evenodd;stroke:#000000;stroke-width:1.00000142999999997px;stroke-linecap:butt;stroke-linejoin:miter;stroke-opacity:1" />
    <path
       transform="matrix(1.5342462,0,0,1.5342462,-1.4315025,-16.075332)"
       d="M 11.035714,29.053572 A 1.3035715,1.3035715 0 1 1 8.428571,29.053572 A 1.3035715,1.3035715 0 1 1 11.035714,29.053572 z"
       sodipodi:ry="1.3035715"
       sodipodi:rx="1.3035715"
       sodipodi:cy="29.053572"
       sodipodi:cx="9.7321424"
       id="path6155"
       style="opacity:0.69999999999999996;fill:#ffffff;fill-opacity:1;stroke:#000000;stroke-width:0.65178639000000005;stroke-linecap:round;stroke-linejoin:round;stroke-miterlimit:4;stroke-dasharray:none;stroke-opacity:1"
       sodipodi:type="arc" />
    <path
       sodipodi:nodetypes="cc"
       id="path6145"
       d="M 13.5,28.5 C 13.238095,36.000002 11.119048,39.785718 9.9285717,45.428577"
       style="fill:#2e3436;fill-opacity:0.75;fill-rule:evenodd;stroke:url(#linearGradient6153);stroke-width:1.00000024px;stroke-linecap:round;stroke-linejoin:miter;stroke-opacity:1" />
    <g
       transform="translate(0,-1)"
       style="opacity:0.50588229"
       id="g5593" />
  </g>
</svg>
