<?xml version="1.0" encoding="UTF-8" standalone="yes"?>
<svg version="1.1" width="64" height="64" color-interpolation="linearRGB"
     xmlns:svg="http://www.w3.org/2000/svg" xmlns="http://www.w3.org/2000/svg">
 <g>
  <path style="fill:#010101; fill-opacity:0.3647"
        d="M16.18 17.52C16.18 19.84 16.8 22.14 18.02 24.46C16.8 26 16.49 28 16.49 30C16.49 31.06 16.64 32.14 16.64 33.06V33.84C16.64 34.92 14.64 36.14 13.42 36.92C12.02 37.84 9.88 39.22 9.88 41.06C9.88 41.52 10.02 42 10.34 42.46L11.88 43.68C13.1 44 14.34 43.38 16.49 42C17.42 41.52 18.8 40.6 19.56 40.3C20.49 41.06 21.42 41.38 22.64 41.52C24.18 41.52 25.72 41.06 27.1 40.14C27.1 40.3 27.1 40.46 27.1 40.76C27.1 42.3 27.72 43.22 28.8 43.68C29.26 43.84 29.72 44 30.18 43.84C30.34 44.92 30.49 45.68 31.1 46.46C31.42 46.76 31.72 47.06 32.18 47.38C32.18 48.14 32.02 49.38 31.88 50.14C31.72 51.22 31.56 52.14 31.56 52.92C31.56 53.84 31.72 54.46 32.34 55.06C32.95 55.52 33.72 55.68 34.49 55.52C36.49 54.92 36.8 52.76 37.26 50.46C37.56 48.76 37.88 46.46 38.8 45.68L39.42 45.22C41.56 43.52 43.88 41.52 44.8 38.92C44.95 38.46 45.1 37.84 45.1 37.38C46.95 36.6 48.64 35.22 50.18 33.68C53.88 29.68 57.72 22.3 57.72 17.22C57.72 16.14 57.56 15.06 57.1 14.3C56.49 13.22 55.42 12.46 54.18 12.3C49.72 11.84 43.1 18.6 41.26 20.76C41.26 20.76 40.18 21.84 39.88 22.3C39.72 21.52 39.1 20.92 38.49 20.6C38.18 20.46 37.72 20.46 37.42 20.46C37.42 20.3 37.42 17.84 37.42 17.84C37.42 9.22 34.02 0 27.88 0C21.56 0 16.49 9.84 16.49 17.84L16.18 17.52z
           M33.1 32.3C33.26 32.3 33.88 32.6 34.8 33.06C33.88 32.92 33.1 32.76 33.1 32.76C33.1 32.6 33.1 32.6 33.26 32.3H33.1z"
        transform="matrix(1.1671,0,0,0.5325,-4.6525,33)"
  />
  <path style="fill:#000000"
        d="M16.18 17.52C16.18 19.84 16.8 22.14 18.02 24.46C16.8 26 16.49 28 16.49 30C16.49 31.06 16.64 32.14 16.64 33.06V33.84C16.64 34.92 14.64 36.14 13.42 36.92C12.02 37.84 9.88 39.22 9.88 41.06C9.88 41.52 10.02 42 10.34 42.46L11.88 43.68C13.1 44 14.34 43.38 16.49 42C17.42 41.52 18.8 40.6 19.56 40.3C20.49 41.06 21.42 41.38 22.64 41.52C24.18 41.52 25.72 41.06 27.1 40.14C27.1 40.3 27.1 40.46 27.1 40.76C27.1 42.3 27.72 43.22 28.8 43.68C29.26 43.84 29.72 44 30.18 43.84C30.34 44.92 30.49 45.68 31.1 46.46C31.42 46.76 31.72 47.06 32.18 47.38C32.18 48.14 32.02 49.38 31.88 50.14C31.72 51.22 31.56 52.14 31.56 52.92C31.56 53.84 31.72 54.46 32.34 55.06C32.95 55.52 33.72 55.68 34.49 55.52C36.49 54.92 36.8 52.76 37.26 50.46C37.56 48.76 37.88 46.46 38.8 45.68L39.42 45.22C41.56 43.52 43.88 41.52 44.8 38.92C44.95 38.46 45.1 37.84 45.1 37.38C46.95 36.6 48.64 35.22 50.18 33.68C53.88 29.68 57.72 22.3 57.72 17.22C57.72 16.14 57.56 15.06 57.1 14.3C56.49 13.22 55.42 12.46 54.18 12.3C49.72 11.84 43.1 18.6 41.26 20.76C41.26 20.76 40.18 21.84 39.88 22.3C39.72 21.52 39.1 20.92 38.49 20.6C38.18 20.46 37.72 20.46 37.42 20.46C37.42 20.3 37.42 17.84 37.42 17.84C37.42 9.22 34.02 0 27.88 0C21.56 0 16.49 9.84 16.49 17.84L16.18 17.52z
           M33.1 32.3C33.26 32.3 33.88 32.6 34.8 33.06C33.88 32.92 33.1 32.76 33.1 32.76C33.1 32.6 33.1 32.6 33.26 32.3H33.1z"
        transform="matrix(1.2926,0,0,1.0359,-11.8919,0.9999)"
  />
  <linearGradient id="gradient0" gradientUnits="userSpaceOnUse" x1="42.52" y1="50.12" x2="58.17" y2="46.97">
   <stop offset="0" stop-color="#ffaa00"/>
   <stop offset="1" stop-color="#ff0000"/>
  </linearGradient>
  <path style="fill:url(#gradient0)"
        d="M48.34 31.52C43.56 36.92 36.8 36.46 35.26 33.68C33.72 30.92 37.72 26.92 42.64 21.52C47.56 16.14 53.42 11.84 55.1 14.6C56.64 17.38 53.26 26.14 48.49 31.52H48.34z"
        transform="matrix(1.2926,0,0,1.0359,-11.8919,0.9999)"
  />
  <linearGradient id="gradient1" gradientUnits="userSpaceOnUse" x1="6.87" y1="14.14" x2="23.62" y2="31.02">
   <stop offset="0" stop-color="#ff00a8"/>
   <stop offset="1" stop-color="#ffaa00"/>
  </linearGradient>
  <path style="fill:url(#gradient1)"
        d="M18.18 17.06C18.18 24.6 26.18 30.76 30.8 30.76C35.42 30.76 34.8 24.6 34.8 17.06C34.8 9.52 32.02 1.38 27.42 1.38C22.8 1.38 18.18 9.68 18.18 17.06z"
        transform="matrix(1.2926,0,0,1.0359,-11.8919,0.9999)"
  />
  <radialGradient id="gradient2" gradientUnits="userSpaceOnUse" cx="0" cy="0" r="64" gradientTransform="matrix(0.0859,0,0,0.0779,93.9619,25.0343)">
   <stop offset="0" stop-color="#787878"/>
   <stop offset="1" stop-color="#313131"/>
  </radialGradient>
  <path style="fill:none; stroke:url(#gradient2); stroke-width:1"
        d="M38.64 20.6L38.95 20.76C41.88 16.76 49.88 6.6 52.8 8.46L52.95 8.14C49.26 5.52 39.1 19.84 38.64 20.46V20.6z"
        transform="matrix(1.2926,0,0,1.0359,-11.8919,0.9999)"
  />
  <radialGradient id="gradient3" gradientUnits="userSpaceOnUse" cx="0" cy="0" r="64" gradientTransform="matrix(0.0138,0,0,0.1137,86.1064,15.158)">
   <stop offset="0" stop-color="#787878"/>
   <stop offset="1" stop-color="#313131"/>
  </radialGradient>
  <path style="fill:none; stroke:url(#gradient3); stroke-width:1"
        d="M38.18 2C41.56 2.76 39.26 15.52 38.18 20.46L38.49 20.6C38.64 19.84 42.64 2.76 38.18 1.68L38.02 2H38.18z"
        transform="matrix(1.2926,0,0,1.0359,-11.8919,0.9999)"
  />
  <linearGradient id="gradient4" gradientUnits="userSpaceOnUse" x1="34.51" y1="32.51" x2="26.55" y2="38.6">
   <stop offset="0" stop-color="#ffaa00"/>
   <stop offset="1" stop-color="#00ff00"/>
  </linearGradient>
  <path style="fill:url(#gradient4)"
        d="M33.72 52.76C35.26 52.3 34.49 45.68 37.26 43.38C39.42 41.68 41.88 39.84 42.49 37.52C43.72 33.84 39.88 30.92 37.56 30.76C35.26 30.6 34.18 33.84 33.42 35.84C32.18 39.52 30.95 45.22 33.56 45.06C34.95 44.92 32.8 53.06 33.56 52.76H33.72z"
        transform="matrix(1.2926,0,0,1.0359,-11.8919,0.9999)"
  />
  <linearGradient id="gradient5" gradientUnits="userSpaceOnUse" x1="3.29" y1="23.59" x2="13.65" y2="15.55">
   <stop offset="0" stop-color="#a9ff00"/>
   <stop offset="1" stop-color="#ffaa00"/>
  </linearGradient>
  <path style="fill:url(#gradient5)"
        d="M12.18 41.06C11.1 39.06 19.1 37.38 18.8 33.22C18.64 30.14 18.18 26.76 19.88 25.06C22.64 22.14 29.56 25.06 32.18 27.68C34.8 30.3 32.34 32.6 30.8 34.3C28.02 37.22 22.95 40.76 20.64 38C19.42 36.46 12.8 42 12.34 41.06H12.18z"
        transform="matrix(1.2926,0,0,1.0359,-11.8919,0.9999)"
  />
  <radialGradient id="gradient6" gradientUnits="userSpaceOnUse" cx="0" cy="0" r="64" gradientTransform="matrix(-0.0033,-0.0031,-0.092,0.0975,65.5249,54.8776)">
   <stop offset="0" stop-color="#787878"/>
   <stop offset="1" stop-color="#313131"/>
  </radialGradient>
  <path style="fill:url(#gradient6)"
        d="M31.88 30.92C29.72 36.3 28.64 40.92 29.42 41.22C30.18 41.52 32.64 37.52 34.8 32.14C36.95 26.76 38.02 22.14 37.26 21.84C36.49 21.52 34.02 25.52 31.88 30.92z"
        transform="matrix(1.2926,0,0,1.0359,-11.8919,0.9999)"
  />
  <radialGradient id="gradient7" gradientUnits="userSpaceOnUse" cx="0" cy="0" r="64" gradientTransform="matrix(0.0073,0,0,0.0073,84.1489,3.4873)">
   <stop offset="0" stop-color="#787878"/>
   <stop offset="1" stop-color="#313131"/>
  </radialGradient>
  <path style="fill:url(#gradient7)"
        d="M37.42 1.84C37.42 2.14 37.72 2.46 38.02 2.46C38.34 2.46 38.64 2.14 38.64 1.84C38.64 1.52 38.34 1.22 38.02 1.22C37.72 1.22 37.42 1.52 37.42 1.84z"
        transform="matrix(1.2926,0,0,1.0359,-11.8919,0.9999)"
  />
  <radialGradient id="gradient8" gradientUnits="userSpaceOnUse" cx="0" cy="0" r="64" gradientTransform="matrix(0.0073,0,0,0.0073,117.0502,18.2243)">
   <stop offset="0" stop-color="#787878"/>
   <stop offset="1" stop-color="#313131"/>
  </radialGradient>
  <path style="fill:url(#gradient8)"
        d="M52.18 8.46C52.18 8.76 52.49 9.06 52.8 9.06C53.1 9.06 53.42 8.76 53.42 8.46C53.42 8.14 53.1 7.84 52.8 7.84C52.49 7.84 52.18 8.14 52.18 8.46z"
        transform="matrix(1.2926,0,0,1.0359,-11.8919,0.9999)"
  />
  <path style="fill:#ffffff; fill-opacity:0.549"
        d="M31.26 3.38C31.26 3.38 28.18 -0.77 24.34 2.46C19.1 6.92 17.88 14.76 18.49 19.52C19.1 6 26.49 -1.53 31.26 3.38z"
        transform="matrix(1.2926,0,0,1.0359,-11.8919,0.9999)"
  />
  <path style="fill:#ffffff; fill-opacity:0.549"
        d="M36.18 28.92C42.64 20.6 52.18 10.6 54.95 14.6C51.42 13.52 45.26 18.76 36.02 29.06L36.18 28.92z"
        transform="matrix(1.2926,0,0,1.0359,-11.8919,0.9999)"
  />
  <path style="fill:#ffffff; fill-opacity:0.549"
        d="M37.72 22.76C36.95 21.52 30.02 34.46 29.26 39.84C30.49 31.52 35.72 22.92 36.8 21.99C37.72 21.06 37.72 22.76 37.72 22.76z"
        transform="matrix(1.2926,0,0,1.0359,-11.8919,0.9999)"
  />
  <path style="fill:#ffffff; fill-opacity:0.549"
        d="M28.64 25.38C26.18 23.84 21.1 23.22 19.42 25.38C17.72 27.52 18.8 31.84 18.8 34C18.8 36.14 12.8 38.92 12.49 39.84C14.64 38.3 18.64 36.92 19.26 35.06C19.88 33.22 19.26 28.3 20.49 26.14C21.88 24 26.34 24.6 28.64 25.38z"
        transform="matrix(1.2926,0,0,1.0359,-11.8919,0.9999)"
  />
 </g>
</svg>
