<?xml version="1.0" encoding="UTF-8" standalone="yes"?>
<svg version="1.1" width="64" height="64" color-interpolation="linearRGB"
     xmlns:svg="http://www.w3.org/2000/svg" xmlns="http://www.w3.org/2000/svg">
 <g>
  <path style="fill:#010101"
        d="M8 8L47 45L9 56C9 56 12 43 12 33C12 23 8 8 8 8z
           M8 8L17 3L54 40L47 45L8 8z"
  />
  <path style="fill:#010101; fill-opacity:0.4784"
        d="M9 57C9 57 33 18 32 18L61 40L51 53"
  />
  <linearGradient id="gradient0" gradientUnits="userSpaceOnUse" x1="26.67" y1="-10.75" x2="65.84" y2="17.2">
   <stop offset="0" stop-color="#58ff05"/>
   <stop offset="1" stop-color="#049726"/>
  </linearGradient>
  <path style="fill:url(#gradient0)"
        d="M8 8L47 45L9 56C9 56 12 43 12 33C12 23 8 8 8 8z"
  />
  <path style="fill:#2d8303"
        d="M8 8L17 3L54 40L47 45L8 8z"
  />
 </g>
</svg>
