<?xml version="1.0" encoding="UTF-8" standalone="no"?>
<!DOCTYPE svg PUBLIC "-//W3C//DTD SVG 20010904//EN"
"http://www.w3.org/TR/2001/REC-SVG-20010904/DTD/svg10.dtd">
<!-- Created with Sodipodi ("http://www.sodipodi.com/") -->
<svg
   width="48pt"
   height="48pt"
   viewBox="0.004 -0.168 120 121"
   overflow="visible"
   enable-background="new 0.004 -0.168 120 121"
   xml:space="preserve"
   xmlns="http://www.w3.org/2000/svg"
   xmlns:xml="http://www.w3.org/XML/1998/namespace"
   xmlns:a="http://ns.adobe.com/AdobeSVGViewerExtensions/3.0/"
   xmlns:sodipodi="http://sodipodi.sourceforge.net/DTD/sodipodi-0.dtd"
   xmlns:xlink="http://www.w3.org/1999/xlink"
   id="svg153"
   sodipodi:version="0.32pre"
   sodipodi:docname="/home/cschalle/gnome-themes-extras/Wasp/icons/scalable/apps/vanity.svg"
   sodipodi:docbase="/home/cschalle/gnome-themes-extras/Wasp/icons/scalable/apps">
  <defs
     id="defs206" />
  <sodipodi:namedview
     id="base" />
  <g
     id="Layer_1_2_">
    <path
       d="M13.023,43.94c0,1.219,0.154,2.486,0.262,3.74c-5.746,2.812-9.166,8.726-9.166,15.242c0,1.653,0.219,3.343,0.675,5.03    c0.825,3.059,2.406,5.794,4.513,8.009C6.817,78.225,0,84.422,0,84.422l75.004,36.41l44.982-43.484c0,0-20.333-8.984-25.168-11.12    c3.986-6.744,6.085-14.376,6.085-22.288C100.903,19.711,81.192,0,56.963,0S13.023,19.711,13.023,43.94z"
       id="path155" />
    <path
       fill="#E3E3E3"
       d="M67.715,72.921l-40.269-9.396L5.299,83.659l69.128,33.558L67.715,72.921z"
       id="path156" />
    <path
       fill="#A1A1A1"
       d="M114.695,78.29l-40.269,38.927l-6.711-44.296l18.121-7.383L114.695,78.29z"
       id="path157" />
    <path
       d="M34.275,16.688c-2.743,1.421-5.074,4.455-6.236,8.116c-2,6.303-0.054,12.354,4.431,13.778    c1.702,0.541,3.544,0.338,5.328-0.586c2.743-1.421,5.074-4.455,6.236-8.115c2-6.303,0.054-12.355-4.429-13.78    C37.902,15.561,36.059,15.763,34.275,16.688z"
       id="path158" />
    <path
       d="M14.023,43.94c0,23.677,19.263,42.94,42.94,42.94s42.94-19.263,42.94-42.94S80.641,1,56.963,1S14.023,20.263,14.023,43.94    z"
       id="path159" />
    <g
       a:adobe-knockout="true"
       id="g160">
      <path
         fill="#CCCCCC"
         a:adobe-knockout="false"
         d="M16.023,43.94C16.023,21.33,34.353,3,56.963,3s40.94,18.33,40.94,40.94     s-18.33,40.94-40.94,40.94S16.023,66.55,16.023,43.94z"
         id="path161" />
      <path
         fill="#CECECE"
         a:adobe-knockout="false"
         d="M56.182,3.652c21.773,0.046,39.368,17.798,39.296,39.65     c-0.071,21.852-17.78,39.528-39.554,39.482c-21.773-0.047-39.367-17.799-39.296-39.65C16.699,21.283,34.409,3.606,56.182,3.652z"
         id="path162" />
      <path
         fill="#D0D0D0"
         a:adobe-knockout="false"
         d="M55.401,4.305c20.937,0.093,37.795,17.267,37.652,38.36     c-0.142,21.092-17.231,38.116-38.167,38.023c-20.937-0.093-37.795-17.268-37.652-38.36C17.376,21.236,34.464,4.212,55.401,4.305z     "
         id="path163" />
      <path
         fill="#D3D3D3"
         a:adobe-knockout="false"
         d="M54.62,4.958c20.1,0.139,36.222,16.735,36.009,37.069     C90.416,62.36,73.947,78.731,53.848,78.593c-20.1-0.14-36.222-16.736-36.008-37.07S34.521,4.818,54.62,4.958z"
         id="path164" />
      <path
         fill="#D5D5D5"
         a:adobe-knockout="false"
         d="M53.839,5.609c19.263,0.186,34.649,16.205,34.364,35.78     c-0.285,19.574-16.132,35.292-35.395,35.106c-19.263-0.186-34.649-16.205-34.364-35.779C18.729,21.142,34.576,5.424,53.839,5.609     z"
         id="path165" />
      <path
         fill="#D7D7D7"
         a:adobe-knockout="false"
         d="M53.058,6.262c18.426,0.232,33.076,15.673,32.72,34.49     C85.422,59.567,70.196,74.633,51.77,74.4c-18.427-0.232-33.076-15.674-32.721-34.489C19.405,21.095,34.631,6.03,53.058,6.262z"
         id="path166" />
      <path
         fill="#D9D9D9"
         a:adobe-knockout="false"
         d="M52.277,6.915C69.866,7.193,83.78,22.057,83.353,40.114     c-0.427,18.057-15.032,32.469-32.622,32.19c-17.59-0.278-31.503-15.142-31.077-33.199C20.082,21.049,34.688,6.636,52.277,6.915z"
         id="path167" />
      <path
         fill="#DCDCDC"
         a:adobe-knockout="false"
         d="M51.496,7.567c16.752,0.325,29.931,14.611,29.433,31.91     C80.43,56.774,66.445,70.534,49.692,70.209C32.94,69.884,19.762,55.598,20.26,38.3C20.758,21.002,34.743,7.242,51.496,7.567z"
         id="path168" />
      <path
         fill="#DEDEDE"
         a:adobe-knockout="false"
         d="M50.715,8.22C66.63,8.591,79.072,22.3,78.503,38.839     C77.934,55.378,64.57,68.485,48.654,68.113c-15.917-0.371-28.358-14.08-27.789-30.619C21.435,20.956,34.798,7.849,50.715,8.22z"
         id="path169" />
      <path
         fill="#E0E0E0"
         a:adobe-knockout="false"
         d="M49.934,8.872c15.079,0.418,26.785,13.549,26.145,29.33     c-0.64,15.779-13.384,28.233-28.463,27.815S20.831,52.468,21.47,36.689C22.111,20.908,34.854,8.454,49.934,8.872z"
         id="path170" />
      <path
         fill="#E2E2E2"
         a:adobe-knockout="false"
         d="M49.152,9.525c14.242,0.464,25.212,13.018,24.501,28.04     c-0.711,15.02-12.834,26.822-27.077,26.357c-14.242-0.464-25.212-13.018-24.501-28.039C22.787,20.862,34.91,9.06,49.152,9.525z"
         id="path171" />
      <path
         fill="#E4E4E4"
         a:adobe-knockout="false"
         d="M48.372,10.177c13.405,0.511,23.639,12.486,22.856,26.75     c-0.782,14.261-12.285,25.41-25.69,24.899c-13.406-0.51-23.639-12.487-22.857-26.749C23.464,20.815,34.966,9.667,48.372,10.177z"
         id="path172" />
      <path
         fill="#E7E7E7"
         a:adobe-knockout="false"
         d="M47.591,10.83c12.568,0.557,22.066,11.955,21.212,25.459     C67.949,49.792,57.068,60.287,44.5,59.729c-12.569-0.557-22.066-11.955-21.213-25.458C24.14,20.768,35.021,10.272,47.591,10.83z"
         id="path173" />
      <path
         fill="#E9E9E9"
         a:adobe-knockout="false"
         d="M46.81,11.482c11.731,0.604,20.493,11.423,19.568,24.169     c-0.925,12.744-11.186,22.586-22.917,21.982c-11.732-0.603-20.494-11.424-19.569-24.168     C24.817,20.721,35.077,10.879,46.81,11.482z"
         id="path174" />
      <path
         fill="#EBEBEB"
         a:adobe-knockout="false"
         d="M46.029,12.135c10.894,0.65,18.92,10.893,17.924,22.879     c-0.996,11.984-10.636,21.174-21.53,20.524c-10.896-0.65-18.921-10.893-17.925-22.878C25.493,20.674,35.133,11.484,46.029,12.135     z"
         id="path175" />
      <path
         fill="#EDEDED"
         a:adobe-knockout="false"
         d="M45.248,12.788c10.058,0.696,17.347,10.361,16.28,21.589     c-1.066,11.226-10.086,19.763-20.144,19.066c-10.058-0.696-17.348-10.362-16.281-21.588     C26.169,20.628,35.189,12.091,45.248,12.788z"
         id="path176" />
      <path
         fill="#EFEFEF"
         a:adobe-knockout="false"
         d="M44.466,13.44c9.221,0.742,15.774,9.83,14.636,20.299     c-1.138,10.466-9.537,18.351-18.758,17.607c-9.222-0.742-15.775-9.831-14.637-20.297C26.846,20.581,35.244,12.697,44.466,13.44z"
         id="path177" />
      <path
         fill="#F2F2F2"
         a:adobe-knockout="false"
         d="M43.686,14.092c8.384,0.789,14.201,9.299,12.992,19.009     C55.469,42.809,47.69,50.04,39.306,49.25c-8.385-0.789-14.202-9.299-12.993-19.008C27.522,20.534,35.3,13.303,43.686,14.092z"
         id="path178" />
      <path
         fill="#F4F4F4"
         a:adobe-knockout="false"
         d="M42.904,14.745c7.547,0.835,12.628,8.767,11.348,17.719     c-1.28,8.948-8.437,15.527-15.985,14.691c-7.548-0.835-12.629-8.769-11.349-17.718C28.199,20.487,35.356,13.909,42.904,14.745z"
         id="path179" />
      <path
         fill="#F6F6F6"
         a:adobe-knockout="false"
         d="M42.123,15.397c6.71,0.882,11.056,8.236,9.704,16.429     c-1.351,8.189-7.887,14.115-14.598,13.232c-6.711-0.882-11.057-8.237-9.706-16.427C28.875,20.44,35.412,14.515,42.123,15.397z"
         id="path180" />
      <path
         fill="#F8F8F8"
         a:adobe-knockout="false"
         d="M41.342,16.05c5.873,0.928,9.483,7.705,8.06,15.139     c-1.422,7.431-7.338,12.704-13.212,11.774c-5.875-0.928-9.484-7.706-8.062-15.137C29.552,20.394,35.467,15.121,41.342,16.05z"
         id="path181" />
      <path
         fill="#FBFBFB"
         a:adobe-knockout="false"
         d="M40.561,16.702c5.037,0.975,7.91,7.174,6.416,13.849     c-1.494,6.671-6.788,11.291-11.826,10.316c-5.038-0.975-7.911-7.175-6.417-13.847C30.228,20.347,35.523,15.727,40.561,16.702z"
         id="path182" />
      <path
         fill="#FDFDFD"
         a:adobe-knockout="false"
         d="M39.78,17.355c4.199,1.021,6.337,6.643,4.772,12.559     c-1.565,5.912-6.239,9.879-10.439,8.857c-4.201-1.021-6.338-6.644-4.773-12.557C30.905,20.3,35.579,16.333,39.78,17.355z"
         id="path183" />
      <path
         fill="#FFFFFF"
         a:adobe-knockout="false"
         d="M29.945,25.409c1.636-5.155,5.689-8.47,9.054-7.401     c3.363,1.067,4.764,6.111,3.128,11.269c-1.636,5.153-5.689,8.468-9.053,7.399C29.71,35.608,28.309,30.563,29.945,25.409z"
         id="path184" />
    </g>
    <path
       opacity="0.1"
       a:adobe-blending-mode="multiply"
       d="M45.318,48.322c5.714,4.286,13.214,10.714,12.5,17.5    c-0.653,6.203-4.643,10-11.071,12.143c6.429,0.356,35.357-3.928,43.214-28.214c4.208-13.006,5-18.929,5-23.929    c1.786,3.571,8.929,23.571-2.143,41.071C81.425,84.901,63.175,86.18,54.961,85.822S30.318,76.18,30.318,76.18l7.857-14.286    L45.318,48.322z"
       id="path185" />
    <path
       d="M27.638,42.806l0.074-0.032l-13.663,5.62C7.169,51.531,3.631,59.81,5.759,67.691c2.392,8.863,10.939,14.292,19.053,12.102    c2.577-0.696,4.912-2.121,6.755-4.121c-0.049,0.051,12.006-12.106,12.006-12.106l0.074-0.074l0.038-0.117    c1.902-2.366,2.949-5.342,2.949-8.381c0-7.395-6.016-13.41-13.41-13.41C31.283,41.584,29.403,41.995,27.638,42.806z"
       id="path186" />
    <linearGradient
       id="XMLID_1_"
       gradientUnits="userSpaceOnUse"
       x1="20.8994"
       y1="54.9326"
       x2="33.8516"
       y2="67.603">
      <stop
         offset="0"
         style="stop-color:#FF8CFF"
         id="stop188" />
      <stop
         offset="1"
         style="stop-color:#C000C0"
         id="stop189" />
      
      
      
    </linearGradient>
    <path
       fill="url(#XMLID_1_)"
       d="M42.127,62.122c1.568-1.951,2.508-4.428,2.508-7.128c0-6.302-5.108-11.41-11.41-11.41    c-1.697,0-3.305,0.375-4.752,1.04l-13.663,5.62l0.007,0.012C8.925,52.93,5.772,60.069,7.69,67.169    c2.108,7.811,9.541,12.598,16.602,10.693c2.294-0.62,4.263-1.872,5.806-3.546l12.057-12.158L42.127,62.122z"
       id="path193" />
    <path
       d="M16.134,47.645c-3.69,0.996-6.814,3.445-8.798,6.896c-1.454,2.53-2.202,5.461-2.202,8.449    c0,1.568,0.206,3.152,0.625,4.702c2.392,8.863,10.939,14.292,19.053,12.102c8.113-2.191,12.767-11.184,10.375-20.046    c-1.214-4.5-4.124-8.354-7.982-10.571C23.755,47.192,19.823,46.649,16.134,47.645z"
       id="path194" />
    <linearGradient
       id="XMLID_2_"
       gradientUnits="userSpaceOnUse"
       x1="30.3965"
       y1="72.0542"
       x2="21.7173"
       y2="64.7637">
      <stop
         offset="0"
         style="stop-color:#FF8CFF"
         id="stop196" />
      <stop
         offset="1"
         style="stop-color:#C000C0"
         id="stop197" />
      
      
      
    </linearGradient>
    <path
       fill="url(#XMLID_2_)"
       d="M7.69,67.169c-2.109-7.811,1.905-15.688,8.966-17.594c7.06-1.906,14.492,2.881,16.601,10.692    s-1.905,15.687-8.965,17.594C17.231,79.768,9.798,74.98,7.69,67.169z"
       id="path201" />
    <path
       fill="#BDBDBD"
       d="M10.262,66.475c-1.685-6.239,1.522-12.531,7.162-14.053c5.639-1.523,11.576,2.301,13.26,8.541    s-1.522,12.531-7.161,14.054C17.883,76.538,11.946,72.714,10.262,66.475z"
       id="path202" />
    <g
       opacity="0.8"
       id="g203">
      <path
         fill="#FFFFFF"
         d="M21.675,57.63c2.296-0.62,4.643-0.233,6.661,0.892c-2.223-3.888-6.53-6.01-10.663-4.894     c-5.009,1.352-7.858,6.941-6.361,12.483c0.811,3.001,2.733,5.365,5.118,6.694c-0.471-0.824-0.854-1.723-1.116-2.692     C13.817,64.571,16.666,58.982,21.675,57.63z"
         id="path204" />
    </g>
  </g>
</svg>
