<?xml version="1.0" encoding="UTF-8" standalone="yes"?>
<svg version="1.1" width="64" height="64" color-interpolation="linearRGB"
     xmlns:svg="http://www.w3.org/2000/svg" xmlns="http://www.w3.org/2000/svg">
 <g>
  <path style="fill:none; stroke:#010101; stroke-width:3"
        d="M20 42L24 52C27 56 33 56 36 52C36 52 39.77 43.04 40 42C36 46 25 46 20 42z"
        transform="matrix(1.1503,0,0,1.1503,-1.9054,-1.3649)"
  />
  <linearGradient id="gradient0" gradientUnits="userSpaceOnUse" x1="18" y1="-64" x2="42" y2="-64">
   <stop offset="0" stop-color="#dbc86a"/>
   <stop offset="1" stop-color="#a48900"/>
  </linearGradient>
  <path style="fill:url(#gradient0)"
        d="M21 45L24 52C27 56 33 56 36 52L39 45C35 51 25 51 21 45z"
        transform="matrix(1.1503,0,0,1.1503,-1.9054,-1.3649)"
  />
  <linearGradient id="gradient1" gradientUnits="userSpaceOnUse" x1="22" y1="-64" x2="38" y2="-64">
   <stop offset="0" stop-color="#ffa5ef"/>
   <stop offset="1" stop-color="#ca05a7"/>
  </linearGradient>
  <path style="fill:url(#gradient1)"
        d="M20 42L21 45C25 51 35 51 39 45L40 42C36 46 25 46 20 42z"
        transform="matrix(1.1503,0,0,1.1503,-1.9054,-1.3649)"
  />
  <path style="fill:none; stroke:#010101; stroke-width:3"
        d="M30 24C23.36 24 18 27.53 18 32V37C18 41.39 23.36 45 30 45C36.61 45 42 41.39 42 37V32C42 27.53 36.61 24 30 24z"
        transform="matrix(1.1503,0,0,1.1503,-1.9054,-1.3649)"
  />
  <linearGradient id="gradient2" gradientUnits="userSpaceOnUse" x1="18" y1="-64" x2="42" y2="-64">
   <stop offset="0" stop-color="#dbc86a"/>
   <stop offset="1" stop-color="#a48900"/>
  </linearGradient>
  <path style="fill:url(#gradient2)"
        d="M18 32C18 36.39 23.36 40 30 40C36.61 40 42 36.39 42 32V37C42 41.39 36.61 45 30 45C23.36 45 18 41.39 18 37V32z"
        transform="matrix(1.1503,0,0,1.1503,-1.9054,-1.3649)"
  />
  <radialGradient id="gradient3" gradientUnits="userSpaceOnUse" cx="0" cy="0" r="64" gradientTransform="matrix(-0.25,0,0,-0.2342,37,35)">
   <stop offset="0" stop-color="#a48902"/>
   <stop offset="1" stop-color="#fff1ac"/>
  </radialGradient>
  <path style="fill:url(#gradient3)"
        d="M30 24C23.36 24 18 27.53 18 32C18 36.39 23.36 40 30 40C36.61 40 42 36.39 42 32C42 27.53 36.61 24 30 24z"
        transform="matrix(1.1503,0,0,1.1503,-1.9054,-1.3649)"
  />
  <radialGradient id="gradient4" gradientUnits="userSpaceOnUse" cx="0" cy="0" r="64" gradientTransform="matrix(0.1503,0.0872,-0.0852,0.1469,35.1752,35.6376)">
   <stop offset="0" stop-color="#573402"/>
   <stop offset="1" stop-color="#a26101"/>
  </radialGradient>
  <path style="fill:url(#gradient4)"
        d="M30 26C24.45 26 20 28.64 20 32C20 35.28 24.45 38 30 38C35.5 38 40 35.28 40 32C40 28.64 35.5 26 30 26z"
        transform="matrix(1.1503,0,0,1.1503,-1.9054,-1.3649)"
  />
  <path style="fill:none; stroke:#010101; stroke-width:3; stroke-linejoin:round"
        d="M29 26C26 23 23 23 19 23C15 23 8 25 8 25C8 25 12 16 18 16C24 16 25 19 29 26z
           M29 26C40 16 48 24 47 36C39 33 34 27 29 26z
           M29 26C31 23 34 21 37 17C40 13 38 8 38 8C36 11 31 11 29 14C27 17 28 22 29 26z
           M29 26C25 26 21 31 23 36C29 34 32 30 29 26z"
        transform="matrix(1.1503,0,0,1.1503,-1.9054,-1.3649)"
  />
  <radialGradient id="gradient5" gradientUnits="userSpaceOnUse" cx="0" cy="0" r="64" gradientTransform="matrix(0.2351,0.1405,-0.0742,0.1242,30.1596,27.0328)">
   <stop offset="0" stop-color="#2d593d"/>
   <stop offset="1" stop-color="#43bf75"/>
  </radialGradient>
  <path style="fill:url(#gradient5)"
        d="M29 26C26 23 23 23 19 23C15 23 8 25 8 25C8 25 12 16 18 16C24 16 25 19 29 26z
           M29 26C40 16 48 24 47 36C39 33 34 27 29 26z
           M29 26C31 23 34 21 37 17C40 13 38 8 38 8C36 11 31 11 29 14C27 17 28 22 29 26z
           M29 26C25 26 21 31 23 36C29 34 32 30 29 26z"
        transform="matrix(1.1503,0,0,1.1503,-1.9054,-1.3649)"
  />
  <path style="fill:none; stroke:#010101; stroke-width:2"
        d="M20 11C20 11 27 18 29 25C37 25 44 22 44 22"
        transform="matrix(1.1503,0,0,1.1503,-1.9054,-1.3649)"
  />
  <path style="fill:none; stroke:#010101; stroke-width:4; stroke-linejoin:round"
        d="M29 22L30 17L31 22C31 22 36 19 36 23C36 27 34 29 30 29C26 29 24 27 24 23C24 19 29 22 29 22z"
        transform="matrix(0.5025,1.0347,-1.0347,0.5025,58.8557,-19.3509)"
  />
  <path style="fill:none; stroke:#010101; stroke-width:4; stroke-linejoin:round"
        d="M29 22L30 17L31 22C31 22 36 19 36 23C36 27 34 29 30 29C26 29 24 27 24 23C24 19 29 22 29 22z"
        transform="matrix(0.9418,-0.6604,0.6604,0.9418,-24.6453,5.9908)"
  />
  <radialGradient id="gradient6" gradientUnits="userSpaceOnUse" cx="0" cy="0" r="64" gradientTransform="matrix(0.0625,0,0,0.1405,30,20)">
   <stop offset="0" stop-color="#fff159"/>
   <stop offset="0.8235" stop-color="#ff0606"/>
   <stop offset="1" stop-color="#d80505"/>
  </radialGradient>
  <path style="fill:url(#gradient6)"
        d="M29 22L30 17L31 22C31 22 36 19 36 23C36 27 34 29 30 29C26 29 24 27 24 23C24 19 29 22 29 22z"
        transform="matrix(0.9418,-0.6604,0.6604,0.9418,-24.6453,5.9908)"
  />
  <radialGradient id="gradient7" gradientUnits="userSpaceOnUse" cx="0" cy="0" r="64" gradientTransform="matrix(0.0625,0,0,0.1405,30,20)">
   <stop offset="0" stop-color="#fff159"/>
   <stop offset="0.8235" stop-color="#ff0606"/>
   <stop offset="1" stop-color="#d80505"/>
  </radialGradient>
  <path style="fill:url(#gradient7)"
        d="M29 22L30 17L31 22C31 22 36 19 36 23C36 27 34 29 30 29C26 29 24 27 24 23C24 19 29 22 29 22z"
        transform="matrix(0.5025,1.0347,-1.0347,0.5025,58.8557,-19.3509)"
  />
  <path style="fill:none; stroke:#010101; stroke-width:4; stroke-linejoin:round"
        d="M29 45C29 45 23 41 23 47L24 49C24 49 28 50 30 48C30 48 27 49 24 52L26 54C26 54 30 52 30 48C30 52 34 54 34 54L36 52C34 49 30 48 30 48C32 50 36 49 36 49L37 47C37 41 31 45 31 45H29z"
        transform="matrix(1.1503,0,0,1.1503,-1.9054,-1.3649)"
  />
  <radialGradient id="gradient8" gradientUnits="userSpaceOnUse" cx="0" cy="0" r="64" gradientTransform="matrix(0.0781,0,0,0.0625,30,47)">
   <stop offset="0" stop-color="#ca05a7"/>
   <stop offset="1" stop-color="#ffa5ef"/>
  </radialGradient>
  <path style="fill:url(#gradient8)"
        d="M29 45C29 45 23 41 23 47L24 49C24 49 28 50 30 48C30 48 27 49 24 52L26 54C26 54 30 52 30 48C30 52 34 54 34 54L36 52C34 49 30 48 30 48C32 50 36 49 36 49L37 47C37 41 31 45 31 45H29z"
        transform="matrix(1.1503,0,0,1.1503,-1.9054,-1.3649)"
  />
 </g>
</svg>
