<?xml version="1.0" encoding="UTF-8" standalone="no"?>
<svg
   xmlns:dc="http://purl.org/dc/elements/1.1/"
   xmlns:cc="http://creativecommons.org/ns#"
   xmlns:rdf="http://www.w3.org/1999/02/22-rdf-syntax-ns#"
   xmlns:svg="http://www.w3.org/2000/svg"
   xmlns="http://www.w3.org/2000/svg"
   xmlns:sodipodi="http://sodipodi.sourceforge.net/DTD/sodipodi-0.dtd"
   xmlns:inkscape="http://www.inkscape.org/namespaces/inkscape"
   version="1.1"
   width="64"
   height="64"
   color-interpolation="linearRGB"
   id="svg2"
   sodipodi:version="0.32"
   inkscape:version="0.46"
   sodipodi:docname="document-save.svg"
   inkscape:output_extension="org.inkscape.output.svg.inkscape">
  <metadata
     id="metadata36">
    <rdf:RDF>
      <cc:Work
         rdf:about="">
        <dc:format>image/svg+xml</dc:format>
        <dc:type
           rdf:resource="http://purl.org/dc/dcmitype/StillImage" />
      </cc:Work>
    </rdf:RDF>
  </metadata>
  <defs
     id="defs34">
    <inkscape:perspective
       sodipodi:type="inkscape:persp3d"
       inkscape:vp_x="0 : 32 : 1"
       inkscape:vp_y="0 : 1000 : 0"
       inkscape:vp_z="64 : 32 : 1"
       inkscape:persp3d-origin="32 : 21.333333 : 1"
       id="perspective38" />
  </defs>
  <sodipodi:namedview
     inkscape:window-height="667"
     inkscape:window-width="640"
     inkscape:pageshadow="2"
     inkscape:pageopacity="0.0"
     guidetolerance="10.0"
     gridtolerance="10.0"
     objecttolerance="10.0"
     borderopacity="1.0"
     bordercolor="#666666"
     pagecolor="#ffffff"
     id="base"
     showgrid="false"
     inkscape:zoom="7.28125"
     inkscape:cx="26.33398"
     inkscape:cy="39.690987"
     inkscape:window-x="0"
     inkscape:window-y="24"
     inkscape:current-layer="svg2" />
  <g
     id="g4"
     transform="matrix(2.0889026,0,0,2.0889026,3.1587984,-65.059473)">
    <path
       style="fill:none;stroke:#000000;stroke-width:4;stroke-linejoin:round"
       d="M 2,38 L 2,58 L 22,58 L 22,38 L 2,38 z"
       id="path6" />
    <linearGradient
       id="gradient0"
       gradientUnits="userSpaceOnUse"
       x1="32.950001"
       y1="22.290001"
       x2="47.529999"
       y2="46.099998">
      <stop
         offset="0"
         stop-color="#5c64f5"
         id="stop9" />
      <stop
         offset="1"
         stop-color="#2905c3"
         id="stop11" />
    </linearGradient>
    <path
       style="fill:url(#gradient0)"
       d="M 2,38 L 2,58 L 22,58 L 22,38 L 2,38 z"
       id="path13" />
    <path
       style="fill:#f1f1f1"
       d="M 4,38 L 4,46 C 4,47 6,48 6,48 C 5,48 19,48 19,48 L 19,38 L 4,38 z"
       id="path15" />
    <path
       style="fill:none;stroke:#000000;stroke-width:4;stroke-linejoin:round"
       d="M 14,36 L 14,46 L 24,46 L 21,43 L 26,38 L 22,34 L 17,39 L 14,36 z"
       id="path17" />
    <linearGradient
       id="gradient1"
       gradientUnits="userSpaceOnUse"
       x1="34.200001"
       y1="14.38"
       x2="45.540001"
       y2="25.66">
      <stop
         offset="0"
         stop-color="#adff89"
         id="stop20" />
      <stop
         offset="1"
         stop-color="#21ce21"
         id="stop22" />
    </linearGradient>
    <path
       style="fill:url(#gradient1)"
       d="M 14,36 L 14,46 L 24,46 L 21,43 L 26,38 L 22,34 L 17,39 L 14,36 z"
       id="path24" />
    <linearGradient
       id="gradient2"
       gradientUnits="userSpaceOnUse"
       x1="35.209999"
       y1="27.65"
       x2="45.419998"
       y2="41.200001">
      <stop
         offset="0"
         stop-color="#9c9c9c"
         id="stop27" />
      <stop
         offset="1"
         stop-color="#cccccc"
         id="stop29" />
    </linearGradient>
    <path
       style="fill:url(#gradient2)"
       d="M 4,58 L 4,52 L 5,50 L 17,50 L 18,52 L 18,58 L 11.99,58 L 12,53 L 8,53 L 7.99,58 L 4,58 z"
       id="path31" />
  </g>
  <rect
     style="opacity:1;fill:#ffffff;fill-opacity:1;stroke:#200000;stroke-opacity:1"
     id="rect2394"
     width="41.201702"
     height="17.44207"
     x="3.0214593"
     y="3.9828327" />
  <rect
     style="opacity:1;fill:#000000;fill-opacity:1;stroke:#200000;stroke-width:0.94429362;stroke-opacity:1"
     id="rect2396"
     width="1.4290973"
     height="12.828239"
     x="28.676008"
     y="6.2897434" />
  <rect
     style="opacity:1;fill:#e6e6e6;fill-opacity:1;stroke:#e6e6e6;stroke-width:0.92856365;stroke-opacity:1"
     id="rect2414"
     width="21.908348"
     height="12.157273"
     x="4.7711492"
     y="6.5565567"
     ry="1.2983496" />
</svg>
