<?xml version="1.0" encoding="UTF-8" standalone="no"?>
<!-- Created with Inkscape (http://www.inkscape.org/) -->
<svg
   xmlns:dc="http://purl.org/dc/elements/1.1/"
   xmlns:cc="http://creativecommons.org/ns#"
   xmlns:rdf="http://www.w3.org/1999/02/22-rdf-syntax-ns#"
   xmlns:svg="http://www.w3.org/2000/svg"
   xmlns="http://www.w3.org/2000/svg"
   xmlns:xlink="http://www.w3.org/1999/xlink"
   xmlns:sodipodi="http://sodipodi.sourceforge.net/DTD/sodipodi-0.dtd"
   xmlns:inkscape="http://www.inkscape.org/namespaces/inkscape"
   inkscape:export-ydpi="90.000000"
   inkscape:export-xdpi="90.000000"
   inkscape:export-filename="/home/jimmac/src/cvs/gnome/gnome-icon-theme/22x22/actions/edit-undo.png"
   width="48"
   height="48"
   id="svg11300"
   sodipodi:version="0.32"
   inkscape:version="0.46"
   sodipodi:docbase="/home/dobey/Projects/gnome-icon-theme/scalable/actions"
   sodipodi:docname="edit-undo.svg"
   version="1.0"
   inkscape:output_extension="org.inkscape.output.svg.inkscape">
  <defs
     id="defs3">
    <inkscape:perspective
       sodipodi:type="inkscape:persp3d"
       inkscape:vp_x="0 : 24 : 1"
       inkscape:vp_y="0 : 1000 : 0"
       inkscape:vp_z="48 : 24 : 1"
       inkscape:persp3d-origin="24 : 16 : 1"
       id="perspective28" />
    <linearGradient
       id="linearGradient2790">
      <stop
         id="stop2792"
         offset="0"
         style="stop-color:#edd400;stop-opacity:1" />
      <stop
         id="stop2794"
         offset="1"
         style="stop-color:#fce94f;stop-opacity:1" />
    </linearGradient>
    <linearGradient
       inkscape:collect="always"
       id="linearGradient5132">
      <stop
         style="stop-color:white;stop-opacity:1;"
         offset="0"
         id="stop5134" />
      <stop
         style="stop-color:white;stop-opacity:0;"
         offset="1"
         id="stop5136" />
    </linearGradient>
    <linearGradient
       inkscape:collect="always"
       xlink:href="#linearGradient5132"
       id="linearGradient2786"
       gradientUnits="userSpaceOnUse"
       x1="21.67729"
       y1="29.705048"
       x2="18.072493"
       y2="55.692348" />
    <linearGradient
       gradientUnits="userSpaceOnUse"
       y2="52.257511"
       x2="30.695278"
       y1="47.019314"
       x1="30.695278"
       id="linearGradient3170"
       xlink:href="#gradient0"
       inkscape:collect="always"
       gradientTransform="translate(-25.195279,-0.6754293)" />
    <inkscape:perspective
       id="perspective35"
       inkscape:persp3d-origin="32 : 21.333333 : 1"
       inkscape:vp_z="64 : 32 : 1"
       inkscape:vp_y="0 : 1000 : 0"
       inkscape:vp_x="0 : 32 : 1"
       sodipodi:type="inkscape:persp3d" />
    <linearGradient
       inkscape:collect="always"
       xlink:href="#gradient0"
       id="linearGradient3223"
       x1="7.8910675"
       y1="23.499998"
       x2="43"
       y2="23.499998"
       gradientUnits="userSpaceOnUse" />
    <linearGradient
       inkscape:collect="always"
       xlink:href="#gradient0"
       id="linearGradient3231"
       x1="8.8637438"
       y1="17.32155"
       x2="41.660229"
       y2="17.32155"
       gradientUnits="userSpaceOnUse" />
  </defs>
  <sodipodi:namedview
     stroke="#c4a000"
     fill="#edd400"
     id="base"
     pagecolor="#ffffff"
     bordercolor="#666"
     borderopacity="1"
     inkscape:pageopacity="0.0"
     inkscape:pageshadow="2"
     inkscape:zoom="8"
     inkscape:cx="19.395641"
     inkscape:cy="18.940005"
     inkscape:current-layer="layer1"
     showgrid="false"
     inkscape:grid-bbox="false"
     inkscape:document-units="px"
     inkscape:showpageshadow="false"
     inkscape:window-width="674"
     inkscape:window-height="667"
     inkscape:window-x="296"
     inkscape:window-y="200"
     width="48px"
     height="48px"
     showborder="false" />
  <metadata
     id="metadata4">
    <rdf:RDF>
      <cc:Work
         rdf:about="">
        <dc:format>image/svg+xml</dc:format>
        <dc:type
           rdf:resource="http://purl.org/dc/dcmitype/StillImage" />
        <dc:creator>
          <cc:Agent>
            <dc:title>Jakub Steiner</dc:title>
          </cc:Agent>
        </dc:creator>
        <dc:source>http://jimmac.musichall.cz</dc:source>
        <cc:license
           rdf:resource="http://creativecommons.org/licenses/GPL/2.0/" />
        <dc:title>Edit Undo</dc:title>
        <dc:subject>
          <rdf:Bag>
            <rdf:li>edit</rdf:li>
            <rdf:li>undo</rdf:li>
            <rdf:li>revert</rdf:li>
          </rdf:Bag>
        </dc:subject>
        <dc:contributor>
          <cc:Agent>
            <dc:title>Andreas Nilsson
Lapo Calamandrei</dc:title>
          </cc:Agent>
        </dc:contributor>
      </cc:Work>
      <cc:License
         rdf:about="http://creativecommons.org/licenses/GPL/2.0/">
        <cc:permits
           rdf:resource="http://web.resource.org/cc/Reproduction" />
        <cc:permits
           rdf:resource="http://web.resource.org/cc/Distribution" />
        <cc:requires
           rdf:resource="http://web.resource.org/cc/Notice" />
        <cc:permits
           rdf:resource="http://web.resource.org/cc/DerivativeWorks" />
        <cc:requires
           rdf:resource="http://web.resource.org/cc/ShareAlike" />
        <cc:requires
           rdf:resource="http://web.resource.org/cc/SourceCode" />
      </cc:License>
    </rdf:RDF>
  </metadata>
  <g
     id="layer1"
     inkscape:label="Layer 1"
     inkscape:groupmode="layer">
    <g
       id="g2776"
       transform="matrix(-1,0,0,1,45.9611,0)"
       style="fill:#ffcc00">
      <path
         sodipodi:nodetypes="ccccccss"
         id="path1432"
         d="M 17.424821,41.893434 C 0.283744,32.442251 9.935604,12.409146 26.422371,12.56649 L 26.422371,4.4999994 L 42.5,18.558177 L 26.422371,33.301549 C 26.422371,33.301549 26.422371,24.572517 26.422371,24.572517 C 16.187754,24.157353 11.680698,31.839537 20.650045,37.935965 C 23.217139,39.680812 21.438823,44.106661 17.424821,41.893434 z "
         style="opacity:1;color:black;fill:url(#linearGradient3223);fill-opacity:1.0;fill-rule:nonzero;stroke:#c4a000;stroke-width:0.99999886999999998;stroke-linecap:butt;stroke-linejoin:miter;marker:none;marker-start:none;marker-mid:none;marker-end:none;stroke-miterlimit:4;stroke-dasharray:none;stroke-dashoffset:0;stroke-opacity:1;visibility:visible;display:block;overflow:visible" />
      <path
         sodipodi:nodetypes="ccccc"
         id="path4920"
         d="M 41.660227,18.605336 C 23.110128,15.475328 12.765166,20.754837 8.865084,29.04107 C 8.711319,16.398198 21.828491,12.721185 26.954933,13.108518 L 26.939308,5.6020321 L 41.660227,18.605336 z "
         style="opacity:0.45000000000000001;fill:url(#linearGradient3231);fill-opacity:1.0;fill-rule:evenodd;stroke:none;stroke-width:1px;stroke-linecap:butt;stroke-linejoin:miter;stroke-opacity:1" />
    </g>
    <path
       style="opacity:1;fill:#000000;fill-opacity:1;stroke:#200000;stroke-width:0.125;stroke-opacity:1"
       d="M 25.770877,42.842951 C 23.752011,42.370576 23.007671,39.655787 24.47245,38.107253 C 24.636459,37.933868 25.225886,37.445867 25.782297,37.022801 C 28.545539,34.921778 29.979374,32.386498 29.591986,30.286586 C 29.084596,27.536168 26.347699,25.638505 22.145641,25.123562 C 21.526891,25.04774 20.782264,24.985541 20.490912,24.985347 L 19.961185,24.984995 L 19.92841,29.606653 L 19.895641,34.228311 L 11.770641,26.786653 C 7.3018911,22.693743 3.4594836,19.161277 3.2319586,18.93673 L 2.8182711,18.52846 L 11.35696,11.057726 L 19.895641,3.5869882 L 19.928501,7.823842 L 19.961369,12.060693 L 21.534084,12.2167 C 29.560645,13.012902 35.906941,18.244756 37.67743,25.525188 C 38.01823,26.926607 37.980222,30.443146 37.609072,31.849312 C 37.234731,33.267562 36.523375,34.841772 35.64977,36.185171 C 33.868971,38.923621 29.529981,42.356636 27.233239,42.844337 C 26.484036,43.003422 26.45663,43.0034 25.770881,42.842948 L 25.770877,42.842951 z M 28.389301,41.430681 C 31.817546,39.513497 34.409429,36.967602 35.778595,34.172495 C 36.081682,33.553745 36.481072,32.541245 36.66612,31.922495 C 36.971717,30.900663 37.00339,30.602621 37.0115,28.672495 C 37.019665,26.729196 36.990351,26.432082 36.668664,25.197747 C 35.786475,21.812745 34.15983,19.354383 31.274336,17.045262 C 28.27703,14.646665 24.77402,13.333548 20.583141,13.037635 C 19.930016,12.991516 19.325329,12.897671 19.239391,12.829085 C 19.120972,12.734576 19.083141,11.843021 19.083141,9.146772 C 19.083141,6.9784157 19.037224,5.605432 18.965557,5.6308282 C 18.763111,5.702567 4.2076674,18.481766 4.2169311,18.579636 C 4.2273774,18.689986 18.785882,32.028633 18.961944,32.089161 C 19.038492,32.11548 19.083141,30.708601 19.083141,28.270411 C 19.083141,25.434532 19.12295,24.370186 19.233141,24.259995 C 19.419526,24.073607 21.022671,24.062406 22.420834,24.237721 C 25.496512,24.623381 28.072649,25.876506 29.388591,27.627096 C 30.206846,28.715621 30.494596,29.564546 30.505585,30.922495 C 30.512564,31.785391 30.448059,32.242338 30.228701,32.8838 C 29.678282,34.493372 28.254071,36.263473 26.319654,37.742216 C 25.796611,38.142047 25.222286,38.64315 25.043377,38.855771 C 24.447274,39.564203 24.448705,40.657491 25.04667,41.368132 C 25.495655,41.901721 25.760522,41.991827 26.727227,41.939838 C 27.404972,41.903391 27.71245,41.809197 28.3893,41.430682 L 28.389301,41.430681 z"
       id="path2401" />
    <g
       id="g4"
       transform="matrix(1,0,0,-1,-25.195279,56.314571)">
      <linearGradient
         id="gradient0"
         gradientUnits="userSpaceOnUse"
         x1="38.700001"
         y1="-24.700001"
         x2="56.68"
         y2="-18.549999">
        <stop
           offset="0"
           stop-color="#ffd789"
           id="stop17" />
        <stop
           offset="1"
           stop-color="#e08606"
           id="stop19" />
      </linearGradient>
      <linearGradient
         id="gradient1"
         gradientUnits="userSpaceOnUse"
         x1="59.509998"
         y1="-20.74"
         x2="87.120003"
         y2="7.0100002">
        <stop
           offset="0"
           stop-color="#ffbf44"
           id="stop24" />
        <stop
           offset="1"
           stop-color="#ff9806"
           id="stop26" />
      </linearGradient>
    </g>
  </g>
</svg>
