<?xml version="1.0" encoding="UTF-8" standalone="yes"?>
<svg version="1.1" width="64" height="64" color-interpolation="linearRGB"
     xmlns:svg="http://www.w3.org/2000/svg" xmlns="http://www.w3.org/2000/svg">
 <g>
  <path style="fill:#010101; fill-opacity:0.3568"
        d="M32 16C23.15 16 16 23.15 16 32C16 40.83 23.15 48 32 48C40.83 48 48 40.83 48 32C48 23.15 40.83 16 32 16z"
        transform="matrix(1.5937,0,0,0.6875,-12.5,29)"
  />
  <path style="fill:none; stroke:#010101; stroke-width:3; stroke-linecap:round; stroke-linejoin:round"
        d="M27 26C27 26 18 41 16.54 36.25C15.72 33.56 11.64 37.63 10 35C8.66 32.86 14.96 28.5 12 29C6 30 22 20 22 20C22 20 6 27 8.86 23.6C10.5 21.66 4.53 22.72 5 20C5.24 18.5 10.07 16.78 8.22 16.84C3 17 23 16 23 16C23 16 21 15 17 13C16.34 12.66 15.39 11.68 15.95 11.57C19 11 16.51 9.08 17 9C18.76 8.63 18.86 10.08 21 9C22.26 8.35 25 10 27 10C29.14 10 30 13 30 13C30 13 27 7 39 12C40.94 12.8 38 15 38 15C38 15 55.6 15.31 51 17C49.32 17.6 54 17.88 54 20C54 20.46 51.43 19.97 52.23 20.67C56 24 41 19 41 19C41 19 59 28 53.32 27.8C50.82 27.71 55.89 31.5 55 33C53.76 35.03 48.92 31.62 49.21 34.17C50 41 37 25 37 25C37 25 43 39 38 38C35.86 37.56 38 41.69 35 42C31.83 42.31 31.49 36 30 38C27 42 27 26 27 26z
           M12 22C12 22 5 31 9 44C11.98 53.68 19 61 26 61C48.08 61 51 34 51 34C51 34 51 15 33 13C14 10.88 12 22 12 22z
           M28 18C28 18 28.56 15.12 31 11C33.55 6.62 40 2 40 2C40 2 41 1 43 3C44.16 4.16 42 6 42 6C42 6 38.19 10.24 36 13C32 18 33 20 33 20C33 20 32 21 30 21C26 21 28 18 28 18z"
  />
  <radialGradient id="gradient0" gradientUnits="userSpaceOnUse" cx="0" cy="0" r="64" gradientTransform="matrix(0.6875,0,0,0.6093,14,29)">
   <stop offset="0" stop-color="#ffffff"/>
   <stop offset="0.4313" stop-color="#ff7373"/>
   <stop offset="1" stop-color="#ff0000"/>
  </radialGradient>
  <path style="fill:url(#gradient0)"
        d="M12 22C12 22 5 31 9 44C11.98 53.68 19 61 26 61C48.08 61 51 34 51 34C51 34 51 15 33 13C14 10.88 12 22 12 22z"
  />
  <radialGradient id="gradient1" gradientUnits="userSpaceOnUse" cx="0" cy="0" r="64" gradientTransform="matrix(0.4062,0,0,0.4687,11,32)">
   <stop offset="0" stop-color="#ff8282"/>
   <stop offset="1" stop-color="#7f0000"/>
  </radialGradient>
  <path style="fill:url(#gradient1)"
        d="M22 36C22 36 20.95 36.07 20 38C19 40 21 41 21 41C21 41 23 40 23 38C23 36.71 22 36 22 36z
           M15 44C15 44 14 44 14 45C14 45.69 15 47 15 47C15 47 16 47 16 46C16 44 15 44 15 44z
           M14 50C14 50 15 50 16 51C17 52 18 54 18 54C18 54 16.03 53.03 15 52C14.03 51.03 14 50 14 50z
           M23 55C23 55 23 54 24 54C25 54 26 55 26 55C26 55 26 56 24 56C23.31 56 23 55 23 55z
           M35 48C35 48 36 48 36 50C36 52 35 52 35 52C35 52 34 53 34 50C34 49 35 48 35 48z
           M44 45C44 45 42.24 45.98 42 47C41.75 47.97 43 49 43 49C43 49 44 49 45 46C45.29 45.09 44 45 44 45z
           M46 34C46 34 45 35 46 37C46.43 37.86 47 38 47 38C47 38 48 37 47 35C46.53 34.08 46 34 46 34z
           M10 38C10 38 9.52 38.3 9 39C8.46 39.68 9 43 9 43C9 43 9.76 43.12 10 42C10.26 40.64 10 38 10 38z
           M28 43C28 43 26 43.91 26 45C26 47 28 47 28 47C28 47 29 48 29 45C29 42.75 28 43 28 43z
           M34 58C34 58 33.87 56.83 35 56C35.84 55.36 38 56 38 56C38 56 37.08 57.45 36 58C35.1 58.44 34 58 34 58z"
  />
  <path style="fill:#010101; fill-opacity:0.647"
        d="M27 26C27 26 18 41 16.54 36.25C15.72 33.56 11.64 37.63 10 35C8.66 32.86 14.96 28.5 12 29C6 30 22 20 22 20C22 20 6 27 8.86 23.6C10.5 21.66 4.53 22.72 5 20C5.24 18.5 10.07 16.78 8.22 16.84C3 17 23 16 23 16C23 16 21 15 17 13C16.34 12.66 15.39 11.68 15.95 11.57C19 11 16.51 9.08 17 9C18.76 8.63 18.86 10.08 21 9C22.26 8.35 25 10 27 10C29.14 10 30 13 30 13C30 13 27 7 39 12C40.94 12.8 38 15 38 15C38 15 55.6 15.31 51 17C49.32 17.6 54 17.88 54 20C54 20.46 51.43 19.97 52.23 20.67C56 24 41 19 41 19C41 19 59 28 53.32 27.8C50.82 27.71 55.89 31.5 55 33C53.76 35.03 48.92 31.62 49.21 34.17C50 41 37 25 37 25C37 25 43 39 38 38C35.86 37.56 38 41.69 35 42C31.83 42.31 31.49 36 30 38C27 42 27 26 27 26z"
        transform="matrix(0.9801,0,0,1,1.0973,2)"
  />
  <radialGradient id="gradient2" gradientUnits="userSpaceOnUse" cx="0" cy="0" r="64" gradientTransform="matrix(0.3082,0.3933,-0.4761,0.3732,20.9724,8.5014)">
   <stop offset="0" stop-color="#9aff82"/>
   <stop offset="0.4" stop-color="#29c505"/>
   <stop offset="0.847" stop-color="#1a7d03"/>
   <stop offset="1" stop-color="#197703"/>
  </radialGradient>
  <path style="fill:url(#gradient2)"
        d="M27 26C27 26 18 41 16.54 36.25C15.72 33.56 11.64 37.63 10 35C8.66 32.86 14.96 28.5 12 29C6 30 22 20 22 20C22 20 6 27 8.86 23.6C10.5 21.66 4.53 22.72 5 20C5.24 18.5 10.07 16.78 8.22 16.84C3 17 23 16 23 16C23 16 21 15 17 13C16.34 12.66 15.39 11.68 15.95 11.57C19 11 16.51 9.08 17 9C18.76 8.63 18.86 10.08 21 9C22.26 8.35 25 10 27 10C29.14 10 30 13 30 13C30 13 27 7 39 12C40.94 12.8 38 15 38 15C38 15 55.6 15.31 51 17C49.32 17.6 54 17.88 54 20C54 20.46 51.43 19.97 52.23 20.67C56 24 41 19 41 19C41 19 59 28 53.32 27.8C50.82 27.71 55.89 31.5 55 33C53.76 35.03 48.92 31.62 49.21 34.17C50 41 37 25 37 25C37 25 43 39 38 38C35.86 37.56 38 41.69 35 42C31.83 42.31 31.49 36 30 38C27 42 27 26 27 26z"
  />
  <path style="fill:#010101; fill-opacity:0.3568"
        d="M28 19C28 19 35.27 18.71 40 19C43.62 19.2 46 20 46 20C46 20 48 20.32 48 19C48 17.83 47 17 47 17C47 17 43.71 14.27 39 14C35.36 13.78 29 17 29 17L28 19z"
        transform="matrix(0.9801,0,0,1,1.0973,2)"
  />
  <linearGradient id="gradient3" gradientUnits="userSpaceOnUse" x1="43.44" y1="-10.18" x2="51.68" y2="-4.57">
   <stop offset="0" stop-color="#d7ff89"/>
   <stop offset="1" stop-color="#187f00"/>
  </linearGradient>
  <path style="fill:url(#gradient3)"
        d="M28 18C28 18 28.56 15.12 31 11C33.55 6.62 40 2 40 2C40 2 41 1 43 3C44.16 4.16 42 6 42 6C42 6 38.19 10.24 36 13C32 18 33 20 33 20C33 20 32 21 30 21C26 21 28 18 28 18z"
  />
 </g>
</svg>
