<?xml version="1.0" encoding="UTF-8" standalone="no"?>
<svg
   xmlns:dc="http://purl.org/dc/elements/1.1/"
   xmlns:cc="http://creativecommons.org/ns#"
   xmlns:rdf="http://www.w3.org/1999/02/22-rdf-syntax-ns#"
   xmlns:svg="http://www.w3.org/2000/svg"
   xmlns="http://www.w3.org/2000/svg"
   xmlns:xlink="http://www.w3.org/1999/xlink"
   xmlns:sodipodi="http://sodipodi.sourceforge.net/DTD/sodipodi-0.dtd"
   xmlns:inkscape="http://www.inkscape.org/namespaces/inkscape"
   version="1.1"
   width="64"
   height="64"
   color-interpolation="linearRGB"
   id="svg2"
   sodipodi:version="0.32"
   inkscape:version="0.46"
   sodipodi:docname="go-bottom.svg"
   inkscape:output_extension="org.inkscape.output.svg.inkscape">
  <metadata
     id="metadata33">
    <rdf:RDF>
      <cc:Work
         rdf:about="">
        <dc:format>image/svg+xml</dc:format>
        <dc:type
           rdf:resource="http://purl.org/dc/dcmitype/StillImage" />
      </cc:Work>
    </rdf:RDF>
  </metadata>
  <defs
     id="defs31">
    <inkscape:perspective
       sodipodi:type="inkscape:persp3d"
       inkscape:vp_x="0 : 32 : 1"
       inkscape:vp_y="0 : 1000 : 0"
       inkscape:vp_z="64 : 32 : 1"
       inkscape:persp3d-origin="32 : 21.333333 : 1"
       id="perspective35" />
    <linearGradient
       inkscape:collect="always"
       xlink:href="#gradient0"
       id="linearGradient3170"
       x1="30.695278"
       y1="47.019314"
       x2="30.695278"
       y2="52.257511"
       gradientUnits="userSpaceOnUse"
       gradientTransform="translate(0,-64.100859)" />
    <linearGradient
       inkscape:collect="always"
       xlink:href="#gradient0"
       id="linearGradient2394"
       gradientUnits="userSpaceOnUse"
       x1="38.700001"
       y1="-24.700001"
       x2="56.68"
       y2="-18.549999" />
  </defs>
  <sodipodi:namedview
     inkscape:window-height="667"
     inkscape:window-width="674"
     inkscape:pageshadow="2"
     inkscape:pageopacity="0.0"
     guidetolerance="10.0"
     gridtolerance="10.0"
     objecttolerance="10.0"
     borderopacity="1.0"
     bordercolor="#666666"
     pagecolor="#ffffff"
     id="base"
     showgrid="false"
     inkscape:zoom="7.28125"
     inkscape:cx="38.025067"
     inkscape:cy="32"
     inkscape:window-x="62"
     inkscape:window-y="41"
     inkscape:current-layer="svg2" />
  <g
     id="g4"
     transform="translate(0,7.1108587)">
    <path
       style="fill:#010101;fill-opacity:0.29010004"
       d="M 30.99,13 L 45,27.99 L 38,27.99 L 38,43.99 L 24,43.99 L 24,27.99 L 17,27.99 L 30.99,13 z"
       transform="translate(3,1)"
       id="path6" />
    <path
       style="fill:#010101;fill-opacity:0.29010004"
       d="M 30.99,13 L 45,27.99 L 38,27.99 L 38,43.99 L 24,43.99 L 24,27.99 L 17,27.99 L 30.99,13 z"
       transform="translate(3,1)"
       id="path8" />
    <path
       style="fill:#010101;fill-opacity:0.29010004"
       d="M 30.99,13 L 45,27.99 L 38,27.99 L 38,43.99 L 24,43.99 L 24,27.99 L 17,27.99 L 30.99,13 z"
       transform="translate(3,1)"
       id="path10" />
    <path
       style="fill:#010101;fill-opacity:0.29010004"
       d="M 30.99,13 L 45,27.99 L 38,27.99 L 38,43.99 L 24,43.99 L 24,27.99 L 17,27.99 L 30.99,13 z"
       transform="translate(3,1)"
       id="path12" />
    <path
       style="fill:none;stroke:#000000;stroke-width:4"
       d="M 30.99,13 L 45,27.99 L 38,27.99 L 38,43.99 L 24,43.99 L 24,27.99 L 17,27.99 L 30.99,13 z"
       id="path14" />
    <linearGradient
       id="gradient0"
       gradientUnits="userSpaceOnUse"
       x1="38.700001"
       y1="-24.700001"
       x2="56.68"
       y2="-18.549999">
      <stop
         offset="0"
         stop-color="#ffd789"
         id="stop17" />
      <stop
         offset="1"
         stop-color="#e08606"
         id="stop19" />
    </linearGradient>
    <path
       style="fill:url(#linearGradient2394)"
       d="M 30.99,13 L 45,27.99 L 38,27.99 L 38,43.99 L 24,43.99 L 24,27.99 L 17,27.99 L 30.99,13 z"
       id="path21" />
    <linearGradient
       id="gradient1"
       gradientUnits="userSpaceOnUse"
       x1="59.509998"
       y1="-20.74"
       x2="87.120003"
       y2="7.0100002">
      <stop
         offset="0"
         stop-color="#ffbf44"
         id="stop24" />
      <stop
         offset="1"
         stop-color="#ff9806"
         id="stop26" />
    </linearGradient>
    <path
       style="fill:url(#gradient1)"
       d="M 30.99,13 L 45,27.99 L 38,27.99 L 38,43.99 L 24,43.99 L 24,27.99 L 17,27.99 L 30.99,13 z"
       id="path28" />
  </g>
  <rect
     style="opacity:1;fill:url(#linearGradient3170);fill-opacity:1;stroke:#000000;stroke-opacity:1"
     id="rect2392"
     width="36.669529"
     height="5.0815449"
     x="12.360515"
     y="-16.581545"
     transform="scale(1,-1)" />
</svg>
