<?xml version="1.0" encoding="UTF-8" standalone="no"?>
<svg
   xmlns:dc="http://purl.org/dc/elements/1.1/"
   xmlns:cc="http://creativecommons.org/ns#"
   xmlns:rdf="http://www.w3.org/1999/02/22-rdf-syntax-ns#"
   xmlns:svg="http://www.w3.org/2000/svg"
   xmlns="http://www.w3.org/2000/svg"
   xmlns:sodipodi="http://sodipodi.sourceforge.net/DTD/sodipodi-0.dtd"
   xmlns:inkscape="http://www.inkscape.org/namespaces/inkscape"
   version="1.1"
   width="64"
   height="64"
   color-interpolation="linearRGB"
   id="svg2"
   sodipodi:version="0.32"
   inkscape:version="0.46"
   sodipodi:docname="misc-window"
   inkscape:output_extension="org.inkscape.output.svg.inkscape">
  <metadata
     id="metadata41">
    <rdf:RDF>
      <cc:Work
         rdf:about="">
        <dc:format>image/svg+xml</dc:format>
        <dc:type
           rdf:resource="http://purl.org/dc/dcmitype/StillImage" />
      </cc:Work>
    </rdf:RDF>
  </metadata>
  <defs
     id="defs39">
    <inkscape:perspective
       sodipodi:type="inkscape:persp3d"
       inkscape:vp_x="0 : 32 : 1"
       inkscape:vp_y="0 : 1000 : 0"
       inkscape:vp_z="64 : 32 : 1"
       inkscape:persp3d-origin="32 : 21.333333 : 1"
       id="perspective43" />
    <inkscape:perspective
       id="perspective35"
       inkscape:persp3d-origin="32 : 21.333333 : 1"
       inkscape:vp_z="64 : 32 : 1"
       inkscape:vp_y="0 : 1000 : 0"
       inkscape:vp_x="0 : 32 : 1"
       sodipodi:type="inkscape:persp3d" />
  </defs>
  <sodipodi:namedview
     inkscape:window-height="667"
     inkscape:window-width="640"
     inkscape:pageshadow="2"
     inkscape:pageopacity="0.0"
     guidetolerance="10.0"
     gridtolerance="10.0"
     objecttolerance="10.0"
     borderopacity="1.0"
     bordercolor="#666666"
     pagecolor="#ffffff"
     id="base"
     showgrid="false"
     inkscape:zoom="7.28125"
     inkscape:cx="32"
     inkscape:cy="30.351931"
     inkscape:window-x="511"
     inkscape:window-y="76"
     inkscape:current-layer="svg2" />
  <g
     id="g4"
     transform="matrix(1.2186214,0,0,1.2186214,-21.265131,1.2921082)">
    <path
       style="fill:none;stroke:#000000;stroke-width:4"
       d="M 22,34 L 54,48 L 54,17 L 38,13 L 38,7 L 22,3 L 22,34 z"
       id="path6" />
    <linearGradient
       id="gradient0"
       gradientUnits="userSpaceOnUse"
       x1="56.060001"
       y1="-8.8800001"
       x2="85.209999"
       y2="21.09">
      <stop
         offset="0"
         stop-color="#ededed"
         id="stop9" />
      <stop
         offset="1"
         stop-color="#a5a5a5"
         id="stop11" />
    </linearGradient>
    <path
       style="fill:url(#gradient0)"
       d="M 22,8 L 22,34 L 54,48 L 54,17 L 22,8 z"
       id="path13" />
    <path
       style="fill:#ffffff"
       d="M 50,42 L 26,32 L 24,33 L 52,45 L 52,19 L 50,21 L 50,42 z"
       id="path15" />
    <linearGradient
       id="gradient1"
       gradientUnits="userSpaceOnUse"
       x1="88.010002"
       y1="6.3000002"
       x2="89.510002"
       y2="27.08">
      <stop
         offset="0"
         stop-color="#919191"
         id="stop18" />
      <stop
         offset="1"
         stop-color="#b5b5b5"
         id="stop20" />
    </linearGradient>
    <path
       style="fill:url(#gradient1)"
       d="M 24,11 L 24,33 L 26,32 L 26,14 L 50,21 L 52,19 L 24,11 z"
       id="path22" />
    <linearGradient
       id="gradient2"
       gradientUnits="userSpaceOnUse"
       x1="119.17"
       y1="-37.889999"
       x2="141.58"
       y2="13.42">
      <stop
         offset="0"
         stop-color="#ffffff"
         id="stop25" />
      <stop
         offset="1"
         stop-color="#e9e9e9"
         id="stop27" />
    </linearGradient>
    <path
       style="fill:url(#gradient2)"
       d="M 26,14 L 26,32 L 52,43 L 52,22 L 26,14 z"
       id="path29" />
    <linearGradient
       id="gradient3"
       gradientUnits="userSpaceOnUse"
       x1="51.700001"
       y1="-2.04"
       x2="54.150002"
       y2="16.450001">
      <stop
         offset="0"
         stop-color="#ffea00"
         id="stop32" />
      <stop
         offset="1"
         stop-color="#ffb830"
         id="stop34" />
    </linearGradient>
    <path
       style="fill:url(#gradient3)"
       d="M 22,3 L 22,9 L 38,13.75 L 38,7 L 22,3 z"
       id="path36" />
  </g>
  <g
     transform="matrix(0.9964419,0.5023863,-0.5023863,0.9964419,18.182234,-15.531717)"
     id="g2431">
    <linearGradient
       y2="26.91"
       x2="103.7"
       y1="-5.5500002"
       x1="83.050003"
       gradientUnits="userSpaceOnUse"
       id="linearGradient2433">
      <stop
         id="stop2435"
         stop-color="#faf9d2"
         offset="0" />
      <stop
         id="stop13"
         stop-color="#dddb8f"
         offset="1" />
    </linearGradient>
    <linearGradient
       y2="23.280001"
       x2="56.810001"
       y1="6.0599999"
       x1="34.740002"
       gradientUnits="userSpaceOnUse"
       id="linearGradient2438">
      <stop
         id="stop2440"
         stop-color="#010101"
         offset="0" />
      <stop
         id="stop22"
         stop-color="#807e5d"
         offset="1" />
    </linearGradient>
    <path
       id="path26"
       d="M 30,5.99 L 24,13.99 L 34,21.99 L 34,33.99 L 42,19.99 L 30,11.99 L 30,5.99 z"
       style="fill:none;stroke:#ffd306;stroke-width:4" />
    <path
       id="path28"
       d="M 30,5.99 L 24,13.99 L 34,21.99 L 34,33.99 L 42,19.99 L 30,11.99 L 30,5.99 z"
       style="fill:#fffdc7" />
  </g>
</svg>
